<?xml version="1.0" encoding="UTF-8"?><svg id="Layer_2" xmlns="http://www.w3.org/2000/svg" xmlns:xlink="http://www.w3.org/1999/xlink" viewBox="0 0 237.92 237.97"><defs><style>.cls-1{fill:url(#linear-gradient);}</style><linearGradient id="linear-gradient" x1="118.96" y1="237.97" x2="118.96" y2="0" gradientUnits="userSpaceOnUse"><stop offset="0" stop-color="#475147"/><stop offset=".21" stop-color="#7f8e7d"/><stop offset=".44" stop-color="#b7ccb4"/><stop offset=".5" stop-color="#b7ccb4" stop-opacity=".97"/><stop offset=".57" stop-color="#b9ceb6" stop-opacity=".89"/><stop offset=".66" stop-color="#bcd1ba" stop-opacity=".75"/><stop offset=".76" stop-color="#c1d5bf" stop-opacity=".57"/><stop offset=".86" stop-color="#c7dac6" stop-opacity=".32"/><stop offset=".97" stop-color="#cee1ce" stop-opacity=".03"/><stop offset=".98" stop-color="#cfe2cf" stop-opacity="0"/></linearGradient></defs><g id="Layer_12"><path class="cls-1" d="m232.33,155.19c-2.65,8.3-6.18,16.21-10.5,23.61H16.08c-4.31-7.4-7.85-15.31-10.5-23.61h226.74Zm-46.28,62.07H51.87c19.1,13.07,42.2,20.71,67.09,20.71s47.99-7.65,67.09-20.71Zm-165.26-31.04c6.03,8.79,13.22,16.74,21.34,23.61h153.66c8.12-6.87,15.31-14.82,21.34-23.61H20.78ZM.09,124.15c.35,8.11,1.5,16,3.39,23.61h230.95c1.89-7.61,3.05-15.5,3.39-23.61H.09ZM190.11,23.61C170.27,8.78,145.64,0,118.96,0s-51.31,8.78-71.15,23.61h142.31Zm47.8,93.11c-.15-8.09-1.11-15.99-2.8-23.61H2.8c-1.69,7.62-2.65,15.52-2.8,23.61h237.92Zm-18.85-62.07c-5.61-8.72-12.34-16.65-19.97-23.61H38.82c-7.63,6.96-14.35,14.89-19.97,23.61h200.21Zm14.15,31.04c-2.41-8.28-5.69-16.18-9.74-23.61H14.44c-4.05,7.43-7.33,15.33-9.74,23.61h228.51Z"/></g></svg>