<?xml version="1.0" encoding="UTF-8"?><svg id="Layer_2" xmlns="http://www.w3.org/2000/svg" xmlns:xlink="http://www.w3.org/1999/xlink" viewBox="0 0 237.95 236.59"><defs><style>.cls-1{fill:url(#linear-gradient);}.cls-2{fill:url(#linear-gradient-8);}.cls-3{fill:url(#linear-gradient-9);}.cls-4{fill:url(#linear-gradient-3);}.cls-5{fill:url(#linear-gradient-4);}.cls-6{fill:url(#linear-gradient-2);}.cls-7{fill:url(#linear-gradient-6);}.cls-8{fill:url(#linear-gradient-7);}.cls-9{fill:url(#linear-gradient-5);}.cls-10{fill:url(#linear-gradient-55);}.cls-11{fill:url(#linear-gradient-56);}.cls-12{fill:url(#linear-gradient-53);}.cls-13{fill:url(#linear-gradient-54);}.cls-14{fill:url(#linear-gradient-51);}.cls-15{fill:url(#linear-gradient-52);}.cls-16{fill:url(#linear-gradient-50);}.cls-17{fill:url(#linear-gradient-41);}.cls-18{fill:url(#linear-gradient-40);}.cls-19{fill:url(#linear-gradient-43);}.cls-20{fill:url(#linear-gradient-42);}.cls-21{fill:url(#linear-gradient-45);}.cls-22{fill:url(#linear-gradient-46);}.cls-23{fill:url(#linear-gradient-44);}.cls-24{fill:url(#linear-gradient-49);}.cls-25{fill:url(#linear-gradient-47);}.cls-26{fill:url(#linear-gradient-48);}.cls-27{fill:url(#linear-gradient-14);}.cls-28{fill:url(#linear-gradient-18);}.cls-29{fill:url(#linear-gradient-22);}.cls-30{fill:url(#linear-gradient-20);}.cls-31{fill:url(#linear-gradient-21);}.cls-32{fill:url(#linear-gradient-23);}.cls-33{fill:url(#linear-gradient-15);}.cls-34{fill:url(#linear-gradient-19);}.cls-35{fill:url(#linear-gradient-16);}.cls-36{fill:url(#linear-gradient-17);}.cls-37{fill:url(#linear-gradient-13);}.cls-38{fill:url(#linear-gradient-12);}.cls-39{fill:url(#linear-gradient-10);}.cls-40{fill:url(#linear-gradient-11);}.cls-41{fill:url(#linear-gradient-27);}.cls-42{fill:url(#linear-gradient-24);}.cls-43{fill:url(#linear-gradient-26);}.cls-44{fill:url(#linear-gradient-38);}.cls-45{fill:url(#linear-gradient-35);}.cls-46{fill:url(#linear-gradient-37);}.cls-47{fill:url(#linear-gradient-34);}.cls-48{fill:url(#linear-gradient-39);}.cls-49{fill:url(#linear-gradient-36);}.cls-50{fill:url(#linear-gradient-25);}.cls-51{fill:url(#linear-gradient-28);}.cls-52{fill:url(#linear-gradient-29);}.cls-53{fill:url(#linear-gradient-33);}.cls-54{fill:url(#linear-gradient-30);}.cls-55{fill:url(#linear-gradient-32);}.cls-56{fill:url(#linear-gradient-31);}</style><linearGradient id="linear-gradient" x1="133.25" y1="207.15" x2="133.25" y2="177.22" gradientUnits="userSpaceOnUse"><stop offset="0" stop-color="#313aaa"/><stop offset=".08" stop-color="#3f46ad"/><stop offset=".44" stop-color="#7d79bc"/><stop offset=".5" stop-color="#817dbe" stop-opacity=".97"/><stop offset=".57" stop-color="#8c89c4" stop-opacity=".88"/><stop offset=".66" stop-color="#9f9ccd" stop-opacity=".73"/><stop offset=".76" stop-color="#bab8db" stop-opacity=".53"/><stop offset=".86" stop-color="#dbdaec" stop-opacity=".27"/><stop offset=".95" stop-color="#fff" stop-opacity="0"/></linearGradient><linearGradient id="linear-gradient-2" x1="186.38" y1="97.18" x2="186.38" y2="67.26" xlink:href="#linear-gradient"/><linearGradient id="linear-gradient-3" x1="134.21" y1="168.71" x2="134.21" y2="138.79" xlink:href="#linear-gradient"/><linearGradient id="linear-gradient-4" x1="126.95" y1="98.05" x2="126.95" y2="68.12" xlink:href="#linear-gradient"/><linearGradient id="linear-gradient-5" x1="105.24" y1="168.31" x2="105.24" y2="138.39" xlink:href="#linear-gradient"/><linearGradient id="linear-gradient-6" x1="107.06" y1="206.74" x2="107.06" y2="176.82" xlink:href="#linear-gradient"/><linearGradient id="linear-gradient-7" x1="160.19" y1="96.78" x2="160.19" y2="66.85" xlink:href="#linear-gradient"/><linearGradient id="linear-gradient-8" x1="160.35" y1="207.57" x2="160.35" y2="177.64" xlink:href="#linear-gradient"/><linearGradient id="linear-gradient-9" x1="183.72" y1="62.9" x2="183.72" y2="32.97" xlink:href="#linear-gradient"/><linearGradient id="linear-gradient-10" x1="160.35" y1="169.13" x2="160.35" y2="139.21" xlink:href="#linear-gradient"/><linearGradient id="linear-gradient-11" x1="160.05" y1="132.33" x2="160.05" y2="102.41" xlink:href="#linear-gradient"/><linearGradient id="linear-gradient-12" x1="151.01" y1="64.57" x2="151.01" y2="34.65" xlink:href="#linear-gradient"/><linearGradient id="linear-gradient-13" x1="103.01" y1="133.2" x2="103.01" y2="103.28" xlink:href="#linear-gradient"/><linearGradient id="linear-gradient-14" x1="133.86" y1="131.93" x2="133.86" y2="102" xlink:href="#linear-gradient"/><linearGradient id="linear-gradient-15" x1="48" y1="169.13" x2="48" y2="139.21" xlink:href="#linear-gradient"/><linearGradient id="linear-gradient-16" x1="18.51" y1="96.37" x2="18.51" y2="66.45" xlink:href="#linear-gradient"/><linearGradient id="linear-gradient-17" x1="20.76" y1="131.93" x2="20.76" y2="102" xlink:href="#linear-gradient"/><linearGradient id="linear-gradient-18" x1="70.9" y1="97.18" x2="70.9" y2="67.26" xlink:href="#linear-gradient"/><linearGradient id="linear-gradient-19" x1="80.86" y1="206.34" x2="80.86" y2="176.41" xlink:href="#linear-gradient"/><linearGradient id="linear-gradient-20" x1="232.54" y1="135.31" x2="232.54" y2="115.65" xlink:href="#linear-gradient"/><linearGradient id="linear-gradient-21" x1="214.96" y1="169.47" x2="214.96" y2="139.55" xlink:href="#linear-gradient"/><linearGradient id="linear-gradient-22" x1="122.05" y1="64.12" x2="122.05" y2="34.2" xlink:href="#linear-gradient"/><linearGradient id="linear-gradient-23" x1="76.96" y1="169.58" x2="76.96" y2="139.66" xlink:href="#linear-gradient"/><linearGradient id="linear-gradient-24" x1="94.96" y1="63.71" x2="94.96" y2="33.78" xlink:href="#linear-gradient"/><linearGradient id="linear-gradient-25" x1="44.7" y1="96.78" x2="44.7" y2="66.85" xlink:href="#linear-gradient"/><linearGradient id="linear-gradient-26" x1="74.05" y1="132.75" x2="74.05" y2="102.83" xlink:href="#linear-gradient"/><linearGradient id="linear-gradient-27" x1="97.99" y1="97.6" x2="97.99" y2="67.68" xlink:href="#linear-gradient"/><linearGradient id="linear-gradient-28" x1="68.76" y1="63.3" x2="68.76" y2="33.38" xlink:href="#linear-gradient"/><linearGradient id="linear-gradient-29" x1="206.46" y1="63.3" x2="206.46" y2="41.45" xlink:href="#linear-gradient"/><linearGradient id="linear-gradient-30" x1="46.95" y1="132.33" x2="46.95" y2="102.41" xlink:href="#linear-gradient"/><linearGradient id="linear-gradient-31" x1="27.82" y1="192.81" x2="27.82" y2="177.64" xlink:href="#linear-gradient"/><linearGradient id="linear-gradient-32" x1="3.37" y1="115.83" x2="3.37" y2="101.61" xlink:href="#linear-gradient"/><linearGradient id="linear-gradient-33" x1="4.33" y1="147.77" x2="4.33" y2="138.39" xlink:href="#linear-gradient"/><linearGradient id="linear-gradient-34" x1="21.05" y1="168.7" x2="21.05" y2="138.79" xlink:href="#linear-gradient"/><linearGradient id="linear-gradient-35" x1="60.67" y1="223.33" x2="60.67" y2="218.65" xlink:href="#linear-gradient"/><linearGradient id="linear-gradient-36" x1="50.79" y1="208.01" x2="50.79" y2="178.09" xlink:href="#linear-gradient"/><linearGradient id="linear-gradient-37" x1="166.17" y1="229.98" x2="166.17" y2="218.2" xlink:href="#linear-gradient"/><linearGradient id="linear-gradient-38" x1="212.82" y1="200.69" x2="212.82" y2="178.61" xlink:href="#linear-gradient"/><linearGradient id="linear-gradient-39" x1="228.67" y1="166.93" x2="228.67" y2="160.14" xlink:href="#linear-gradient"/><linearGradient id="linear-gradient-40" x1="86.3" y1="232.34" x2="86.3" y2="216.97" xlink:href="#linear-gradient"/><linearGradient id="linear-gradient-41" x1="136.45" y1="236.59" x2="136.45" y2="217.78" xlink:href="#linear-gradient"/><linearGradient id="linear-gradient-42" x1="110.53" y1="236.49" x2="110.53" y2="217.37" xlink:href="#linear-gradient"/><linearGradient id="linear-gradient-43" x1="23.88" y1="54.19" x2="23.88" y2="39.59" xlink:href="#linear-gradient"/><linearGradient id="linear-gradient-44" x1="213.48" y1="97.6" x2="213.48" y2="67.68" xlink:href="#linear-gradient"/><linearGradient id="linear-gradient-45" x1="197.78" y1="30.87" x2="197.78" y2="26.74" xlink:href="#linear-gradient"/><linearGradient id="linear-gradient-46" x1="233.24" y1="98.05" x2="233.24" y2="87.71" xlink:href="#linear-gradient"/><linearGradient id="linear-gradient-47" x1="216.11" y1="133.2" x2="216.11" y2="103.28" xlink:href="#linear-gradient"/><linearGradient id="linear-gradient-48" x1="189.31" y1="208.01" x2="189.31" y2="178.09" xlink:href="#linear-gradient"/><linearGradient id="linear-gradient-49" x1="186.38" y1="169.58" x2="186.38" y2="139.66" xlink:href="#linear-gradient"/><linearGradient id="linear-gradient-50" x1="92.71" y1="29.6" x2="92.71" y2="0" xlink:href="#linear-gradient"/><linearGradient id="linear-gradient-51" x1="65.81" y1="29.2" x2="65.81" y2="6.37" xlink:href="#linear-gradient"/><linearGradient id="linear-gradient-52" x1="42.57" y1="62.9" x2="42.57" y2="32.97" xlink:href="#linear-gradient"/><linearGradient id="linear-gradient-53" x1="187.15" y1="132.75" x2="187.15" y2="102.83" xlink:href="#linear-gradient"/><linearGradient id="linear-gradient-54" x1="171.4" y1="30.87" x2="171.4" y2="11.86" xlink:href="#linear-gradient"/><linearGradient id="linear-gradient-55" x1="145.93" y1="30.43" x2="145.93" y2="3.06" xlink:href="#linear-gradient"/><linearGradient id="linear-gradient-56" x1="118.9" y1="30.01" x2="118.9" y2=".08" xlink:href="#linear-gradient"/></defs><g id="Layer_13"><g><path class="cls-1" d="m122.65,206.37c1.73,1.3,4.19.94,5.49-.79l16.51-22.08c1.3-1.73.94-4.19-.79-5.49-1.73-1.3-4.19-.94-5.49.79l-16.51,22.08c-1.3,1.73-.94,4.19.79,5.49Z"/><path class="cls-6" d="m196.98,68.04c-1.73-1.3-4.19-.94-5.49.79l-16.51,22.08c-1.3,1.73-.94,4.19.79,5.49,1.73,1.3,4.19.94,5.49-.79l16.51-22.08c1.3-1.73.94-4.19-.79-5.49Z"/><path class="cls-4" d="m144.81,139.57c-1.73-1.3-4.19-.94-5.49.79l-16.51,22.08c-1.3,1.73-.94,4.19.79,5.49s4.19.94,5.49-.79l16.51-22.08c1.3-1.73.94-4.19-.79-5.49Z"/><path class="cls-5" d="m121.84,96.47l16.51-22.08c1.3-1.73.94-4.19-.79-5.49-1.73-1.3-4.19-.94-5.49.79l-16.51,22.08c-1.3,1.73-.94,4.19.79,5.49,1.73,1.3,4.19.94,5.49-.79Z"/><path class="cls-9" d="m94.64,167.53c1.73,1.3,4.19.94,5.49-.79l16.51-22.08c1.3-1.73.94-4.19-.79-5.49-1.73-1.3-4.19-.94-5.49.79l-16.51,22.08c-1.3,1.73-.94,4.19.79,5.49Z"/><path class="cls-7" d="m96.46,205.96c1.73,1.3,4.19.94,5.49-.79l16.51-22.08c1.3-1.73.94-4.19-.79-5.49-1.73-1.3-4.19-.94-5.49.79l-16.51,22.08c-1.3,1.73-.94,4.19.79,5.49Z"/><path class="cls-8" d="m149.59,96c1.73,1.3,4.19.94,5.49-.79l16.51-22.08c1.3-1.73.94-4.19-.79-5.49h0c-1.73-1.3-4.19-.94-5.49.79l-16.51,22.08c-1.3,1.73-.94,4.19.79,5.49Z"/><path class="cls-2" d="m170.94,178.42c-1.73-1.3-4.19-.94-5.49.79l-16.51,22.08c-1.3,1.73-.94,4.19.79,5.49,1.73,1.3,4.19.94,5.49-.79l16.51-22.08c1.3-1.73.94-4.19-.79-5.49Z"/><path class="cls-3" d="m173.12,62.12c1.73,1.3,4.19.94,5.49-.79l16.51-22.08c1.3-1.73.94-4.19-.79-5.49-1.73-1.3-4.19-.94-5.49.79l-16.51,22.08c-1.3,1.73-.94,4.19.79,5.49Z"/><path class="cls-39" d="m170.94,139.99c-1.73-1.3-4.19-.94-5.49.79l-16.51,22.08c-1.3,1.73-.94,4.19.79,5.49,1.73,1.3,4.19.94,5.49-.79l16.51-22.08c1.3-1.73.94-4.19-.79-5.49Z"/><path class="cls-40" d="m149.46,131.55h0c1.73,1.3,4.19.94,5.49-.79l16.51-22.08c1.3-1.73.94-4.19-.79-5.49-1.73-1.3-4.19-.94-5.49.79l-16.51,22.08c-1.3,1.73-.94,4.19.79,5.49Z"/><path class="cls-38" d="m161.61,35.43c-1.73-1.3-4.19-.94-5.49.79l-16.51,22.08c-1.3,1.73-.94,4.19.79,5.49,1.73,1.3,4.19.94,5.49-.79l16.51-22.08c1.3-1.73.94-4.19-.79-5.49Z"/><path class="cls-37" d="m97.9,131.63l16.51-22.08c1.3-1.73.94-4.19-.79-5.49-1.73-1.3-4.19-.94-5.49.79l-16.51,22.08c-1.3,1.73-.94,4.19.79,5.49s4.19.94,5.49-.79Z"/><path class="cls-27" d="m123.26,131.15c1.73,1.3,4.19.94,5.49-.79l16.51-22.08c1.3-1.73.94-4.19-.79-5.49-1.73-1.3-4.19-.94-5.49.79l-16.51,22.08c-1.3,1.73-.94,4.19.79,5.49Z"/><path class="cls-33" d="m58.6,139.99c-1.73-1.3-4.19-.94-5.49.79l-16.51,22.08c-1.3,1.73-.94,4.19.79,5.49,1.73,1.3,4.19.94,5.49-.79l16.51-22.08c1.3-1.73.94-4.19-.79-5.49Z"/><path class="cls-35" d="m13.39,94.8l16.51-22.08c1.3-1.73.94-4.19-.79-5.49-1.73-1.3-4.19-.94-5.49.79l-16.51,22.08c-1.3,1.73-.94,4.19.79,5.49,1.73,1.3,4.19.94,5.49-.79Z"/><path class="cls-36" d="m10.16,131.15c1.73,1.3,4.19.94,5.49-.79l16.51-22.08c1.3-1.73.94-4.19-.79-5.49h0c-1.73-1.3-4.19-.94-5.49.79l-16.51,22.08c-1.3,1.73-.94,4.19.79,5.49Z"/><path class="cls-28" d="m65.78,95.61l16.51-22.08c1.3-1.73.94-4.19-.79-5.49h0c-1.73-1.3-4.19-.94-5.49.79l-16.51,22.08c-1.3,1.73-.94,4.19.79,5.49,1.73,1.3,4.19.94,5.49-.79Z"/><path class="cls-34" d="m75.75,204.76l16.51-22.08c1.3-1.73.94-4.19-.79-5.49h0c-1.73-1.3-4.19-.94-5.49.79l-16.51,22.08c-1.3,1.73-.94,4.19.79,5.49h0c1.73,1.3,4.19.94,5.49-.79Z"/><path class="cls-30" d="m228.7,134.53c1.73,1.3,4.19.94,5.49-.79l3.2-4.28c.37-3.82.57-7.7.57-11.62,0-.73-.01-1.46-.03-2.2l-10.01,13.4c-1.3,1.73-.94,4.19.79,5.49Z"/><path class="cls-31" d="m209.85,167.9l16.51-22.08c1.3-1.73.94-4.19-.79-5.49s-4.19-.94-5.49.79l-16.51,22.08c-1.3,1.73-.94,4.19.79,5.49h0c1.73,1.3,4.19.94,5.49-.79Z"/><path class="cls-29" d="m111.45,63.34c1.73,1.3,4.19.94,5.49-.79l16.51-22.08c1.3-1.73.94-4.19-.79-5.49-1.73-1.3-4.19-.94-5.49.79l-16.51,22.08c-1.3,1.73-.94,4.19.79,5.49Z"/><path class="cls-32" d="m66.37,168.8c1.73,1.3,4.19.94,5.49-.79l16.51-22.08c1.3-1.73.94-4.19-.79-5.49-1.73-1.3-4.19-.94-5.49.79l-16.51,22.08c-1.3,1.73-.94,4.19.79,5.49Z"/><path class="cls-42" d="m105.56,34.56c-1.73-1.3-4.19-.94-5.49.79l-16.51,22.08c-1.3,1.73-.94,4.19.79,5.49,1.73,1.3,4.19.94,5.49-.79l16.51-22.08c1.3-1.73.94-4.19-.79-5.49Z"/><path class="cls-50" d="m34.1,96c1.73,1.3,4.19.94,5.49-.79l16.51-22.08c1.3-1.73.94-4.19-.79-5.49-1.73-1.3-4.19-.94-5.49.79l-16.51,22.08c-1.3,1.73-.94,4.19.79,5.49Z"/><path class="cls-43" d="m63.45,131.97c1.73,1.3,4.19.94,5.49-.79l16.51-22.08c1.3-1.73.94-4.19-.79-5.49h0c-1.73-1.3-4.19-.94-5.49.79l-16.51,22.08c-1.3,1.73-.94,4.19.79,5.49Z"/><path class="cls-41" d="m108.59,68.46c-1.73-1.3-4.19-.94-5.49.79l-16.51,22.08c-1.3,1.73-.94,4.19.79,5.49,1.73,1.3,4.19.94,5.49-.79l16.51-22.08c1.3-1.73.94-4.19-.79-5.49Z"/><path class="cls-51" d="m58.16,62.52c1.73,1.3,4.19.94,5.49-.79l16.51-22.08c1.3-1.73.94-4.19-.79-5.49-1.73-1.3-4.19-.94-5.49.79l-16.51,22.08c-1.3,1.73-.94,4.19.79,5.49Z"/><path class="cls-52" d="m198.53,57.03c-1.3,1.73-.94,4.19.79,5.49h0c1.73,1.3,4.19.94,5.49-.79l10.37-13.88c-1.6-2.19-3.26-4.32-5-6.4l-11.65,15.59Z"/><path class="cls-54" d="m36.35,131.55c1.73,1.3,4.19.94,5.49-.79l16.51-22.08c1.3-1.73.94-4.19-.79-5.49-1.73-1.3-4.19-.94-5.49.79l-16.51,22.08c-1.3,1.73-.94,4.19.79,5.49Z"/><path class="cls-56" d="m33.22,183.91c1.3-1.73.94-4.19-.79-5.49-1.73-1.3-4.19-.94-5.49.79l-5.3,7.09c1.57,2.23,3.21,4.39,4.93,6.5l6.65-8.9Z"/><path class="cls-55" d="m5.96,107.87c1.3-1.73.94-4.19-.79-5.49-1.24-.93-2.85-1-4.14-.33-.6,4.52-.94,9.12-1.02,13.78l5.96-7.97Z"/><path class="cls-53" d="m5.31,139.17c-1.05-.79-2.37-.96-3.53-.59.55,3.11,1.21,6.17,1.99,9.19l2.33-3.12c1.3-1.73.94-4.19-.79-5.49Z"/><path class="cls-47" d="m15.79,167.14l16.51-22.08c1.3-1.73.94-4.19-.79-5.49-1.73-1.3-4.19-.94-5.49.79l-16.51,22.08c-.22.3-.38.62-.5.95.7,1.7,1.45,3.38,2.23,5.04,1.6.62,3.47.15,4.55-1.29Z"/><path class="cls-45" d="m62.39,219.43h0c-1.53-1.15-3.63-1-4.99.26,2.12,1.28,4.28,2.49,6.48,3.65.28-1.43-.24-2.97-1.48-3.9Z"/><path class="cls-49" d="m45.67,206.44l16.51-22.08c1.3-1.73.94-4.19-.79-5.49h0c-1.73-1.3-4.19-.94-5.49.79l-16.51,22.08c-.99,1.32-1.01,3.05-.2,4.38.57.52,1.14,1.03,1.72,1.53,1.64.75,3.64.28,4.76-1.22Z"/><path class="cls-46" d="m171.94,218.98c-1.73-1.3-4.19-.94-5.49.79l-7.63,10.21c4.92-1.75,9.7-3.81,14.3-6.16.8-1.66.34-3.7-1.18-4.84Z"/><path class="cls-44" d="m220.07,179.66l-15.71,21.02c6.46-6.66,12.14-14.06,16.91-22.08-.46.26-.87.61-1.2,1.06Z"/><path class="cls-48" d="m227.91,163.21c-.83,1.11-.98,2.51-.52,3.72,1.01-2.23,1.95-4.49,2.82-6.79l-2.3,3.07Z"/><path class="cls-18" d="m93.25,223.24c1.3-1.73.94-4.19-.79-5.49h0c-1.73-1.3-4.19-.94-5.49.79l-8.41,11.25c2.59.93,5.22,1.79,7.89,2.54l6.8-9.1Z"/><path class="cls-17" d="m145.64,224.05c1.3-1.73.94-4.19-.79-5.49h0c-1.73-1.3-4.19-.94-5.49.79l-12.88,17.24c3.59-.22,7.14-.6,10.63-1.13l8.53-11.41Z"/><path class="cls-20" d="m119.45,223.64c1.3-1.73.94-4.19-.79-5.49-1.73-1.3-4.19-.94-5.49.79l-12.34,16.51c2.97.45,5.98.8,9.02,1.03l9.6-12.85Z"/><path class="cls-19" d="m29.33,39.59c-3.99,4.57-7.64,9.45-10.91,14.6l10.91-14.6Z"/><path class="cls-23" d="m202.88,96.82c1.73,1.3,4.19.94,5.49-.79l16.51-22.08c1.3-1.73.94-4.19-.79-5.49h0c-1.73-1.3-4.19-.94-5.49.79l-16.51,22.08c-1.3,1.73-.94,4.19.79,5.49Z"/><path class="cls-21" d="m197.06,30.09h0c.9.67,1.99.89,3.02.71-1.49-1.39-3.02-2.75-4.59-4.06-.07,1.26.48,2.54,1.57,3.35Z"/><path class="cls-22" d="m231.84,97.27c1.31.98,3.04,1.01,4.37.22-.57-3.31-1.27-6.57-2.11-9.78l-3.05,4.07c-1.3,1.73-.94,4.19.79,5.49Z"/><path class="cls-25" d="m226.71,104.06c-1.73-1.3-4.19-.94-5.49.79l-16.51,22.08c-1.3,1.73-.94,4.19.79,5.49h0c1.73,1.3,4.19.94,5.49-.79l16.51-22.08c1.3-1.73.94-4.19-.79-5.49Z"/><path class="cls-26" d="m178.71,207.23c1.73,1.3,4.19.94,5.49-.79l16.51-22.08c1.3-1.73.94-4.19-.79-5.49h0c-1.73-1.3-4.19-.94-5.49.79l-16.51,22.08c-1.3,1.73-.94,4.19.79,5.49Z"/><path class="cls-24" d="m175.78,168.8c1.73,1.3,4.19.94,5.49-.79l16.51-22.08c1.3-1.73.94-4.19-.79-5.49-1.73-1.3-4.19-.94-5.49.79l-16.51,22.08c-1.3,1.73-.94,4.19.79,5.49Z"/><path class="cls-16" d="m97.82,1.25l-16.51,22.08c-1.3,1.73-.94,4.19.79,5.49,1.73,1.3,4.19.94,5.49-.79l16.51-22.08c1.3-1.73.94-4.19-.79-5.49-.26-.19-.54-.34-.82-.46-1.37.19-2.73.4-4.08.63-.21.18-.41.39-.58.62Z"/><path class="cls-14" d="m55.12,22.93c-1.3,1.73-.94,4.19.79,5.49,1.73,1.3,4.19.94,5.49-.79l15.89-21.25c-5.12,1.91-10.06,4.16-14.82,6.73l-7.35,9.83Z"/><path class="cls-15" d="m31.97,62.12c1.73,1.3,4.19.94,5.49-.79l16.51-22.08c1.3-1.73.94-4.19-.79-5.49s-4.19-.94-5.49.79l-16.51,22.08c-1.3,1.73-.94,4.19.79,5.49Z"/><path class="cls-12" d="m192.26,104.4l-16.51,22.08c-1.3,1.73-.94,4.19.79,5.49,1.73,1.3,4.19.94,5.49-.79l16.51-22.08c1.3-1.73.94-4.19-.79-5.49-1.73-1.3-4.19-.94-5.49.79Z"/><path class="cls-13" d="m163.57,24.61c-1.3,1.73-.94,4.19.79,5.49,1.73,1.3,4.19.94,5.49-.79l10.17-13.6c-2.26-1.35-4.56-2.64-6.91-3.84l-9.53,12.75Z"/><path class="cls-10" d="m134.6,24.16c-1.3,1.73-.94,4.19.79,5.49,1.73,1.3,4.19.94,5.49-.79l16.51-22.08c.31-.41.52-.87.64-1.34-2.51-.87-5.07-1.66-7.66-2.37l-15.77,21.1Z"/><path class="cls-11" d="m108.3,29.23c1.73,1.3,4.19.94,5.49-.79l16.51-22.08c1.3-1.73.94-4.19-.79-5.49-1.73-1.3-4.19-.94-5.49.79l-16.51,22.08c-1.3,1.73-.94,4.19.79,5.49Z"/></g></g></svg>