<?xml version="1.0" encoding="UTF-8"?><svg id="Layer_2" xmlns="http://www.w3.org/2000/svg" xmlns:xlink="http://www.w3.org/1999/xlink" viewBox="0 0 237.95 234.49"><defs><style>.cls-1{fill:url(#linear-gradient);}.cls-2{fill:url(#linear-gradient-3);}.cls-3{fill:url(#linear-gradient-4);}.cls-4{fill:url(#linear-gradient-2);}.cls-5{fill:url(#linear-gradient-6);}.cls-6{fill:url(#linear-gradient-7);}.cls-7{fill:url(#linear-gradient-5);}</style><linearGradient id="linear-gradient" x1="3.8" y1="117.29" x2="3.8" y2="106.69" gradientUnits="userSpaceOnUse"><stop offset="0" stop-color="#2f1959"/><stop offset=".44" stop-color="#e5b7ed"/><stop offset=".61" stop-color="#e5bced"/><stop offset=".84" stop-color="#e5cded"/><stop offset="1" stop-color="#e5deed"/></linearGradient><linearGradient id="linear-gradient-2" x1="59.94" y1="170.95" x2="59.94" y2="0" xlink:href="#linear-gradient"/><linearGradient id="linear-gradient-3" x1="189.85" y1="234.49" x2="189.85" y2="86.26" xlink:href="#linear-gradient"/><linearGradient id="linear-gradient-4" x1="31.6" y1="100.12" x2="31.6" y2="20.99" xlink:href="#linear-gradient"/><linearGradient id="linear-gradient-5" x1="18.56" y1="182.49" x2="18.56" y2="179.11" xlink:href="#linear-gradient"/><linearGradient id="linear-gradient-6" x1="147.05" y1="231.93" x2="147.05" y2="27.85" xlink:href="#linear-gradient"/><linearGradient id="linear-gradient-7" x1="101.33" y1="216.83" x2="101.33" y2=".67" xlink:href="#linear-gradient"/></defs><g id="Layer_15"><g><path class="cls-1" d="m.59,106.69c-.35,3.49-.55,7.03-.59,10.6l7.59-7.59-7-3.01Z"/><path class="cls-4" d="m72.77,18.98l12.44,5.51-32.93,32.93,13.97,6.63-34.77,34.76,13.15,6.22L7.83,141.83l10.3,4.38-11.61,11.61c1.56,4.5,3.38,8.88,5.45,13.12l27.55-27.55-10.99-4.72,39.66-39.66-10.91-4.38,36.4-36.4-12.34-4.18,30.99-30.99-15.7-6.32L113.37,0c-8.83.41-17.4,1.78-25.63,4.01l-14.97,14.97Z"/><path class="cls-2" d="m208.63,111.07l13.97,6.63-34.76,34.76,13.15,6.22-36.8,36.8,10.3,4.38-32.73,32.73,5.32,1.9c5.91-1.43,11.65-3.3,17.17-5.58l-.17-.08,31.79-31.79-10.99-4.72,39.66-39.66-10.91-4.38,24.21-24.21c.07-1.73.12-3.47.12-5.22,0-11.3-1.58-22.23-4.52-32.59l-24.81,24.81Z"/><path class="cls-3" d="m1.45,100.12l34.81-34.81-10.91-4.38L61.75,24.54l-10.47-3.55c-17.76,12.3-32,29.31-40.93,49.22l2.36,1.12-4.83,4.83c-2.94,7.64-5.11,15.65-6.42,23.96Z"/><path class="cls-7" d="m16.35,179.11c.67,1.14,1.36,2.27,2.06,3.38l2.36-1.37-4.42-2.01Z"/><path class="cls-5" d="m128.99,204.62l-13.05-5.93,31.79-31.79-10.99-4.72,39.66-39.66-10.91-4.38,36.4-36.4-12.34-4.18,26.91-26.91c-2-2.86-4.13-5.62-6.37-8.28l-5.26-2.12,1.81-1.81c-3.45-3.76-7.14-7.29-11.04-10.58l-14.63,14.63,12.44,5.51-32.93,32.93,13.97,6.63-34.76,34.76,13.15,6.22-36.8,36.8,10.3,4.38-32.73,32.73,8.87,3.16-24.85,24.85c1.39.52,2.8,1,4.22,1.47l47.14-27.31Z"/><path class="cls-6" d="m50.29,204l31.79-31.79-10.99-4.72,39.66-39.66-10.91-4.38,36.4-36.4-12.34-4.18,30.99-30.99-15.7-6.32,29.67-29.67-18.25-8.67,2.41-2.41c-6.52-1.94-13.28-3.34-20.21-4.15l-7.27,8.6,17.94,10.4-28.14,28.14,12.44,5.51-32.93,32.93,13.97,6.63-34.77,34.76,13.15,6.22-36.8,36.8,10.3,4.38-26.89,26.89c5.38,5.51,11.29,10.51,17.65,14.9l11.89-6.89-13.05-5.93Z"/></g></g></svg>