<?xml version="1.0" encoding="UTF-8"?><svg id="Layer_2" xmlns="http://www.w3.org/2000/svg" xmlns:xlink="http://www.w3.org/1999/xlink" viewBox="0 0 323.4 237.97"><defs><style>.cls-1{fill:url(#linear-gradient);}</style><linearGradient id="linear-gradient" x1="118.99" y1="237.97" x2="118.99" y2="0" gradientUnits="userSpaceOnUse"><stop offset="0" stop-color="#d04e05"/><stop offset=".22" stop-color="#e49029"/><stop offset=".44" stop-color="#f8ce4b"/><stop offset=".49" stop-color="#f8cf4f" stop-opacity=".98"/><stop offset=".55" stop-color="#f8d25b" stop-opacity=".91"/><stop offset=".63" stop-color="#f9d76f" stop-opacity=".8"/><stop offset=".71" stop-color="#fadf8b" stop-opacity=".64"/><stop offset=".8" stop-color="#fbe9af" stop-opacity=".44"/><stop offset=".89" stop-color="#fdf5da" stop-opacity=".2"/><stop offset=".95" stop-color="#fff" stop-opacity="0"/></linearGradient></defs><g id="Layer_1-2"><circle class="cls-1" cx="118.99" cy="118.99" r="118.99"/><path d="m286.73,160.22c-.98,3.18-4.06,1.8-5.74,3.4v28.86h20.06c.04-.7.1-1.35.1-1.99,0-8.35-.05-16.71.05-25.06.02-1.66-.46-2.45-2.08-2.65-.85-.11-1.72-.29-2.49-.63-.49-.21-.81-.79-1.21-1.2.5-.27,1-.78,1.5-.79,5.24-.06,10.47-.04,15.71-.04,2.78,0,5.57-.05,8.35.04.62.02,1.23.56,1.84.85-.56.43-1.06,1.03-1.69,1.26-1.24.44-2.55.68-4.04,1.05,0,.73,0,1.45,0,2.16,0,18.83.03,37.66-.04,56.49,0,1.73.47,2.56,2.19,2.72.85.08,1.73.27,2.49.64.53.26.87.9,1.67,1.79h-28.4c.62-.81.98-1.31,1.38-1.79.07-.08.25-.07.38-.11q4.4-1.31,4.4-5.96c0-7.16,0-14.32,0-21.48v-2.34h-20.14c-.04.5-.13,1.07-.13,1.64,0,8.42.03,16.84-.04,25.26-.01,1.39.36,2.09,1.77,2.26.91.11,1.86.31,2.68.69.56.26.94.92,1.4,1.4-.13.14-.26.29-.39.43h-27.72c.7-.86,1.07-1.35,1.49-1.79.12-.12.37-.11.56-.17q4.24-1.16,4.24-5.5c0-17.83-.04-35.67.05-53.5,0-2.13-.42-3.38-2.74-3.53-.84-.06-1.69-.37-2.47-.71-.31-.14-.65-.69-.61-1.01.04-.3.54-.59.89-.78.21-.11.52-.03.78-.03,8.15,0,16.31,0,24.46,0,.32,0,.65.04,1.47.1Z"/><path d="m209.14,165.38c1.37-4.01,2.58-7.56,3.79-11.12,1.32-3.88,2.71-7.74,3.93-11.66.29-.92.28-2.11-.06-3.01-1.78-4.77-3.76-9.47-5.54-14.24-.58-1.55-1.4-2.28-3.07-2.53-.98-.15-2.63.46-2.8-1.28-.02-.16,1.93-.72,2.98-.74,3.18-.07,6.36-.01,9.54.07,6,.16,9.88,3.31,12.04,8.75,2.93,7.38,5.81,14.78,8.7,22.17,1.5,3.82,2.98,7.64,4.48,11.46.21.53.48,1.04.91,1.95,4.57-13.5,9.01-26.61,13.54-39.97-1.88-.78-3.71-1.47-5.46-2.3-.6-.29-1.03-.95-1.53-1.45.6-.24,1.2-.68,1.8-.69,4.64-.06,9.28-.07,13.92,0,.64,0,1.28.51,1.92.78-.54.46-1.02,1.23-1.63,1.34-4.86.86-6.71,4.07-8.15,8.54-5.96,18.51-12.35,36.88-18.58,55.31-.34.99-.51,1.94-2.03,1.93-1.4,0-1.91-.56-2.38-1.75-5.12-13.13-10.3-26.23-15.47-39.34-.24-.6-.52-1.18-.96-2.17-1.74,5.12-3.36,9.84-4.97,14.56-3,8.83-5.97,17.67-8.99,26.5-.33.96-.26,2.19-1.98,2.21-1.64.02-2.11-.78-2.61-2.05-7.95-20.26-15.94-40.51-23.87-60.78-.71-1.81-1.49-3.18-3.71-3.07-.58.03-1.2-.13-1.74-.35-.34-.14-.76-.56-.77-.87-.01-.26.53-.78.81-.77,5.15.15,10.36-.02,15.44.69,3.85.54,6.53,3.39,8,7.06,3.31,8.29,6.55,16.62,9.82,24.93,1.5,3.8,2.99,7.61,4.66,11.87Z"/><path d="m157.93,91.66c2.31-2.07,3.62-5.59,7.72-4.85v17.87c-3.3.87-3.61.7-4.78-2.31-1.68-4.33-4.04-8.21-7.81-11.06-6.45-4.87-13.72-3.59-18.2,3.16-2.59,3.9-3.84,8.29-4.43,12.84-1.31,10.03-1.41,20.08.7,30.03.9,4.26,2.54,8.23,5.67,11.41,5.48,5.56,14.24,5.74,20.75.28,3.94-3.3,6.6-7.42,6.93-12.71.13-2.04,1.39-1.42,2.71-1.33.18,3.13-.62,5.96-1.95,8.61-4.32,8.61-13.58,13.18-23.78,12.01-5.81-.67-11.34-2.05-16.17-5.49-6.75-4.79-10.42-11.54-11.81-19.54-1.83-10.54-1.37-20.89,3.84-30.54,4.61-8.53,12.03-12.89,21.54-14.09,7.21-.91,13.48,1.1,19.05,5.7Z"/></g></svg>