<?xml version="1.0" encoding="UTF-8"?><svg id="Layer_2" xmlns="http://www.w3.org/2000/svg" xmlns:xlink="http://www.w3.org/1999/xlink" viewBox="0 0 841.89 398.83"><defs><style>.cls-1{fill:url(#linear-gradient);}.cls-2{fill:url(#linear-gradient-2);}</style><linearGradient id="linear-gradient" x1="420.94" y1="0" x2="420.94" y2="398.83" gradientUnits="userSpaceOnUse"><stop offset="0" stop-color="#475147"/><stop offset=".21" stop-color="#7f8e7d"/><stop offset=".44" stop-color="#b7ccb4"/><stop offset=".49" stop-color="#b9cdb6" stop-opacity=".97"/><stop offset=".57" stop-color="#bed1bc" stop-opacity=".89"/><stop offset=".65" stop-color="#c8d8c6" stop-opacity=".75"/><stop offset=".74" stop-color="#d6e2d4" stop-opacity=".57"/><stop offset=".84" stop-color="#e7eee6" stop-opacity=".32"/><stop offset=".94" stop-color="#fcfdfc" stop-opacity=".03"/><stop offset=".95" stop-color="#fff" stop-opacity="0"/></linearGradient><linearGradient id="linear-gradient-2" x1="448.01" y1="322.96" x2="448.01" y2="84.99" xlink:href="#linear-gradient"/></defs><g id="Layer_4"><rect class="cls-1" width="841.89" height="398.83"/><path class="cls-2" d="m561.38,240.18c-2.65,8.3-6.18,16.21-10.5,23.61h-205.75c-4.31-7.4-7.85-15.31-10.5-23.61h226.74Zm-46.28,62.07h-134.18c19.1,13.07,42.2,20.71,67.09,20.71s47.99-7.65,67.09-20.71Zm-165.26-31.04c6.03,8.79,13.22,16.74,21.34,23.61h153.66c8.12-6.87,15.31-14.82,21.34-23.61h-196.35Zm-20.7-62.07c.35,8.11,1.5,16,3.39,23.61h230.95c1.89-7.61,3.05-15.5,3.39-23.61h-237.74Zm190.02-100.54c-19.85-14.83-44.47-23.61-71.15-23.61s-51.31,8.78-71.15,23.61h142.31Zm47.8,93.11c-.15-8.09-1.11-15.99-2.8-23.61h-232.31c-1.69,7.62-2.65,15.52-2.8,23.61h237.92Zm-18.85-62.07c-5.61-8.72-12.34-16.65-19.97-23.61h-160.28c-7.63,6.96-14.35,14.89-19.97,23.61h200.21Zm14.15,31.04c-2.41-8.28-5.69-16.18-9.74-23.61h-209.03c-4.05,7.43-7.33,15.33-9.74,23.61h228.51Z"/></g></svg>