<?xml version="1.0" encoding="UTF-8"?><svg id="Layer_2" xmlns="http://www.w3.org/2000/svg" xmlns:xlink="http://www.w3.org/1999/xlink" viewBox="0 0 841.89 398.83"><defs><style>.cls-1{fill:url(#linear-gradient);}.cls-2{fill:url(#linear-gradient-8);}.cls-3{fill:url(#linear-gradient-9);}.cls-4{fill:url(#linear-gradient-3);}.cls-5{fill:url(#linear-gradient-4);}.cls-6{fill:url(#linear-gradient-2);}.cls-7{fill:url(#linear-gradient-6);}.cls-8{fill:url(#linear-gradient-7);}.cls-9{fill:url(#linear-gradient-5);}.cls-10{fill:#fff;opacity:.5;}</style><linearGradient id="linear-gradient" x1="420.94" y1="0" x2="420.94" y2="398.83" gradientUnits="userSpaceOnUse"><stop offset="0" stop-color="#525d60"/><stop offset=".1" stop-color="#626f72"/><stop offset=".44" stop-color="#9aadaf"/><stop offset=".5" stop-color="#9dafb1" stop-opacity=".97"/><stop offset=".58" stop-color="#a7b7b9" stop-opacity=".87"/><stop offset=".67" stop-color="#b6c4c5" stop-opacity=".71"/><stop offset=".77" stop-color="#cdd6d7" stop-opacity=".49"/><stop offset=".88" stop-color="#e9eded" stop-opacity=".22"/><stop offset=".95" stop-color="#fff" stop-opacity="0"/></linearGradient><linearGradient id="linear-gradient-2" x1="424.39" y1="193.52" x2="424.39" y2="113.73" gradientUnits="userSpaceOnUse"><stop offset="0" stop-color="#525d60"/><stop offset=".1" stop-color="#626f72"/><stop offset=".44" stop-color="#9aadaf"/><stop offset=".5" stop-color="#9dafb1" stop-opacity=".97"/><stop offset=".58" stop-color="#a7b7b9" stop-opacity=".87"/><stop offset=".67" stop-color="#b6c4c5" stop-opacity=".71"/><stop offset=".77" stop-color="#cdd6d7" stop-opacity=".49"/><stop offset=".88" stop-color="#e9eded" stop-opacity=".22"/><stop offset=".95" stop-color="#fff" stop-opacity="0"/></linearGradient><linearGradient id="linear-gradient-3" x1="420.94" y1="266.49" x2="420.94" y2="182.93" xlink:href="#linear-gradient-2"/><linearGradient id="linear-gradient-4" x1="420.94" y1="266.49" x2="420.94" y2="182.93" xlink:href="#linear-gradient-2"/><linearGradient id="linear-gradient-5" x1="414.56" y1="302.91" x2="414.56" y2="220.94" xlink:href="#linear-gradient-2"/><linearGradient id="linear-gradient-6" x1="411.71" y1="322.96" x2="411.71" y2="249.06" xlink:href="#linear-gradient-2"/><linearGradient id="linear-gradient-7" x1="421.41" y1="238.27" x2="421.41" y2="144.1" xlink:href="#linear-gradient-2"/><linearGradient id="linear-gradient-8" x1="410.39" y1="140.53" x2="410.39" y2="84.99" xlink:href="#linear-gradient-2"/><linearGradient id="linear-gradient-9" x1="458.5" y1="149.29" x2="458.5" y2="99.53" xlink:href="#linear-gradient-2"/></defs><g id="Layer_2-2"><rect class="cls-1" width="841.89" height="398.83"/><g><path class="cls-6" d="m333.63,146c24,11,41,31,65,41,33,13,70,6,102-16,9.43-6.45,19.84-11.17,30.38-12.47-5.65-13.67-13.77-26.05-23.81-36.6-21.51,14-42.37,29.68-68.56,27.06-26-3-44-25-69-32-8.02-2.47-17.55-4.17-26.73-2.77-9.98,8.7-18.49,19.03-25.13,30.58,5.71-1.37,11.55-.66,15.86,1.18Z"/><path class="cls-4" d="m362.56,227c50.45,19.82,109.01,51.8,162.53,34.55,9.45-17.06,14.84-36.69,14.84-57.58,0-.93-.01-1.87-.03-2.8-21.92,5.88-43.55,25.67-64.34,32.82-51,16-92-16-133-46-11.39-7.89-26.63-5.79-39.64.91-.62,4.94-.96,9.96-.96,15.07,0,7.59.72,15.01,2.08,22.2,18.38-7.8,39.4-6.35,58.52.82Z"/><path class="cls-10" d="m301.69,201.04c-.02.98-.05,1.96-.05,2.94,0,7.59.72,15.01,2.08,22.2,18.38-7.8,39.4-6.35,58.52.82,7.49,2.94,15.16,6.15,22.96,9.43-24-19.91-51.2-44.37-83.51-35.39Z"/><path class="cls-5" d="m539.87,201.18c-21.92,5.88-43.55,25.67-64.34,32.82-51,16-92-16-133-46-11.39-7.89-26.63-5.79-39.64.91-.5,3.98-.81,8.03-.91,12.13,32.3-8.98,59.51,15.49,83.51,35.39,44.77,18.8,94,39.81,139.57,25.13,9.45-17.06,14.84-36.69,14.84-57.58,0-.93-.01-1.87-.03-2.8Z"/><path class="cls-10" d="m396.97,166c-20.7-16.94-41.41-37.41-68.77-36.44-3.85,4.8-7.35,9.89-10.43,15.25,5.71-1.37,11.55-.66,15.86,1.18,24,11,41,31,65,41,25.93,10.22,54.34,8.07,80.84-3.99-28.37,4.79-58.08,2.71-82.5-17.01Z"/><path class="cls-9" d="m321.56,253c12-6,27-5,39,2,30,16,54,41,89,47,22.55,4.1,40.9-6.28,58.88-17.41,6.42-6.96,12.03-14.69,16.65-23.03-53.52,17.25-112.08-14.74-162.53-34.55-19.12-7.17-40.15-8.62-58.52-.82,2.13,11.3,5.86,22.03,10.95,31.96,1.77-2.17,3.94-3.94,6.58-5.14Z"/><path class="cls-10" d="m334.81,246.76c-8.49-1.21-16.25.53-23.49,3.42,1.14,2.7,2.37,5.35,3.7,7.94,1.77-2.17,3.94-3.94,6.58-5.14,12-6,27-5,39,2,30,16,54,41,89,47,22.55,4.1,40.9-6.28,58.88-17.41,5.91-6.41,12.47-15.66,16.87-23.26-42.09,68.02-126.88-2.8-190.53-14.55Z"/><path class="cls-7" d="m449.56,302c-35-6-59-31-89-47-12-7-27-8-39-2-2.63,1.2-4.8,2.97-6.58,5.14,19.71,38.48,59.75,64.83,105.96,64.83,34.61,0,65.75-14.79,87.49-38.38-17.98,11.13-36.33,21.51-58.88,17.41Z"/><path class="cls-10" d="m428.56,318c-20.49-4.66-42.72-16.24-63.44-8.93,16.65,8.86,35.65,13.89,55.83,13.89,9.99,0,19.68-1.24,28.95-3.56-7.07.49-14.2.18-21.33-1.41Z"/><path class="cls-8" d="m342.56,188c41,30,82,62,133,46,20.78-7.14,42.41-26.94,64.34-32.82-.35-15.08-3.5-29.46-8.96-42.65-10.54,1.29-20.95,6.02-30.38,12.47-32,22-69,29-102,16-24-10-41-30-65-41-4.31-1.85-10.15-2.55-15.86-1.18-7.64,13.3-12.77,28.21-14.78,44.09,13.02-6.7,28.25-8.8,39.64-.91Z"/><path class="cls-10" d="m460,223c-16.9,10.4-38.87,10.23-58.77,3.35,22.95,11.1,47.23,16.15,74.33,7.65,20.78-7.14,42.41-26.94,64.34-32.82-.16-6.9-.91-13.65-2.2-20.21-31.42-3.09-52.35,26.08-77.69,42.03Z"/><path class="cls-2" d="m477.96,99.53c-16.93-9.26-36.36-14.54-57.02-14.54-29.9,0-57.22,11.03-78.12,29.24,9.18-1.4,18.72.3,26.73,2.77,14.86,4.16,27.25,13.62,40.31,21.24,28.97,8.69,60.18-8,68.09-38.72Z"/><path class="cls-3" d="m477.96,99.53c-7.91,30.71-39.12,47.4-68.09,38.72,8.91,5.2,18.14,9.54,28.69,10.76,26.19,2.62,47.05-13.06,68.56-27.06-8.47-8.89-18.3-16.47-29.16-22.41Z"/><path class="cls-10" d="m477.96,99.53c-7.91,30.71-39.12,47.4-68.09,38.72,8.91,5.2,18.14,9.54,28.69,10.76,26.19,2.62,47.05-13.06,68.56-27.06-8.47-8.89-18.3-16.47-29.16-22.41Z"/></g></g></svg>