<?xml version="1.0" encoding="UTF-8"?><svg id="Layer_2" xmlns="http://www.w3.org/2000/svg" xmlns:xlink="http://www.w3.org/1999/xlink" viewBox="0 0 841.89 398.83"><defs><style>.cls-1{fill:url(#linear-gradient);}.cls-2{fill:url(#linear-gradient-8);}.cls-3{fill:url(#linear-gradient-9);}.cls-4{fill:url(#linear-gradient-3);}.cls-5{fill:url(#linear-gradient-4);}.cls-6{fill:url(#linear-gradient-2);}.cls-7{fill:url(#linear-gradient-6);}.cls-8{fill:url(#linear-gradient-7);}.cls-9{fill:url(#linear-gradient-5);}.cls-10{fill:url(#linear-gradient-59);}.cls-11{fill:url(#linear-gradient-57);}.cls-12{fill:url(#linear-gradient-58);}.cls-13{fill:url(#linear-gradient-55);}.cls-14{fill:url(#linear-gradient-56);}.cls-15{fill:url(#linear-gradient-53);}.cls-16{fill:url(#linear-gradient-54);}.cls-17{fill:url(#linear-gradient-51);}.cls-18{fill:url(#linear-gradient-52);}.cls-19{fill:url(#linear-gradient-50);}.cls-20{fill:url(#linear-gradient-77);}.cls-21{fill:url(#linear-gradient-78);}.cls-22{fill:url(#linear-gradient-79);}.cls-23{fill:url(#linear-gradient-74);}.cls-24{fill:url(#linear-gradient-75);}.cls-25{fill:url(#linear-gradient-76);}.cls-26{fill:url(#linear-gradient-70);}.cls-27{fill:url(#linear-gradient-71);}.cls-28{fill:url(#linear-gradient-72);}.cls-29{fill:url(#linear-gradient-73);}.cls-30{fill:url(#linear-gradient-68);}.cls-31{fill:url(#linear-gradient-67);}.cls-32{fill:url(#linear-gradient-69);}.cls-33{fill:url(#linear-gradient-64);}.cls-34{fill:url(#linear-gradient-63);}.cls-35{fill:url(#linear-gradient-66);}.cls-36{fill:url(#linear-gradient-65);}.cls-37{fill:url(#linear-gradient-60);}.cls-38{fill:url(#linear-gradient-62);}.cls-39{fill:url(#linear-gradient-61);}.cls-40{fill:url(#linear-gradient-81);}.cls-41{fill:url(#linear-gradient-80);}.cls-42{fill:url(#linear-gradient-87);}.cls-43{fill:url(#linear-gradient-86);}.cls-44{fill:url(#linear-gradient-85);}.cls-45{fill:url(#linear-gradient-84);}.cls-46{fill:url(#linear-gradient-83);}.cls-47{fill:url(#linear-gradient-82);}.cls-48{fill:url(#linear-gradient-41);}.cls-49{fill:url(#linear-gradient-40);}.cls-50{fill:url(#linear-gradient-43);}.cls-51{fill:url(#linear-gradient-42);}.cls-52{fill:url(#linear-gradient-45);}.cls-53{fill:url(#linear-gradient-46);}.cls-54{fill:url(#linear-gradient-44);}.cls-55{fill:url(#linear-gradient-49);}.cls-56{fill:url(#linear-gradient-47);}.cls-57{fill:url(#linear-gradient-48);}.cls-58{fill:url(#linear-gradient-14);}.cls-59{fill:url(#linear-gradient-18);}.cls-60{fill:url(#linear-gradient-22);}.cls-61{fill:url(#linear-gradient-20);}.cls-62{fill:url(#linear-gradient-21);}.cls-63{fill:url(#linear-gradient-23);}.cls-64{fill:url(#linear-gradient-15);}.cls-65{fill:url(#linear-gradient-19);}.cls-66{fill:url(#linear-gradient-16);}.cls-67{fill:url(#linear-gradient-17);}.cls-68{fill:url(#linear-gradient-13);}.cls-69{fill:url(#linear-gradient-12);}.cls-70{fill:url(#linear-gradient-10);}.cls-71{fill:url(#linear-gradient-11);}.cls-72{fill:url(#linear-gradient-27);}.cls-73{fill:url(#linear-gradient-24);}.cls-74{fill:url(#linear-gradient-26);}.cls-75{fill:url(#linear-gradient-38);}.cls-76{fill:url(#linear-gradient-35);}.cls-77{fill:url(#linear-gradient-37);}.cls-78{fill:url(#linear-gradient-34);}.cls-79{fill:url(#linear-gradient-39);}.cls-80{fill:url(#linear-gradient-36);}.cls-81{fill:url(#linear-gradient-25);}.cls-82{fill:url(#linear-gradient-28);}.cls-83{fill:url(#linear-gradient-29);}.cls-84{fill:url(#linear-gradient-33);}.cls-85{fill:url(#linear-gradient-30);}.cls-86{fill:url(#linear-gradient-32);}.cls-87{fill:url(#linear-gradient-31);}</style><linearGradient id="linear-gradient" x1="420.94" y1="0" x2="420.94" y2="398.83" gradientUnits="userSpaceOnUse"><stop offset="0" stop-color="#1a4e87"/><stop offset=".17" stop-color="#2f78a9"/><stop offset=".44" stop-color="#4eb6dc"/><stop offset=".49" stop-color="#52b7dc" stop-opacity=".97"/><stop offset=".56" stop-color="#60bddf" stop-opacity=".9"/><stop offset=".64" stop-color="#76c6e3" stop-opacity=".77"/><stop offset=".73" stop-color="#95d3ea" stop-opacity=".6"/><stop offset=".82" stop-color="#bde3f1" stop-opacity=".37"/><stop offset=".92" stop-color="#ecf7fb" stop-opacity=".1"/><stop offset=".95" stop-color="#fff" stop-opacity="0"/></linearGradient><linearGradient id="linear-gradient-2" x1="457.78" y1="280.54" x2="457.78" y2="268.49" xlink:href="#linear-gradient"/><linearGradient id="linear-gradient-3" x1="433.22" y1="92.44" x2="433.22" y2="85.16" xlink:href="#linear-gradient"/><linearGradient id="linear-gradient-4" x1="457.78" y1="162.98" x2="457.78" y2="150.93" xlink:href="#linear-gradient"/><linearGradient id="linear-gradient-5" x1="457.78" y1="115.95" x2="457.78" y2="103.9" xlink:href="#linear-gradient"/><linearGradient id="linear-gradient-6" x1="456.5" y1="92.44" x2="456.5" y2="89.22" xlink:href="#linear-gradient"/><linearGradient id="linear-gradient-7" x1="457.78" y1="139.46" x2="457.78" y2="127.41" xlink:href="#linear-gradient"/><linearGradient id="linear-gradient-8" x1="457.78" y1="304.06" x2="457.78" y2="292.01" xlink:href="#linear-gradient"/><linearGradient id="linear-gradient-9" x1="457.78" y1="210" x2="457.78" y2="197.95" xlink:href="#linear-gradient"/><linearGradient id="linear-gradient-10" x1="457.78" y1="257.03" x2="457.78" y2="244.98" xlink:href="#linear-gradient"/><linearGradient id="linear-gradient-11" x1="457.78" y1="233.52" x2="457.78" y2="221.47" xlink:href="#linear-gradient"/><linearGradient id="linear-gradient-12" x1="457.78" y1="186.49" x2="457.78" y2="174.44" xlink:href="#linear-gradient"/><linearGradient id="linear-gradient-13" x1="433.22" y1="139.46" x2="433.22" y2="127.41" xlink:href="#linear-gradient"/><linearGradient id="linear-gradient-14" x1="433.22" y1="186.49" x2="433.22" y2="174.44" xlink:href="#linear-gradient"/><linearGradient id="linear-gradient-15" x1="433.22" y1="162.98" x2="433.22" y2="150.93" xlink:href="#linear-gradient"/><linearGradient id="linear-gradient-16" x1="433.22" y1="280.54" x2="433.22" y2="268.49" xlink:href="#linear-gradient"/><linearGradient id="linear-gradient-17" x1="456.5" y1="318.74" x2="456.5" y2="315.52" xlink:href="#linear-gradient"/><linearGradient id="linear-gradient-18" x1="433.22" y1="115.95" x2="433.22" y2="103.9" xlink:href="#linear-gradient"/><linearGradient id="linear-gradient-19" x1="433.22" y1="210" x2="433.22" y2="197.95" xlink:href="#linear-gradient"/><linearGradient id="linear-gradient-20" x1="433.22" y1="304.06" x2="433.22" y2="292.01" xlink:href="#linear-gradient"/><linearGradient id="linear-gradient-21" x1="433.22" y1="257.03" x2="433.22" y2="244.98" xlink:href="#linear-gradient"/><linearGradient id="linear-gradient-22" x1="433.22" y1="233.52" x2="433.22" y2="221.47" xlink:href="#linear-gradient"/><linearGradient id="linear-gradient-23" x1="482.33" y1="186.49" x2="482.33" y2="174.44" xlink:href="#linear-gradient"/><linearGradient id="linear-gradient-24" x1="506.89" y1="257.03" x2="506.89" y2="244.98" xlink:href="#linear-gradient"/><linearGradient id="linear-gradient-25" x1="482.33" y1="115.95" x2="482.33" y2="103.9" xlink:href="#linear-gradient"/><linearGradient id="linear-gradient-26" x1="529.03" y1="162.98" x2="529.03" y2="152.01" xlink:href="#linear-gradient"/><linearGradient id="linear-gradient-27" x1="506.89" y1="210" x2="506.89" y2="197.95" xlink:href="#linear-gradient"/><linearGradient id="linear-gradient-28" x1="506.89" y1="233.52" x2="506.89" y2="221.47" xlink:href="#linear-gradient"/><linearGradient id="linear-gradient-29" x1="531.45" y1="210" x2="531.45" y2="197.95" xlink:href="#linear-gradient"/><linearGradient id="linear-gradient-30" x1="433.22" y1="322.79" x2="433.22" y2="315.52" xlink:href="#linear-gradient"/><linearGradient id="linear-gradient-31" x1="531.45" y1="233.52" x2="531.45" y2="221.47" xlink:href="#linear-gradient"/><linearGradient id="linear-gradient-32" x1="531.45" y1="186.49" x2="531.45" y2="174.44" xlink:href="#linear-gradient"/><linearGradient id="linear-gradient-33" x1="506.89" y1="186.49" x2="506.89" y2="174.44" xlink:href="#linear-gradient"/><linearGradient id="linear-gradient-34" x1="506.89" y1="280.54" x2="506.89" y2="268.49" xlink:href="#linear-gradient"/><linearGradient id="linear-gradient-35" x1="529.03" y1="255.95" x2="529.03" y2="244.98" xlink:href="#linear-gradient"/><linearGradient id="linear-gradient-36" x1="482.33" y1="210" x2="482.33" y2="197.95" xlink:href="#linear-gradient"/><linearGradient id="linear-gradient-37" x1="482.33" y1="139.46" x2="482.33" y2="127.41" xlink:href="#linear-gradient"/><linearGradient id="linear-gradient-38" x1="482.33" y1="233.52" x2="482.33" y2="221.47" xlink:href="#linear-gradient"/><linearGradient id="linear-gradient-39" x1="482.33" y1="162.98" x2="482.33" y2="150.93" xlink:href="#linear-gradient"/><linearGradient id="linear-gradient-40" x1="506.89" y1="139.46" x2="506.89" y2="127.41" xlink:href="#linear-gradient"/><linearGradient id="linear-gradient-41" x1="506.89" y1="162.98" x2="506.89" y2="150.93" xlink:href="#linear-gradient"/><linearGradient id="linear-gradient-42" x1="482.33" y1="257.03" x2="482.33" y2="244.98" xlink:href="#linear-gradient"/><linearGradient id="linear-gradient-43" x1="482.33" y1="280.54" x2="482.33" y2="268.49" xlink:href="#linear-gradient"/><linearGradient id="linear-gradient-44" x1="482.33" y1="304.06" x2="482.33" y2="292.01" xlink:href="#linear-gradient"/><linearGradient id="linear-gradient-45" x1="359.54" y1="233.52" x2="359.54" y2="221.47" xlink:href="#linear-gradient"/><linearGradient id="linear-gradient-46" x1="359.54" y1="162.98" x2="359.54" y2="150.93" xlink:href="#linear-gradient"/><linearGradient id="linear-gradient-47" x1="408.66" y1="92.44" x2="408.66" y2="85.16" xlink:href="#linear-gradient"/><linearGradient id="linear-gradient-48" x1="359.54" y1="115.95" x2="359.54" y2="103.9" xlink:href="#linear-gradient"/><linearGradient id="linear-gradient-49" x1="334.98" y1="257.03" x2="334.98" y2="244.98" xlink:href="#linear-gradient"/><linearGradient id="linear-gradient-50" x1="359.54" y1="186.49" x2="359.54" y2="174.44" xlink:href="#linear-gradient"/><linearGradient id="linear-gradient-51" x1="359.54" y1="210" x2="359.54" y2="197.95" xlink:href="#linear-gradient"/><linearGradient id="linear-gradient-52" x1="359.54" y1="304.06" x2="359.54" y2="292.01" xlink:href="#linear-gradient"/><linearGradient id="linear-gradient-53" x1="334.98" y1="280.54" x2="334.98" y2="268.49" xlink:href="#linear-gradient"/><linearGradient id="linear-gradient-54" x1="359.54" y1="280.54" x2="359.54" y2="268.49" xlink:href="#linear-gradient"/><linearGradient id="linear-gradient-55" x1="359.54" y1="257.03" x2="359.54" y2="244.98" xlink:href="#linear-gradient"/><linearGradient id="linear-gradient-56" x1="312.85" y1="255.94" x2="312.85" y2="244.98" xlink:href="#linear-gradient"/><linearGradient id="linear-gradient-57" x1="310.42" y1="210" x2="310.42" y2="197.95" xlink:href="#linear-gradient"/><linearGradient id="linear-gradient-58" x1="312.85" y1="162.98" x2="312.85" y2="152.02" xlink:href="#linear-gradient"/><linearGradient id="linear-gradient-59" x1="334.98" y1="233.52" x2="334.98" y2="221.47" xlink:href="#linear-gradient"/><linearGradient id="linear-gradient-60" x1="385.38" y1="318.74" x2="385.38" y2="315.52" xlink:href="#linear-gradient"/><linearGradient id="linear-gradient-61" x1="408.66" y1="322.79" x2="408.66" y2="315.52" xlink:href="#linear-gradient"/><linearGradient id="linear-gradient-62" x1="385.38" y1="92.44" x2="385.38" y2="89.22" xlink:href="#linear-gradient"/><linearGradient id="linear-gradient-63" x1="334.98" y1="186.49" x2="334.98" y2="174.44" xlink:href="#linear-gradient"/><linearGradient id="linear-gradient-64" x1="334.98" y1="139.46" x2="334.98" y2="127.41" xlink:href="#linear-gradient"/><linearGradient id="linear-gradient-65" x1="334.98" y1="210" x2="334.98" y2="197.95" xlink:href="#linear-gradient"/><linearGradient id="linear-gradient-66" x1="334.98" y1="162.98" x2="334.98" y2="150.93" xlink:href="#linear-gradient"/><linearGradient id="linear-gradient-67" x1="359.54" y1="139.46" x2="359.54" y2="127.41" xlink:href="#linear-gradient"/><linearGradient id="linear-gradient-68" x1="408.66" y1="210" x2="408.66" y2="197.95" xlink:href="#linear-gradient"/><linearGradient id="linear-gradient-69" x1="408.66" y1="233.52" x2="408.66" y2="221.47" xlink:href="#linear-gradient"/><linearGradient id="linear-gradient-70" x1="408.66" y1="162.98" x2="408.66" y2="150.93" xlink:href="#linear-gradient"/><linearGradient id="linear-gradient-71" x1="408.66" y1="186.49" x2="408.66" y2="174.44" xlink:href="#linear-gradient"/><linearGradient id="linear-gradient-72" x1="408.66" y1="257.03" x2="408.66" y2="244.98" xlink:href="#linear-gradient"/><linearGradient id="linear-gradient-73" x1="310.42" y1="186.49" x2="310.42" y2="174.44" xlink:href="#linear-gradient"/><linearGradient id="linear-gradient-74" x1="408.66" y1="304.06" x2="408.66" y2="292.01" xlink:href="#linear-gradient"/><linearGradient id="linear-gradient-75" x1="408.66" y1="139.46" x2="408.66" y2="127.41" xlink:href="#linear-gradient"/><linearGradient id="linear-gradient-76" x1="384.1" y1="115.95" x2="384.1" y2="103.9" xlink:href="#linear-gradient"/><linearGradient id="linear-gradient-77" x1="408.66" y1="280.54" x2="408.66" y2="268.49" xlink:href="#linear-gradient"/><linearGradient id="linear-gradient-78" x1="310.42" y1="233.52" x2="310.42" y2="221.47" xlink:href="#linear-gradient"/><linearGradient id="linear-gradient-79" x1="384.1" y1="162.98" x2="384.1" y2="150.93" xlink:href="#linear-gradient"/><linearGradient id="linear-gradient-80" x1="384.1" y1="186.49" x2="384.1" y2="174.44" xlink:href="#linear-gradient"/><linearGradient id="linear-gradient-81" x1="384.1" y1="139.46" x2="384.1" y2="127.41" xlink:href="#linear-gradient"/><linearGradient id="linear-gradient-82" x1="384.1" y1="210" x2="384.1" y2="197.95" xlink:href="#linear-gradient"/><linearGradient id="linear-gradient-83" x1="408.66" y1="115.95" x2="408.66" y2="103.9" xlink:href="#linear-gradient"/><linearGradient id="linear-gradient-84" x1="384.1" y1="280.54" x2="384.1" y2="268.49" xlink:href="#linear-gradient"/><linearGradient id="linear-gradient-85" x1="384.1" y1="304.06" x2="384.1" y2="292.01" xlink:href="#linear-gradient"/><linearGradient id="linear-gradient-86" x1="384.1" y1="257.03" x2="384.1" y2="244.98" xlink:href="#linear-gradient"/><linearGradient id="linear-gradient-87" x1="384.1" y1="233.52" x2="384.1" y2="221.47" xlink:href="#linear-gradient"/></defs><g id="Layer_3"><rect class="cls-1" width="841.89" height="398.83"/><g><path class="cls-6" d="m457.78,268.49c-3.33,0-6.03,2.7-6.03,6.03s2.7,6.03,6.03,6.03,6.03-2.7,6.03-6.03-2.7-6.03-6.03-6.03Z"/><path class="cls-4" d="m427.19,86.41c0,3.33,2.7,6.03,6.03,6.03s6.03-2.7,6.03-6.03c0,0,0-.01,0-.02-3.91-.6-7.89-1.02-11.92-1.23-.08.4-.13.82-.13,1.25Z"/><path class="cls-5" d="m457.78,150.93c-3.33,0-6.03,2.7-6.03,6.03s2.7,6.03,6.03,6.03,6.03-2.7,6.03-6.03-2.7-6.03-6.03-6.03Z"/><path class="cls-9" d="m457.78,103.9c-3.33,0-6.03,2.7-6.03,6.03s2.7,6.03,6.03,6.03,6.03-2.7,6.03-6.03-2.7-6.03-6.03-6.03Z"/><path class="cls-7" d="m457.78,92.44c1,0,1.95-.25,2.78-.68-2.66-.94-5.37-1.79-8.11-2.54,1.01,1.91,3.02,3.22,5.33,3.22Z"/><path class="cls-8" d="m457.78,127.41c-3.33,0-6.03,2.7-6.03,6.03s2.7,6.03,6.03,6.03,6.03-2.7,6.03-6.03-2.7-6.03-6.03-6.03Z"/><path class="cls-2" d="m457.78,292.01c-3.33,0-6.03,2.7-6.03,6.03s2.7,6.03,6.03,6.03,6.03-2.7,6.03-6.03-2.7-6.03-6.03-6.03Z"/><path class="cls-3" d="m457.78,197.95c-3.33,0-6.03,2.7-6.03,6.03s2.7,6.03,6.03,6.03,6.03-2.7,6.03-6.03-2.7-6.03-6.03-6.03Z"/><path class="cls-70" d="m457.78,244.98c-3.33,0-6.03,2.7-6.03,6.03s2.7,6.03,6.03,6.03,6.03-2.7,6.03-6.03-2.7-6.03-6.03-6.03Z"/><path class="cls-71" d="m457.78,221.47c-3.33,0-6.03,2.7-6.03,6.03s2.7,6.03,6.03,6.03,6.03-2.7,6.03-6.03-2.7-6.03-6.03-6.03Z"/><path class="cls-69" d="m457.78,174.44c-3.33,0-6.03,2.7-6.03,6.03s2.7,6.03,6.03,6.03,6.03-2.7,6.03-6.03-2.7-6.03-6.03-6.03Z"/><circle class="cls-68" cx="433.22" cy="133.44" r="6.03"/><circle class="cls-58" cx="433.22" cy="180.46" r="6.03"/><circle class="cls-64" cx="433.22" cy="156.95" r="6.03"/><circle class="cls-66" cx="433.22" cy="274.52" r="6.03"/><path class="cls-67" d="m457.78,315.52c-2.31,0-4.32,1.31-5.33,3.22,2.74-.75,5.45-1.6,8.11-2.54-.83-.43-1.78-.68-2.78-.68Z"/><circle class="cls-59" cx="433.22" cy="109.92" r="6.03"/><circle class="cls-65" cx="433.22" cy="203.98" r="6.03"/><circle class="cls-61" cx="433.22" cy="298.03" r="6.03"/><circle class="cls-62" cx="433.22" cy="251.01" r="6.03"/><circle class="cls-60" cx="433.22" cy="227.49" r="6.03"/><path class="cls-63" d="m482.33,174.44c-3.33,0-6.03,2.7-6.03,6.03s2.7,6.03,6.03,6.03,6.03-2.7,6.03-6.03-2.7-6.03-6.03-6.03Z"/><circle class="cls-73" cx="506.89" cy="251.01" r="6.03"/><path class="cls-81" d="m482.33,103.9c-3.33,0-6.03,2.7-6.03,6.03s2.7,6.03,6.03,6.03,6.03-2.7,6.03-6.03-2.7-6.03-6.03-6.03Z"/><path class="cls-74" d="m525.43,156.95c0,3.33,2.7,6.03,6.03,6.03.4,0,.8-.04,1.18-.12-1.37-3.71-2.91-7.33-4.62-10.85-1.56,1.09-2.58,2.89-2.58,4.94Z"/><circle class="cls-72" cx="506.89" cy="203.98" r="6.03"/><circle class="cls-82" cx="506.89" cy="227.49" r="6.03"/><path class="cls-83" d="m531.45,197.95c-3.33,0-6.03,2.7-6.03,6.03s2.7,6.03,6.03,6.03,6.03-2.7,6.03-6.03-2.7-6.03-6.03-6.03Z"/><path class="cls-85" d="m439.24,321.55c0-3.33-2.7-6.03-6.03-6.03s-6.03,2.7-6.03,6.03c0,.43.05.84.13,1.25,4.03-.21,8.01-.63,11.92-1.23,0,0,0-.01,0-.02Z"/><path class="cls-87" d="m531.45,221.47c-3.33,0-6.03,2.7-6.03,6.03s2.7,6.03,6.03,6.03c2.88,0,5.29-2.03,5.88-4.73,0-.04.02-.08.03-.13.07-.38.11-.77.11-1.17,0-3.33-2.7-6.03-6.03-6.03Z"/><path class="cls-86" d="m531.45,174.44c-3.33,0-6.03,2.7-6.03,6.03s2.7,6.03,6.03,6.03,6.03-2.7,6.03-6.03c0-.4-.04-.79-.11-1.17,0-.04-.02-.08-.03-.13-.59-2.71-3-4.73-5.88-4.73Z"/><circle class="cls-84" cx="506.89" cy="180.46" r="6.03"/><circle class="cls-78" cx="506.89" cy="274.52" r="6.03"/><path class="cls-76" d="m525.43,251.01c0,2.05,1.02,3.85,2.58,4.94,1.71-3.52,3.26-7.14,4.62-10.85-.38-.08-.78-.12-1.18-.12-3.33,0-6.03,2.7-6.03,6.03Z"/><path class="cls-80" d="m482.33,197.95c-3.33,0-6.03,2.7-6.03,6.03s2.7,6.03,6.03,6.03,6.03-2.7,6.03-6.03-2.7-6.03-6.03-6.03Z"/><path class="cls-77" d="m482.33,127.41c-3.33,0-6.03,2.7-6.03,6.03s2.7,6.03,6.03,6.03,6.03-2.7,6.03-6.03-2.7-6.03-6.03-6.03Z"/><path class="cls-75" d="m482.33,221.47c-3.33,0-6.03,2.7-6.03,6.03s2.7,6.03,6.03,6.03,6.03-2.7,6.03-6.03-2.7-6.03-6.03-6.03Z"/><path class="cls-79" d="m482.33,150.93c-3.33,0-6.03,2.7-6.03,6.03s2.7,6.03,6.03,6.03,6.03-2.7,6.03-6.03-2.7-6.03-6.03-6.03Z"/><circle class="cls-49" cx="506.89" cy="133.44" r="6.03"/><circle class="cls-48" cx="506.89" cy="156.95" r="6.03"/><path class="cls-51" d="m482.33,244.98c-3.33,0-6.03,2.7-6.03,6.03s2.7,6.03,6.03,6.03,6.03-2.7,6.03-6.03-2.7-6.03-6.03-6.03Z"/><path class="cls-50" d="m482.33,268.49c-3.33,0-6.03,2.7-6.03,6.03s2.7,6.03,6.03,6.03,6.03-2.7,6.03-6.03-2.7-6.03-6.03-6.03Z"/><path class="cls-54" d="m482.33,292.01c-3.33,0-6.03,2.7-6.03,6.03s2.7,6.03,6.03,6.03,6.03-2.7,6.03-6.03-2.7-6.03-6.03-6.03Z"/><circle class="cls-52" cx="359.54" cy="227.49" r="6.03"/><circle class="cls-53" cx="359.54" cy="156.95" r="6.03"/><path class="cls-56" d="m402.63,86.41c0,3.33,2.7,6.03,6.03,6.03s6.03-2.7,6.03-6.03c0-.43-.05-.84-.13-1.25-4.03.21-8.01.63-11.92,1.23,0,0,0,.01,0,.02Z"/><circle class="cls-57" cx="359.54" cy="109.92" r="6.03"/><path class="cls-55" d="m334.98,244.98c-3.33,0-6.03,2.7-6.03,6.03s2.7,6.03,6.03,6.03,6.03-2.7,6.03-6.03-2.7-6.03-6.03-6.03Z"/><circle class="cls-19" cx="359.54" cy="180.46" r="6.03"/><circle class="cls-17" cx="359.54" cy="203.98" r="6.03"/><circle class="cls-18" cx="359.54" cy="298.03" r="6.03"/><path class="cls-15" d="m334.98,268.49c-3.33,0-6.03,2.7-6.03,6.03s2.7,6.03,6.03,6.03,6.03-2.7,6.03-6.03-2.7-6.03-6.03-6.03Z"/><circle class="cls-16" cx="359.54" cy="274.52" r="6.03"/><circle class="cls-13" cx="359.54" cy="251.01" r="6.03"/><path class="cls-14" d="m316.45,251.01c0-3.33-2.7-6.03-6.03-6.03-.4,0-.79.04-1.17.12,1.36,3.7,2.91,7.32,4.62,10.84,1.55-1.09,2.57-2.89,2.57-4.93Z"/><path class="cls-11" d="m310.42,197.95c-3.33,0-6.03,2.7-6.03,6.03s2.7,6.03,6.03,6.03,6.03-2.7,6.03-6.03-2.7-6.03-6.03-6.03Z"/><path class="cls-12" d="m316.45,156.95c0-2.04-1.02-3.84-2.57-4.93-1.71,3.52-3.26,7.14-4.62,10.84.38.07.77.12,1.17.12,3.33,0,6.03-2.7,6.03-6.03Z"/><path class="cls-10" d="m334.98,221.47c-3.33,0-6.03,2.7-6.03,6.03s2.7,6.03,6.03,6.03,6.03-2.7,6.03-6.03-2.7-6.03-6.03-6.03Z"/><path class="cls-37" d="m384.1,315.52c-1,0-1.94.25-2.77.68,2.66.94,5.36,1.79,8.1,2.54-1.01-1.91-3.02-3.22-5.33-3.22Z"/><path class="cls-39" d="m414.68,321.55c0-3.33-2.7-6.03-6.03-6.03s-6.03,2.7-6.03,6.03c0,0,0,.01,0,.02,3.91.6,7.89,1.02,11.92,1.23.08-.4.13-.82.13-1.25Z"/><path class="cls-38" d="m384.1,92.44c2.31,0,4.32-1.3,5.33-3.22-2.74.75-5.44,1.6-8.1,2.54.83.43,1.77.68,2.77.68Z"/><path class="cls-34" d="m334.98,174.44c-3.33,0-6.03,2.7-6.03,6.03s2.7,6.03,6.03,6.03,6.03-2.7,6.03-6.03-2.7-6.03-6.03-6.03Z"/><path class="cls-33" d="m334.98,127.41c-3.33,0-6.03,2.7-6.03,6.03s2.7,6.03,6.03,6.03,6.03-2.7,6.03-6.03-2.7-6.03-6.03-6.03Z"/><path class="cls-36" d="m334.98,197.95c-3.33,0-6.03,2.7-6.03,6.03s2.7,6.03,6.03,6.03,6.03-2.7,6.03-6.03-2.7-6.03-6.03-6.03Z"/><path class="cls-35" d="m334.98,150.93c-3.33,0-6.03,2.7-6.03,6.03s2.7,6.03,6.03,6.03,6.03-2.7,6.03-6.03-2.7-6.03-6.03-6.03Z"/><circle class="cls-31" cx="359.54" cy="133.44" r="6.03"/><path class="cls-30" d="m408.66,197.95c-3.33,0-6.03,2.7-6.03,6.03s2.7,6.03,6.03,6.03,6.03-2.7,6.03-6.03-2.7-6.03-6.03-6.03Z"/><path class="cls-32" d="m408.66,221.47c-3.33,0-6.03,2.7-6.03,6.03s2.7,6.03,6.03,6.03,6.03-2.7,6.03-6.03-2.7-6.03-6.03-6.03Z"/><path class="cls-26" d="m408.66,150.93c-3.33,0-6.03,2.7-6.03,6.03s2.7,6.03,6.03,6.03,6.03-2.7,6.03-6.03-2.7-6.03-6.03-6.03Z"/><path class="cls-27" d="m408.66,174.44c-3.33,0-6.03,2.7-6.03,6.03s2.7,6.03,6.03,6.03,6.03-2.7,6.03-6.03-2.7-6.03-6.03-6.03Z"/><path class="cls-28" d="m408.66,244.98c-3.33,0-6.03,2.7-6.03,6.03s2.7,6.03,6.03,6.03,6.03-2.7,6.03-6.03-2.7-6.03-6.03-6.03Z"/><path class="cls-29" d="m310.42,186.49c3.33,0,6.03-2.7,6.03-6.03s-2.7-6.03-6.03-6.03c-2.74,0-5.04,1.83-5.78,4.33-.06.26-.12.52-.17.78-.05.3-.08.61-.08.92,0,3.33,2.7,6.03,6.03,6.03Z"/><path class="cls-23" d="m408.66,292.01c-3.33,0-6.03,2.7-6.03,6.03s2.7,6.03,6.03,6.03,6.03-2.7,6.03-6.03-2.7-6.03-6.03-6.03Z"/><path class="cls-24" d="m408.66,127.41c-3.33,0-6.03,2.7-6.03,6.03s2.7,6.03,6.03,6.03,6.03-2.7,6.03-6.03-2.7-6.03-6.03-6.03Z"/><path class="cls-25" d="m384.1,103.9c-3.33,0-6.03,2.7-6.03,6.03s2.7,6.03,6.03,6.03,6.03-2.7,6.03-6.03-2.7-6.03-6.03-6.03Z"/><path class="cls-20" d="m408.66,268.49c-3.33,0-6.03,2.7-6.03,6.03s2.7,6.03,6.03,6.03,6.03-2.7,6.03-6.03-2.7-6.03-6.03-6.03Z"/><path class="cls-21" d="m310.42,233.52c3.33,0,6.03-2.7,6.03-6.03s-2.7-6.03-6.03-6.03-6.03,2.7-6.03,6.03c0,.31.03.62.08.92.05.26.11.52.17.78.73,2.5,3.04,4.33,5.78,4.33Z"/><path class="cls-22" d="m384.1,150.93c-3.33,0-6.03,2.7-6.03,6.03s2.7,6.03,6.03,6.03,6.03-2.7,6.03-6.03-2.7-6.03-6.03-6.03Z"/><path class="cls-41" d="m384.1,174.44c-3.33,0-6.03,2.7-6.03,6.03s2.7,6.03,6.03,6.03,6.03-2.7,6.03-6.03-2.7-6.03-6.03-6.03Z"/><path class="cls-40" d="m384.1,127.41c-3.33,0-6.03,2.7-6.03,6.03s2.7,6.03,6.03,6.03,6.03-2.7,6.03-6.03-2.7-6.03-6.03-6.03Z"/><path class="cls-47" d="m384.1,197.95c-3.33,0-6.03,2.7-6.03,6.03s2.7,6.03,6.03,6.03,6.03-2.7,6.03-6.03-2.7-6.03-6.03-6.03Z"/><path class="cls-46" d="m408.66,103.9c-3.33,0-6.03,2.7-6.03,6.03s2.7,6.03,6.03,6.03,6.03-2.7,6.03-6.03-2.7-6.03-6.03-6.03Z"/><path class="cls-45" d="m384.1,268.49c-3.33,0-6.03,2.7-6.03,6.03s2.7,6.03,6.03,6.03,6.03-2.7,6.03-6.03-2.7-6.03-6.03-6.03Z"/><path class="cls-44" d="m384.1,292.01c-3.33,0-6.03,2.7-6.03,6.03s2.7,6.03,6.03,6.03,6.03-2.7,6.03-6.03-2.7-6.03-6.03-6.03Z"/><path class="cls-43" d="m384.1,244.98c-3.33,0-6.03,2.7-6.03,6.03s2.7,6.03,6.03,6.03,6.03-2.7,6.03-6.03-2.7-6.03-6.03-6.03Z"/><path class="cls-42" d="m384.1,221.47c-3.33,0-6.03,2.7-6.03,6.03s2.7,6.03,6.03,6.03,6.03-2.7,6.03-6.03-2.7-6.03-6.03-6.03Z"/></g></g></svg>