<?xml version="1.0" encoding="UTF-8"?><svg id="Layer_2" xmlns="http://www.w3.org/2000/svg" xmlns:xlink="http://www.w3.org/1999/xlink" viewBox="0 0 841.89 398.83"><defs><style>.cls-1{fill:url(#linear-gradient);}.cls-2{fill:url(#linear-gradient-8);}.cls-3{fill:url(#linear-gradient-9);}.cls-4{fill:url(#linear-gradient-3);}.cls-5{fill:url(#linear-gradient-4);}.cls-6{fill:url(#linear-gradient-2);}.cls-7{fill:url(#linear-gradient-6);}.cls-8{fill:url(#linear-gradient-7);}.cls-9{fill:url(#linear-gradient-5);}.cls-10{fill:url(#linear-gradient-57);}.cls-11{fill:url(#linear-gradient-55);}.cls-12{fill:url(#linear-gradient-56);}.cls-13{fill:url(#linear-gradient-53);}.cls-14{fill:url(#linear-gradient-54);}.cls-15{fill:url(#linear-gradient-51);}.cls-16{fill:url(#linear-gradient-52);}.cls-17{fill:url(#linear-gradient-50);}.cls-18{fill:url(#linear-gradient-41);}.cls-19{fill:url(#linear-gradient-40);}.cls-20{fill:url(#linear-gradient-43);}.cls-21{fill:url(#linear-gradient-42);}.cls-22{fill:url(#linear-gradient-45);}.cls-23{fill:url(#linear-gradient-46);}.cls-24{fill:url(#linear-gradient-44);}.cls-25{fill:url(#linear-gradient-49);}.cls-26{fill:url(#linear-gradient-47);}.cls-27{fill:url(#linear-gradient-48);}.cls-28{fill:url(#linear-gradient-14);}.cls-29{fill:url(#linear-gradient-18);}.cls-30{fill:url(#linear-gradient-22);}.cls-31{fill:url(#linear-gradient-20);}.cls-32{fill:url(#linear-gradient-21);}.cls-33{fill:url(#linear-gradient-23);}.cls-34{fill:url(#linear-gradient-15);}.cls-35{fill:url(#linear-gradient-19);}.cls-36{fill:url(#linear-gradient-16);}.cls-37{fill:url(#linear-gradient-17);}.cls-38{fill:url(#linear-gradient-13);}.cls-39{fill:url(#linear-gradient-12);}.cls-40{fill:url(#linear-gradient-10);}.cls-41{fill:url(#linear-gradient-11);}.cls-42{fill:url(#linear-gradient-27);}.cls-43{fill:url(#linear-gradient-24);}.cls-44{fill:url(#linear-gradient-26);}.cls-45{fill:url(#linear-gradient-38);}.cls-46{fill:url(#linear-gradient-35);}.cls-47{fill:url(#linear-gradient-37);}.cls-48{fill:url(#linear-gradient-34);}.cls-49{fill:url(#linear-gradient-39);}.cls-50{fill:url(#linear-gradient-36);}.cls-51{fill:url(#linear-gradient-25);}.cls-52{fill:url(#linear-gradient-28);}.cls-53{fill:url(#linear-gradient-29);}.cls-54{fill:url(#linear-gradient-33);}.cls-55{fill:url(#linear-gradient-30);}.cls-56{fill:url(#linear-gradient-32);}.cls-57{fill:url(#linear-gradient-31);}</style><linearGradient id="linear-gradient" x1="420.94" y1="0" x2="420.94" y2="398.83" gradientUnits="userSpaceOnUse"><stop offset="0" stop-color="#18268c"/><stop offset=".17" stop-color="#3f469e"/><stop offset=".44" stop-color="#7d79bc"/><stop offset=".5" stop-color="#817dbe" stop-opacity=".97"/><stop offset=".57" stop-color="#8c89c4" stop-opacity=".88"/><stop offset=".66" stop-color="#9f9ccd" stop-opacity=".73"/><stop offset=".76" stop-color="#bab8db" stop-opacity=".53"/><stop offset=".86" stop-color="#dbdaec" stop-opacity=".27"/><stop offset=".95" stop-color="#fff" stop-opacity="0"/></linearGradient><linearGradient id="linear-gradient-2" x1="435.23" y1="293.28" x2="435.23" y2="263.36" gradientUnits="userSpaceOnUse"><stop offset="0" stop-color="#313aaa"/><stop offset=".08" stop-color="#3f46ad"/><stop offset=".44" stop-color="#7d79bc"/><stop offset=".5" stop-color="#817dbe" stop-opacity=".97"/><stop offset=".57" stop-color="#8c89c4" stop-opacity=".88"/><stop offset=".66" stop-color="#9f9ccd" stop-opacity=".73"/><stop offset=".76" stop-color="#bab8db" stop-opacity=".53"/><stop offset=".86" stop-color="#dbdaec" stop-opacity=".27"/><stop offset=".95" stop-color="#fff" stop-opacity="0"/></linearGradient><linearGradient id="linear-gradient-3" x1="488.37" y1="183.31" x2="488.37" y2="153.39" xlink:href="#linear-gradient-2"/><linearGradient id="linear-gradient-4" x1="436.19" y1="254.85" x2="436.19" y2="224.92" xlink:href="#linear-gradient-2"/><linearGradient id="linear-gradient-5" x1="428.94" y1="184.18" x2="428.94" y2="154.26" xlink:href="#linear-gradient-2"/><linearGradient id="linear-gradient-6" x1="407.22" y1="254.44" x2="407.22" y2="224.52" xlink:href="#linear-gradient-2"/><linearGradient id="linear-gradient-7" x1="409.04" y1="292.87" x2="409.04" y2="262.95" xlink:href="#linear-gradient-2"/><linearGradient id="linear-gradient-8" x1="462.17" y1="182.91" x2="462.17" y2="152.99" xlink:href="#linear-gradient-2"/><linearGradient id="linear-gradient-9" x1="462.33" y1="293.7" x2="462.33" y2="263.77" xlink:href="#linear-gradient-2"/><linearGradient id="linear-gradient-10" x1="485.71" y1="149.03" x2="485.71" y2="119.1" xlink:href="#linear-gradient-2"/><linearGradient id="linear-gradient-11" x1="462.33" y1="255.27" x2="462.33" y2="225.34" xlink:href="#linear-gradient-2"/><linearGradient id="linear-gradient-12" x1="462.04" y1="218.47" x2="462.04" y2="188.54" xlink:href="#linear-gradient-2"/><linearGradient id="linear-gradient-13" x1="453" y1="150.7" x2="453" y2="120.78" xlink:href="#linear-gradient-2"/><linearGradient id="linear-gradient-14" x1="405" y1="219.33" x2="405" y2="189.41" xlink:href="#linear-gradient-2"/><linearGradient id="linear-gradient-15" x1="435.84" y1="218.06" x2="435.84" y2="188.14" xlink:href="#linear-gradient-2"/><linearGradient id="linear-gradient-16" x1="349.99" y1="255.27" x2="349.99" y2="225.34" xlink:href="#linear-gradient-2"/><linearGradient id="linear-gradient-17" x1="320.49" y1="182.5" x2="320.49" y2="152.58" xlink:href="#linear-gradient-2"/><linearGradient id="linear-gradient-18" x1="322.74" y1="218.06" x2="322.74" y2="188.14" xlink:href="#linear-gradient-2"/><linearGradient id="linear-gradient-19" x1="372.88" y1="183.31" x2="372.88" y2="153.39" xlink:href="#linear-gradient-2"/><linearGradient id="linear-gradient-20" x1="382.84" y1="292.47" x2="382.84" y2="262.55" xlink:href="#linear-gradient-2"/><linearGradient id="linear-gradient-21" x1="534.52" y1="221.44" x2="534.52" y2="201.78" xlink:href="#linear-gradient-2"/><linearGradient id="linear-gradient-22" x1="516.94" y1="255.61" x2="516.94" y2="225.68" xlink:href="#linear-gradient-2"/><linearGradient id="linear-gradient-23" x1="424.04" y1="150.26" x2="424.04" y2="120.33" xlink:href="#linear-gradient-2"/><linearGradient id="linear-gradient-24" x1="378.95" y1="255.71" x2="378.95" y2="225.79" xlink:href="#linear-gradient-2"/><linearGradient id="linear-gradient-25" x1="396.94" y1="149.84" x2="396.94" y2="119.91" xlink:href="#linear-gradient-2"/><linearGradient id="linear-gradient-26" x1="346.69" y1="182.91" x2="346.69" y2="152.99" xlink:href="#linear-gradient-2"/><linearGradient id="linear-gradient-27" x1="376.03" y1="218.88" x2="376.03" y2="188.96" xlink:href="#linear-gradient-2"/><linearGradient id="linear-gradient-28" x1="399.98" y1="183.73" x2="399.98" y2="153.81" xlink:href="#linear-gradient-2"/><linearGradient id="linear-gradient-29" x1="370.75" y1="149.43" x2="370.75" y2="119.51" xlink:href="#linear-gradient-2"/><linearGradient id="linear-gradient-30" x1="508.45" y1="149.43" x2="508.45" y2="127.58" xlink:href="#linear-gradient-2"/><linearGradient id="linear-gradient-31" x1="348.94" y1="218.47" x2="348.94" y2="188.54" xlink:href="#linear-gradient-2"/><linearGradient id="linear-gradient-32" x1="329.8" y1="278.94" x2="329.8" y2="263.77" xlink:href="#linear-gradient-2"/><linearGradient id="linear-gradient-33" x1="305.35" y1="201.97" x2="305.35" y2="187.74" xlink:href="#linear-gradient-2"/><linearGradient id="linear-gradient-34" x1="306.32" y1="233.91" x2="306.32" y2="224.52" xlink:href="#linear-gradient-2"/><linearGradient id="linear-gradient-35" x1="323.03" y1="254.83" x2="323.03" y2="224.92" xlink:href="#linear-gradient-2"/><linearGradient id="linear-gradient-36" x1="362.65" y1="309.46" x2="362.65" y2="304.78" xlink:href="#linear-gradient-2"/><linearGradient id="linear-gradient-37" x1="352.77" y1="294.14" x2="352.77" y2="264.22" xlink:href="#linear-gradient-2"/><linearGradient id="linear-gradient-38" x1="468.16" y1="316.11" x2="468.16" y2="304.33" xlink:href="#linear-gradient-2"/><linearGradient id="linear-gradient-39" x1="514.8" y1="286.82" x2="514.8" y2="264.74" xlink:href="#linear-gradient-2"/><linearGradient id="linear-gradient-40" x1="530.65" y1="253.06" x2="530.65" y2="246.27" xlink:href="#linear-gradient-2"/><linearGradient id="linear-gradient-41" x1="388.28" y1="318.47" x2="388.28" y2="303.1" xlink:href="#linear-gradient-2"/><linearGradient id="linear-gradient-42" x1="438.44" y1="322.72" x2="438.44" y2="303.91" xlink:href="#linear-gradient-2"/><linearGradient id="linear-gradient-43" x1="412.51" y1="322.62" x2="412.51" y2="303.51" xlink:href="#linear-gradient-2"/><linearGradient id="linear-gradient-44" x1="325.86" y1="140.32" x2="325.86" y2="125.72" xlink:href="#linear-gradient-2"/><linearGradient id="linear-gradient-45" x1="515.46" y1="183.73" x2="515.46" y2="153.81" xlink:href="#linear-gradient-2"/><linearGradient id="linear-gradient-46" x1="499.77" y1="117" x2="499.77" y2="112.88" xlink:href="#linear-gradient-2"/><linearGradient id="linear-gradient-47" x1="535.22" y1="184.18" x2="535.22" y2="173.84" xlink:href="#linear-gradient-2"/><linearGradient id="linear-gradient-48" x1="518.1" y1="219.33" x2="518.1" y2="189.41" xlink:href="#linear-gradient-2"/><linearGradient id="linear-gradient-49" x1="491.29" y1="294.15" x2="491.29" y2="264.22" xlink:href="#linear-gradient-2"/><linearGradient id="linear-gradient-50" x1="488.37" y1="255.71" x2="488.37" y2="225.79" xlink:href="#linear-gradient-2"/><linearGradient id="linear-gradient-51" x1="394.69" y1="115.74" x2="394.69" y2="86.13" xlink:href="#linear-gradient-2"/><linearGradient id="linear-gradient-52" x1="367.79" y1="115.33" x2="367.79" y2="92.5" xlink:href="#linear-gradient-2"/><linearGradient id="linear-gradient-53" x1="344.55" y1="149.03" x2="344.55" y2="119.1" xlink:href="#linear-gradient-2"/><linearGradient id="linear-gradient-54" x1="489.13" y1="218.88" x2="489.13" y2="188.96" xlink:href="#linear-gradient-2"/><linearGradient id="linear-gradient-55" x1="473.38" y1="117.01" x2="473.38" y2="97.99" xlink:href="#linear-gradient-2"/><linearGradient id="linear-gradient-56" x1="447.91" y1="116.56" x2="447.91" y2="89.19" xlink:href="#linear-gradient-2"/><linearGradient id="linear-gradient-57" x1="420.88" y1="116.14" x2="420.88" y2="86.22" xlink:href="#linear-gradient-2"/></defs><g id="Layer_5"><rect class="cls-1" width="841.89" height="398.83"/><g><path class="cls-6" d="m424.63,292.5c1.73,1.3,4.19.94,5.49-.79l16.51-22.08c1.3-1.73.94-4.19-.79-5.49-1.73-1.3-4.19-.94-5.49.79l-16.51,22.08c-1.3,1.73-.94,4.19.79,5.49Z"/><path class="cls-4" d="m498.97,154.17c-1.73-1.3-4.19-.94-5.49.79l-16.51,22.08c-1.3,1.73-.94,4.19.79,5.49,1.73,1.3,4.19.94,5.49-.79l16.51-22.08c1.3-1.73.94-4.19-.79-5.49Z"/><path class="cls-5" d="m446.79,225.7c-1.73-1.3-4.19-.94-5.49.79l-16.51,22.08c-1.3,1.73-.94,4.19.79,5.49s4.19.94,5.49-.79l16.51-22.08c1.3-1.73.94-4.19-.79-5.49Z"/><path class="cls-9" d="m423.82,182.61l16.51-22.08c1.3-1.73.94-4.19-.79-5.49-1.73-1.3-4.19-.94-5.49.79l-16.51,22.08c-1.3,1.73-.94,4.19.79,5.49,1.73,1.3,4.19.94,5.49-.79Z"/><path class="cls-7" d="m396.62,253.66c1.73,1.3,4.19.94,5.49-.79l16.51-22.08c1.3-1.73.94-4.19-.79-5.49-1.73-1.3-4.19-.94-5.49.79l-16.51,22.08c-1.3,1.73-.94,4.19.79,5.49Z"/><path class="cls-8" d="m398.44,292.09c1.73,1.3,4.19.94,5.49-.79l16.51-22.08c1.3-1.73.94-4.19-.79-5.49-1.73-1.3-4.19-.94-5.49.79l-16.51,22.08c-1.3,1.73-.94,4.19.79,5.49Z"/><path class="cls-2" d="m451.57,182.13c1.73,1.3,4.19.94,5.49-.79l16.51-22.08c1.3-1.73.94-4.19-.79-5.49h0c-1.73-1.3-4.19-.94-5.49.79l-16.51,22.08c-1.3,1.73-.94,4.19.79,5.49Z"/><path class="cls-3" d="m472.93,264.56c-1.73-1.3-4.19-.94-5.49.79l-16.51,22.08c-1.3,1.73-.94,4.19.79,5.49,1.73,1.3,4.19.94,5.49-.79l16.51-22.08c1.3-1.73.94-4.19-.79-5.49Z"/><path class="cls-40" d="m475.11,148.25c1.73,1.3,4.19.94,5.49-.79l16.51-22.08c1.3-1.73.94-4.19-.79-5.49-1.73-1.3-4.19-.94-5.49.79l-16.51,22.08c-1.3,1.73-.94,4.19.79,5.49Z"/><path class="cls-41" d="m472.93,226.12c-1.73-1.3-4.19-.94-5.49.79l-16.51,22.08c-1.3,1.73-.94,4.19.79,5.49,1.73,1.3,4.19.94,5.49-.79l16.51-22.08c1.3-1.73.94-4.19-.79-5.49Z"/><path class="cls-39" d="m451.44,217.69h0c1.73,1.3,4.19.94,5.49-.79l16.51-22.08c1.3-1.73.94-4.19-.79-5.49-1.73-1.3-4.19-.94-5.49.79l-16.51,22.08c-1.3,1.73-.94,4.19.79,5.49Z"/><path class="cls-38" d="m463.6,121.56c-1.73-1.3-4.19-.94-5.49.79l-16.51,22.08c-1.3,1.73-.94,4.19.79,5.49,1.73,1.3,4.19.94,5.49-.79l16.51-22.08c1.3-1.73.94-4.19-.79-5.49Z"/><path class="cls-28" d="m399.88,217.76l16.51-22.08c1.3-1.73.94-4.19-.79-5.49-1.73-1.3-4.19-.94-5.49.79l-16.51,22.08c-1.3,1.73-.94,4.19.79,5.49s4.19.94,5.49-.79Z"/><path class="cls-34" d="m425.24,217.28c1.73,1.3,4.19.94,5.49-.79l16.51-22.08c1.3-1.73.94-4.19-.79-5.49-1.73-1.3-4.19-.94-5.49.79l-16.51,22.08c-1.3,1.73-.94,4.19.79,5.49Z"/><path class="cls-36" d="m360.59,226.12c-1.73-1.3-4.19-.94-5.49.79l-16.51,22.08c-1.3,1.73-.94,4.19.79,5.49,1.73,1.3,4.19.94,5.49-.79l16.51-22.08c1.3-1.73.94-4.19-.79-5.49Z"/><path class="cls-37" d="m315.38,180.93l16.51-22.08c1.3-1.73.94-4.19-.79-5.49-1.73-1.3-4.19-.94-5.49.79l-16.51,22.08c-1.3,1.73-.94,4.19.79,5.49,1.73,1.3,4.19.94,5.49-.79Z"/><path class="cls-29" d="m312.14,217.28c1.73,1.3,4.19.94,5.49-.79l16.51-22.08c1.3-1.73.94-4.19-.79-5.49h0c-1.73-1.3-4.19-.94-5.49.79l-16.51,22.08c-1.3,1.73-.94,4.19.79,5.49Z"/><path class="cls-35" d="m367.77,181.74l16.51-22.08c1.3-1.73.94-4.19-.79-5.49h0c-1.73-1.3-4.19-.94-5.49.79l-16.51,22.08c-1.3,1.73-.94,4.19.79,5.49,1.73,1.3,4.19.94,5.49-.79Z"/><path class="cls-31" d="m377.73,290.9l16.51-22.08c1.3-1.73.94-4.19-.79-5.49h0c-1.73-1.3-4.19-.94-5.49.79l-16.51,22.08c-1.3,1.73-.94,4.19.79,5.49h0c1.73,1.3,4.19.94,5.49-.79Z"/><path class="cls-32" d="m530.68,220.66c1.73,1.3,4.19.94,5.49-.79l3.2-4.28c.37-3.82.57-7.7.57-11.62,0-.73-.01-1.46-.03-2.2l-10.01,13.4c-1.3,1.73-.94,4.19.79,5.49Z"/><path class="cls-30" d="m511.83,254.03l16.51-22.08c1.3-1.73.94-4.19-.79-5.49s-4.19-.94-5.49.79l-16.51,22.08c-1.3,1.73-.94,4.19.79,5.49h0c1.73,1.3,4.19.94,5.49-.79Z"/><path class="cls-33" d="m413.44,149.48c1.73,1.3,4.19.94,5.49-.79l16.51-22.08c1.3-1.73.94-4.19-.79-5.49-1.73-1.3-4.19-.94-5.49.79l-16.51,22.08c-1.3,1.73-.94,4.19.79,5.49Z"/><path class="cls-43" d="m368.35,254.93c1.73,1.3,4.19.94,5.49-.79l16.51-22.08c1.3-1.73.94-4.19-.79-5.49-1.73-1.3-4.19-.94-5.49.79l-16.51,22.08c-1.3,1.73-.94,4.19.79,5.49Z"/><path class="cls-51" d="m407.54,120.69c-1.73-1.3-4.19-.94-5.49.79l-16.51,22.08c-1.3,1.73-.94,4.19.79,5.49,1.73,1.3,4.19.94,5.49-.79l16.51-22.08c1.3-1.73.94-4.19-.79-5.49Z"/><path class="cls-44" d="m336.09,182.13c1.73,1.3,4.19.94,5.49-.79l16.51-22.08c1.3-1.73.94-4.19-.79-5.49-1.73-1.3-4.19-.94-5.49.79l-16.51,22.08c-1.3,1.73-.94,4.19.79,5.49Z"/><path class="cls-42" d="m365.43,218.1c1.73,1.3,4.19.94,5.49-.79l16.51-22.08c1.3-1.73.94-4.19-.79-5.49h0c-1.73-1.3-4.19-.94-5.49.79l-16.51,22.08c-1.3,1.73-.94,4.19.79,5.49Z"/><path class="cls-52" d="m410.58,154.59c-1.73-1.3-4.19-.94-5.49.79l-16.51,22.08c-1.3,1.73-.94,4.19.79,5.49,1.73,1.3,4.19.94,5.49-.79l16.51-22.08c1.3-1.73.94-4.19-.79-5.49Z"/><path class="cls-53" d="m360.15,148.65c1.73,1.3,4.19.94,5.49-.79l16.51-22.08c1.3-1.73.94-4.19-.79-5.49-1.73-1.3-4.19-.94-5.49.79l-16.51,22.08c-1.3,1.73-.94,4.19.79,5.49Z"/><path class="cls-55" d="m500.51,143.17c-1.3,1.73-.94,4.19.79,5.49h0c1.73,1.3,4.19.94,5.49-.79l10.37-13.88c-1.6-2.19-3.26-4.32-5-6.4l-11.65,15.59Z"/><path class="cls-57" d="m338.34,217.69c1.73,1.3,4.19.94,5.49-.79l16.51-22.08c1.3-1.73.94-4.19-.79-5.49-1.73-1.3-4.19-.94-5.49.79l-16.51,22.08c-1.3,1.73-.94,4.19.79,5.49Z"/><path class="cls-56" d="m335.2,270.04c1.3-1.73.94-4.19-.79-5.49-1.73-1.3-4.19-.94-5.49.79l-5.3,7.09c1.57,2.23,3.21,4.39,4.93,6.5l6.65-8.9Z"/><path class="cls-54" d="m307.94,194c1.3-1.73.94-4.19-.79-5.49-1.24-.93-2.85-1-4.14-.33-.6,4.52-.94,9.12-1.02,13.78l5.96-7.97Z"/><path class="cls-48" d="m307.3,225.3c-1.05-.79-2.37-.96-3.53-.59.55,3.11,1.21,6.17,1.99,9.19l2.33-3.12c1.3-1.73.94-4.19-.79-5.49Z"/><path class="cls-46" d="m317.78,253.27l16.51-22.08c1.3-1.73.94-4.19-.79-5.49-1.73-1.3-4.19-.94-5.49.79l-16.51,22.08c-.22.3-.38.62-.5.95.7,1.7,1.45,3.38,2.23,5.04,1.6.62,3.47.15,4.55-1.29Z"/><path class="cls-50" d="m364.37,305.56h0c-1.53-1.15-3.63-1-4.99.26,2.12,1.28,4.28,2.49,6.48,3.65.28-1.43-.24-2.97-1.48-3.9Z"/><path class="cls-47" d="m347.66,292.57l16.51-22.08c1.3-1.73.94-4.19-.79-5.49h0c-1.73-1.3-4.19-.94-5.49.79l-16.51,22.08c-.99,1.32-1.01,3.05-.2,4.38.57.52,1.14,1.03,1.72,1.53,1.64.75,3.64.28,4.76-1.22Z"/><path class="cls-45" d="m473.93,305.11c-1.73-1.3-4.19-.94-5.49.79l-7.63,10.21c4.92-1.75,9.7-3.81,14.3-6.16.8-1.66.34-3.7-1.18-4.84Z"/><path class="cls-49" d="m522.06,265.8l-15.71,21.02c6.46-6.66,12.14-14.06,16.91-22.08-.46.26-.87.61-1.2,1.06Z"/><path class="cls-19" d="m529.89,249.34c-.83,1.11-.98,2.51-.52,3.72,1.01-2.23,1.95-4.49,2.82-6.79l-2.3,3.07Z"/><path class="cls-18" d="m395.24,309.37c1.3-1.73.94-4.19-.79-5.49h0c-1.73-1.3-4.19-.94-5.49.79l-8.41,11.25c2.59.93,5.22,1.79,7.89,2.54l6.8-9.1Z"/><path class="cls-21" d="m447.63,310.18c1.3-1.73.94-4.19-.79-5.49h0c-1.73-1.3-4.19-.94-5.49.79l-12.88,17.24c3.59-.22,7.14-.6,10.63-1.13l8.53-11.41Z"/><path class="cls-20" d="m421.43,309.77c1.3-1.73.94-4.19-.79-5.49-1.73-1.3-4.19-.94-5.49.79l-12.34,16.51c2.97.45,5.98.8,9.02,1.03l9.6-12.85Z"/><path class="cls-24" d="m331.32,125.72c-3.99,4.57-7.64,9.45-10.91,14.6l10.91-14.6Z"/><path class="cls-22" d="m504.86,182.95c1.73,1.3,4.19.94,5.49-.79l16.51-22.08c1.3-1.73.94-4.19-.79-5.49h0c-1.73-1.3-4.19-.94-5.49.79l-16.51,22.08c-1.3,1.73-.94,4.19.79,5.49Z"/><path class="cls-23" d="m499.04,116.23h0c.9.67,1.99.89,3.02.71-1.49-1.39-3.02-2.75-4.59-4.06-.07,1.26.48,2.54,1.57,3.35Z"/><path class="cls-26" d="m533.82,183.4c1.31.98,3.04,1.01,4.37.22-.57-3.31-1.27-6.57-2.11-9.78l-3.05,4.07c-1.3,1.73-.94,4.19.79,5.49Z"/><path class="cls-27" d="m528.7,190.19c-1.73-1.3-4.19-.94-5.49.79l-16.51,22.08c-1.3,1.73-.94,4.19.79,5.49h0c1.73,1.3,4.19.94,5.49-.79l16.51-22.08c1.3-1.73.94-4.19-.79-5.49Z"/><path class="cls-25" d="m480.69,293.37c1.73,1.3,4.19.94,5.49-.79l16.51-22.08c1.3-1.73.94-4.19-.79-5.49h0c-1.73-1.3-4.19-.94-5.49.79l-16.51,22.08c-1.3,1.73-.94,4.19.79,5.49Z"/><path class="cls-17" d="m477.77,254.93c1.73,1.3,4.19.94,5.49-.79l16.51-22.08c1.3-1.73.94-4.19-.79-5.49-1.73-1.3-4.19-.94-5.49.79l-16.51,22.08c-1.3,1.73-.94,4.19.79,5.49Z"/><path class="cls-15" d="m399.8,87.39l-16.51,22.08c-1.3,1.73-.94,4.19.79,5.49,1.73,1.3,4.19.94,5.49-.79l16.51-22.08c1.3-1.73.94-4.19-.79-5.49-.26-.19-.54-.34-.82-.46-1.37.19-2.73.4-4.08.63-.21.18-.41.39-.58.62Z"/><path class="cls-16" d="m357.1,109.07c-1.3,1.73-.94,4.19.79,5.49,1.73,1.3,4.19.94,5.49-.79l15.89-21.25c-5.12,1.91-10.06,4.16-14.82,6.73l-7.35,9.83Z"/><path class="cls-13" d="m333.95,148.25c1.73,1.3,4.19.94,5.49-.79l16.51-22.08c1.3-1.73.94-4.19-.79-5.49s-4.19-.94-5.49.79l-16.51,22.08c-1.3,1.73-.94,4.19.79,5.49Z"/><path class="cls-14" d="m494.25,190.53l-16.51,22.08c-1.3,1.73-.94,4.19.79,5.49,1.73,1.3,4.19.94,5.49-.79l16.51-22.08c1.3-1.73.94-4.19-.79-5.49-1.73-1.3-4.19-.94-5.49.79Z"/><path class="cls-11" d="m465.55,110.74c-1.3,1.73-.94,4.19.79,5.49,1.73,1.3,4.19.94,5.49-.79l10.17-13.6c-2.26-1.35-4.56-2.64-6.91-3.84l-9.53,12.75Z"/><path class="cls-12" d="m436.59,110.29c-1.3,1.73-.94,4.19.79,5.49,1.73,1.3,4.19.94,5.49-.79l16.51-22.08c.31-.41.52-.87.64-1.34-2.51-.87-5.07-1.66-7.66-2.37l-15.77,21.1Z"/><path class="cls-10" d="m410.29,115.36c1.73,1.3,4.19.94,5.49-.79l16.51-22.08c1.3-1.73.94-4.19-.79-5.49-1.73-1.3-4.19-.94-5.49.79l-16.51,22.08c-1.3,1.73-.94,4.19.79,5.49Z"/></g></g></svg>