<?xml version="1.0" encoding="UTF-8"?><svg id="Layer_2" xmlns="http://www.w3.org/2000/svg" xmlns:xlink="http://www.w3.org/1999/xlink" viewBox="0 0 841.89 398.83"><defs><style>.cls-1{fill:url(#linear-gradient);}.cls-2{fill:url(#linear-gradient-2);}</style><linearGradient id="linear-gradient" x1="420.94" y1="0" x2="420.94" y2="398.83" gradientUnits="userSpaceOnUse"><stop offset="0" stop-color="#00b7ff"/><stop offset=".36" stop-color="#90e9f1"/><stop offset=".53" stop-color="#ceffec"/><stop offset=".58" stop-color="#cfffec" stop-opacity=".98"/><stop offset=".64" stop-color="#d4ffee" stop-opacity=".91"/><stop offset=".72" stop-color="#dbfff1" stop-opacity=".8"/><stop offset=".8" stop-color="#e6fff5" stop-opacity=".65"/><stop offset=".89" stop-color="#f3fffa" stop-opacity=".46"/><stop offset=".95" stop-color="#fff" stop-opacity=".3"/></linearGradient><linearGradient id="linear-gradient-2" x1="427.96" y1="321.89" x2="427.96" y2="86.85" gradientUnits="userSpaceOnUse"><stop offset="0" stop-color="#00b7ff"/><stop offset=".32" stop-color="#66e3e8"/><stop offset=".53" stop-color="#a4ffdb"/><stop offset=".58" stop-color="#a7ffdc" stop-opacity=".98"/><stop offset=".64" stop-color="#afffdf" stop-opacity=".91"/><stop offset=".72" stop-color="#bdffe5" stop-opacity=".8"/><stop offset=".8" stop-color="#d1ffec" stop-opacity=".65"/><stop offset=".89" stop-color="#e9fff6" stop-opacity=".46"/><stop offset=".95" stop-color="#fff" stop-opacity=".3"/></linearGradient></defs><g id="Layer_6"><rect class="cls-1" width="841.89" height="398.83"/><path class="cls-2" d="m491.36,105.24c.17.11.34.21.51.32,0,0,0,0,0,0-.21-.06-.38-.16-.5-.32Zm-7.84-3.15c0,.08-.05.17-.1.23-1.15,1.17-2.31,2.33-3.47,3.5q-.4.41-.36.98c.01.19.08.34.21.49.34.39,1.01.48,1.42.09.72-.7,1.44-1.39,2.17-2.09.04-.04.08-.07.15-.14v.22c0,1.39,0,2.78.02,4.17,0,.3.05.6.09.9.04.28.2.47.46.59.11.05.23.11.34.16h.25c.09-.04.18-.09.27-.13.35-.13.52-.4.55-.76.03-.32.06-.64.07-.96.01-1.33.01-2.65.02-3.98,0-.06,0-.12,0-.18.02,0,.04-.02.06-.02.04.05.07.11.12.15.73.7,1.44,1.41,2.19,2.09.52.48,1.35.21,1.55-.47.1-.35.04-.67-.22-.94-1.19-1.22-2.38-2.45-3.57-3.67-.08-.08-.11-.15-.11-.26,0-.08,0-.17,0-.25-.69-.39-1.39-.76-2.09-1.14,0,.47,0,.94.01,1.41Zm11.77,167.46c.53.29,1.07.58,1.62.82.41.18.72.06.99-.29.29-.39.32-.75.06-1.11-.08-.11-.18-.2-.28-.27-.21-.15-.43-.3-.66-.44-1.16-.69-2.33-1.38-3.49-2.07-.06-.04-.12-.08-.21-.14.27-.08.5-.15.73-.21.81-.23,1.61-.46,2.42-.7.13-.04.27-.11.35-.2.36-.45.4-.88.03-1.3-.07-.08-.15-.15-.23-.22-.15-.13-.32-.18-.51-.13-.52.12-1.04.22-1.56.35-1.22.31-2.44.64-3.66.96-.06.02-.14.02-.19-.01-1.22-.71-2.43-1.43-3.64-2.15-.12-.07-.24-.17-.37-.27.06-.05.1-.08.15-.11,1.28-.72,2.56-1.45,3.85-2.17.09-.05.22-.06.32-.03.63.15,1.25.31,1.87.47,1.01.25,2.01.51,3.02.76.57.14,1.03-.15,1.17-.71.12-.47-.15-.96-.6-1.12-.16-.05-.32-.11-.48-.15-.77-.22-1.54-.44-2.31-.67-.09-.03-.17-.08-.29-.13.08-.06.12-.09.17-.12.23-.14.45-.27.68-.41,1.14-.68,2.28-1.37,3.42-2.05.39-.23.5-.58.44-1-.08-.58-.78-.96-1.3-.7-.24.12-.48.25-.71.38-1.17.66-2.35,1.32-3.52,1.98-.08.04-.16.08-.27.13,0-.06,0-.08.02-.11.13-.51.26-1.01.38-1.52.12-.52.25-1.04.35-1.56.1-.54-.19-.94-.71-1.06-.54-.13-.98.12-1.15.64-.03.1-.07.2-.09.3-.42,1.55-.85,3.09-1.27,4.64-.02.09-.08.19-.15.24-1.09.64-2.19,1.27-3.29,1.9-.24.14-.48.26-.74.41,0-.17-.02-.32-.02-.47,0-1.42-.01-2.83-.01-4.25,0-.08.05-.17.1-.23.95-.97,1.91-1.93,2.87-2.89.27-.27.53-.56.78-.85.08-.1.15-.23.18-.36.07-.4-.15-.84-.5-1.04-.35-.2-.71-.17-1.05.14-.74.69-1.47,1.4-2.2,2.1-.05.05-.1.1-.19.18v-.2c0-.76,0-1.51,0-2.27,0-.82-.02-1.64-.05-2.46-.03-.68-.28-.98-.85-1.1-.44-.09-1.03.32-1.08.77-.04.34-.06.67-.06,1.01-.01,1.34-.02,2.68-.02,4.03v.22c-.07-.06-.11-.1-.14-.13-.34-.34-.68-.69-1.03-1.03-.43-.41-.86-.81-1.31-1.19-.33-.28-.81-.23-1.14.08-.3.28-.45.87-.18,1.2.15.18.3.37.47.54,1.07,1.09,2.15,2.18,3.23,3.27.05.05.1.14.1.21,0,1.46,0,2.92-.02,4.37,0,.11-.01.22-.02.35-.1-.05-.18-.09-.25-.13-1.07-.61-2.15-1.22-3.22-1.83-.22-.13-.51-.22-.65-.41-.15-.19-.15-.49-.22-.74-.4-1.45-.8-2.91-1.21-4.36-.13-.46-.38-.64-.84-.67-.56-.04-1.08.37-1.02.98.01.12.02.24.05.36.2.8.4,1.61.6,2.41.04.17.08.33.12.53-.08-.04-.14-.06-.19-.09-.43-.24-.86-.47-1.29-.71-1.02-.56-2.03-1.13-3.04-1.69-.21-.12-.43-.13-.64-.02-.17.09-.34.2-.47.34-.37.42-.28,1.03.18,1.34.1.07.19.13.29.19,1.26.75,2.52,1.5,3.78,2.25.09.05.18.11.3.19-.2.07-.37.14-.54.19-.85.25-1.7.51-2.55.74-.33.09-.5.31-.6.6-.26.75.45,1.44,1.04,1.26.22-.06.45-.09.68-.15,1.44-.37,2.87-.74,4.31-1.1.1-.03.24-.01.33.04,1.28.71,2.56,1.44,3.83,2.16.05.03.1.07.16.12-.17.12-.32.23-.48.32-1.18.7-2.36,1.39-3.54,2.08-.05.03-.13.04-.19.02-.78-.2-1.56-.42-2.34-.62-.91-.24-1.83-.47-2.74-.69-.22-.05-.43-.02-.62.1-.33.22-.53.52-.52.92.01.38.24.63.58.78.12.05.24.11.37.14.63.18,1.27.36,1.9.54.28.08.56.16.88.25-.08.07-.13.11-.19.15-.22.14-.43.29-.65.42-.96.57-1.93,1.14-2.89,1.71-.26.16-.52.33-.75.53-.35.31-.38.71-.13,1.12.26.42.59.57,1.04.41.26-.09.52-.21.76-.34,1.05-.59,2.1-1.18,3.14-1.78.24-.13.48-.26.75-.41-.02.09-.02.15-.04.2-.24.96-.48,1.91-.73,2.87-.12.44.03.76.35,1.04.47.41,1.34.2,1.46-.39.02-.12.08-.23.11-.35.44-1.55.87-3.11,1.3-4.66.03-.13.09-.21.21-.27,1.28-.73,2.55-1.47,3.82-2.21.04-.03.09-.05.15-.08,0,.05,0,.08,0,.11.01,1.52.03,3.04.04,4.57,0,.08-.05.17-.1.23-1.15,1.17-2.31,2.33-3.47,3.5q-.4.41-.36.98c.01.19.08.34.21.49.34.39,1.01.48,1.42.09.72-.7,1.44-1.39,2.17-2.09.04-.04.08-.07.15-.14v.22c0,1.39,0,2.78.02,4.17,0,.3.05.6.09.9.04.28.2.47.46.59.11.05.23.11.34.16h.25c.09-.04.18-.09.27-.13.35-.13.52-.4.55-.76.03-.32.06-.64.07-.96.01-1.33.01-2.65.02-3.98,0-.06,0-.12,0-.18.02,0,.04-.02.06-.02.04.05.07.11.12.15.73.7,1.44,1.41,2.19,2.09.52.48,1.35.21,1.55-.47.1-.35.04-.67-.22-.94-1.19-1.22-2.38-2.45-3.57-3.67-.08-.08-.11-.15-.11-.26.02-1.51.03-3.02.04-4.53,0-.03,0-.07,0-.12.04.02.05.02.07.03,1.32.77,2.65,1.53,3.97,2.3.05.03.09.1.11.16.12.42.23.85.34,1.27.35,1.24.7,2.49,1.05,3.73.1.35.34.55.67.64.71.19,1.36-.43,1.19-1.14-.24-.98-.49-1.95-.74-2.93-.01-.06-.02-.12-.03-.2.09.05.16.08.22.12.93.53,1.85,1.06,2.78,1.58Zm-82.01,44.14c.53.29,1.07.58,1.62.82.41.18.72.06.99-.29.29-.39.32-.75.06-1.11-.08-.11-.18-.2-.28-.27-.21-.15-.43-.3-.66-.44-1.16-.69-2.33-1.38-3.49-2.07-.06-.04-.12-.08-.21-.14.27-.08.5-.15.73-.21.81-.23,1.61-.46,2.42-.7.13-.04.27-.11.35-.2.36-.45.4-.88.03-1.3-.07-.08-.15-.15-.23-.22-.15-.13-.32-.18-.51-.13-.52.12-1.04.22-1.56.35-1.22.31-2.44.64-3.66.96-.06.02-.14.02-.19-.01-1.22-.71-2.43-1.43-3.64-2.15-.12-.07-.24-.17-.37-.27.06-.05.1-.08.15-.11,1.28-.72,2.56-1.45,3.85-2.17.09-.05.22-.06.32-.03.63.15,1.25.31,1.87.47,1.01.25,2.01.51,3.02.76.57.14,1.03-.15,1.17-.71.12-.47-.15-.96-.6-1.12-.16-.05-.32-.11-.48-.15-.77-.22-1.54-.44-2.31-.67-.09-.03-.17-.08-.29-.13.08-.06.12-.09.17-.12.23-.14.45-.27.68-.41,1.14-.68,2.28-1.37,3.42-2.05.39-.23.5-.58.44-1-.08-.58-.78-.96-1.3-.7-.24.12-.48.25-.71.38-1.17.66-2.35,1.32-3.52,1.98-.08.04-.16.08-.27.13,0-.06.01-.08.02-.11.13-.51.26-1.01.38-1.52.12-.52.25-1.04.35-1.56.1-.54-.19-.94-.71-1.06-.54-.13-.98.12-1.15.64-.03.1-.07.2-.09.3-.42,1.55-.85,3.09-1.27,4.64-.02.09-.08.19-.15.24-1.09.64-2.19,1.27-3.29,1.9-.24.14-.48.26-.74.41,0-.17-.02-.32-.02-.47,0-1.42-.01-2.83-.01-4.25,0-.08.05-.17.11-.23.95-.97,1.91-1.93,2.87-2.89.27-.27.53-.56.78-.85.08-.1.15-.23.18-.36.07-.4-.15-.84-.5-1.04-.35-.2-.71-.17-1.05.14-.74.69-1.47,1.4-2.2,2.1-.05.05-.1.1-.19.18v-.2c0-.76,0-1.51,0-2.27-.01-.82-.02-1.64-.06-2.46-.03-.68-.28-.98-.85-1.1-.44-.09-1.03.32-1.08.77-.03.34-.06.67-.06,1.01-.01,1.34-.02,2.68-.02,4.03v.22c-.07-.06-.11-.1-.14-.13-.34-.34-.68-.69-1.03-1.03-.43-.41-.86-.81-1.31-1.19-.33-.28-.81-.23-1.14.08-.3.28-.45.87-.18,1.2.15.18.3.37.47.54,1.07,1.09,2.15,2.18,3.23,3.27.05.05.1.14.1.21,0,1.46,0,2.92-.02,4.37,0,.11-.01.22-.02.35-.1-.05-.18-.09-.25-.13-1.07-.61-2.15-1.22-3.22-1.83-.22-.13-.51-.22-.65-.41-.15-.19-.15-.49-.22-.74-.4-1.45-.8-2.91-1.21-4.36-.13-.46-.38-.64-.84-.67-.56-.04-1.08.37-1.02.98.01.12.02.24.05.36.2.8.4,1.61.6,2.41.04.17.08.33.12.53-.08-.04-.14-.06-.19-.09-.43-.24-.86-.47-1.29-.71-1.02-.56-2.03-1.13-3.04-1.69-.21-.12-.43-.13-.64-.02-.17.09-.34.2-.47.34-.37.42-.28,1.03.18,1.34.1.07.19.13.29.19,1.26.75,2.52,1.5,3.79,2.25.09.05.18.11.3.19-.2.07-.37.14-.54.19-.85.25-1.7.51-2.55.74-.33.09-.5.31-.6.6-.26.75.45,1.44,1.04,1.26.22-.06.46-.09.68-.15,1.44-.37,2.87-.74,4.31-1.1.1-.03.24-.01.33.04,1.28.71,2.56,1.44,3.83,2.16.05.03.1.07.16.12-.17.12-.32.23-.48.32-1.18.7-2.36,1.39-3.54,2.08-.05.03-.13.04-.19.02-.78-.2-1.56-.42-2.34-.62-.91-.24-1.83-.47-2.74-.69-.22-.05-.43-.02-.62.1-.33.22-.53.52-.52.92.01.38.24.63.58.78.12.05.24.11.37.14.63.18,1.27.36,1.9.54.28.08.56.16.88.25-.08.07-.13.11-.19.15-.22.14-.43.29-.65.42-.96.57-1.93,1.14-2.89,1.71-.26.16-.52.33-.75.53-.35.31-.38.71-.13,1.12.26.42.59.57,1.04.41.26-.09.52-.21.76-.34,1.05-.59,2.1-1.18,3.14-1.78.24-.13.48-.26.75-.41-.02.09-.02.15-.04.2-.24.96-.48,1.91-.73,2.87-.12.44.03.76.35,1.04.47.41,1.34.2,1.46-.39.02-.12.08-.23.11-.35.44-1.55.87-3.11,1.3-4.66.04-.13.09-.21.21-.27,1.28-.73,2.55-1.47,3.82-2.21.04-.03.09-.05.15-.08,0,.05,0,.08,0,.11.01,1.52.03,3.04.04,4.57,0,.08-.05.17-.1.23-1.15,1.17-2.31,2.33-3.47,3.5q-.4.41-.36.98c.01.19.08.34.21.49.34.39,1.01.48,1.42.09.72-.7,1.44-1.39,2.17-2.09.04-.04.08-.07.15-.14v.22c0,1.39,0,2.78.02,4.17,0,.3.05.6.09.9.04.28.2.47.45.59.11.05.23.11.34.16h.25c.09-.04.18-.09.27-.13.35-.13.52-.4.55-.76.03-.32.06-.64.07-.96.01-1.33.01-2.65.02-3.98,0-.06,0-.12,0-.18.02,0,.04-.02.06-.02.04.05.07.11.12.15.73.7,1.44,1.41,2.19,2.09.52.48,1.35.21,1.55-.47.1-.35.04-.67-.22-.94-1.19-1.22-2.38-2.45-3.57-3.67-.08-.08-.11-.15-.11-.26.02-1.51.03-3.02.04-4.53,0-.03,0-.07,0-.12.04.02.05.02.07.03,1.33.77,2.65,1.53,3.97,2.3.05.03.09.1.11.16.12.42.23.85.34,1.27.35,1.24.7,2.49,1.05,3.73.1.35.34.55.67.64.71.19,1.36-.43,1.19-1.14-.24-.98-.49-1.95-.74-2.93-.01-.06-.02-.12-.03-.2.1.05.16.08.22.12.93.53,1.85,1.06,2.78,1.58Zm84.68-133.49c-.08-.11-.18-.2-.28-.27-.21-.15-.43-.3-.66-.44-1.16-.69-2.33-1.38-3.49-2.07-.06-.04-.12-.08-.21-.14.27-.08.5-.15.73-.21.81-.23,1.61-.46,2.42-.7.13-.04.27-.11.35-.2.36-.45.4-.88.03-1.3-.07-.08-.15-.15-.23-.22-.15-.13-.32-.18-.51-.13-.52.12-1.04.22-1.56.35-1.22.31-2.44.64-3.66.96-.06.02-.14.02-.19-.01-1.22-.71-2.43-1.43-3.64-2.15-.12-.07-.24-.17-.37-.27.06-.05.1-.08.15-.11,1.28-.72,2.56-1.45,3.85-2.17.09-.05.22-.06.32-.03.63.15,1.25.31,1.87.47,1.01.25,2.01.51,3.02.76.57.14,1.03-.15,1.17-.71.12-.47-.15-.96-.6-1.12-.16-.05-.32-.11-.48-.15-.77-.22-1.54-.44-2.31-.67-.09-.03-.17-.08-.29-.13.08-.06.12-.09.17-.12.23-.14.45-.27.68-.41,1.14-.68,2.28-1.37,3.42-2.05.39-.23.5-.58.44-1-.08-.58-.78-.96-1.3-.7-.24.12-.48.25-.71.38-1.17.66-2.35,1.32-3.52,1.98-.08.04-.16.08-.27.13,0-.06,0-.08.02-.11.13-.51.26-1.01.38-1.52.12-.52.25-1.04.35-1.56.1-.54-.19-.94-.71-1.06-.54-.13-.98.12-1.15.64-.03.1-.07.2-.09.3-.42,1.55-.85,3.09-1.27,4.64-.02.09-.08.19-.15.24-1.09.64-2.19,1.27-3.29,1.9-.24.14-.48.26-.74.41,0-.17-.02-.32-.02-.47,0-1.42-.01-2.83-.01-4.25,0-.08.05-.17.1-.23.95-.97,1.91-1.93,2.87-2.89.27-.27.53-.56.78-.85.08-.1.15-.23.18-.36.07-.4-.15-.84-.5-1.04-.35-.2-.71-.17-1.05.14-.74.69-1.47,1.4-2.2,2.1-.05.05-.1.1-.19.18v-.2c0-.76,0-1.51,0-2.27,0-.82-.02-1.64-.05-2.46-.03-.68-.28-.98-.85-1.1-.44-.09-1.03.32-1.08.77-.04.34-.06.67-.06,1.01-.01,1.34-.02,2.68-.02,4.03v.22c-.07-.06-.11-.1-.14-.13-.34-.34-.68-.69-1.03-1.03-.43-.41-.86-.81-1.31-1.19-.33-.28-.81-.23-1.14.08-.3.28-.45.87-.18,1.2.15.18.3.37.47.54,1.07,1.09,2.15,2.18,3.23,3.27.05.05.1.14.1.21,0,1.46,0,2.92-.02,4.37,0,.11-.01.22-.02.35-.1-.05-.18-.09-.25-.13-1.07-.61-2.15-1.22-3.22-1.83-.22-.13-.51-.22-.65-.41s-.15-.49-.22-.74c-.4-1.45-.8-2.91-1.21-4.36-.13-.46-.38-.64-.84-.67-.56-.04-1.08.37-1.02.98.01.12.02.24.05.36.2.8.4,1.61.6,2.41.04.17.08.33.12.53-.08-.04-.14-.06-.19-.09-.43-.24-.86-.47-1.29-.71-1.02-.56-2.03-1.13-3.04-1.69-.21-.12-.43-.13-.64-.02-.17.09-.34.2-.47.34-.37.42-.28,1.03.18,1.34.1.07.19.13.29.19,1.26.75,2.52,1.5,3.78,2.25.09.05.18.11.3.19-.2.07-.37.14-.54.19-.85.25-1.7.51-2.55.74-.33.09-.5.31-.6.6-.26.75.45,1.44,1.04,1.26.22-.06.45-.09.68-.15,1.44-.37,2.87-.74,4.31-1.1.1-.03.24-.01.33.04,1.28.71,2.56,1.44,3.83,2.16.05.03.1.07.16.12-.17.12-.32.23-.48.32-1.18.7-2.36,1.39-3.54,2.08-.05.03-.13.04-.19.02-.78-.2-1.56-.42-2.34-.62-.91-.24-1.83-.47-2.74-.69-.22-.05-.43-.02-.62.1-.33.22-.53.52-.52.92.01.38.24.63.58.78.12.05.24.11.37.14.63.18,1.27.36,1.9.54.28.08.56.16.88.25-.08.07-.13.11-.19.15-.22.14-.43.29-.65.42-.96.57-1.93,1.14-2.89,1.71-.26.16-.52.33-.75.53-.35.31-.38.71-.13,1.12.26.42.59.57,1.04.41.26-.09.52-.21.76-.34,1.05-.59,2.1-1.18,3.14-1.78.24-.13.48-.26.75-.41-.02.09-.02.15-.04.2-.24.96-.48,1.91-.73,2.87-.12.44.03.76.35,1.04.47.41,1.34.2,1.46-.39.02-.12.08-.23.11-.35.44-1.55.87-3.11,1.3-4.66.03-.13.09-.21.21-.27,1.28-.73,2.55-1.47,3.82-2.21.04-.03.09-.05.15-.08,0,.05,0,.08,0,.11.01,1.52.03,3.04.04,4.57,0,.08-.05.17-.1.23-1.15,1.17-2.31,2.33-3.47,3.5q-.4.41-.36.98c.01.19.08.34.21.49.34.39,1.01.48,1.42.09.72-.7,1.44-1.39,2.17-2.09.04-.04.08-.07.15-.14v.22c0,1.39,0,2.78.02,4.17,0,.3.05.6.09.9.04.28.2.47.46.59.11.05.23.11.34.16h.25c.09-.04.18-.09.27-.13.35-.13.52-.4.55-.76.03-.32.06-.64.07-.96.01-1.33.01-2.65.02-3.98,0-.06,0-.12,0-.18.02,0,.04-.02.06-.02.04.05.07.11.12.15.73.7,1.44,1.41,2.19,2.09.52.48,1.35.21,1.55-.47.1-.35.04-.67-.22-.94-1.19-1.22-2.38-2.45-3.57-3.67-.08-.08-.11-.15-.11-.26.02-1.51.03-3.02.04-4.53,0-.03,0-.07,0-.12.04.02.05.02.07.03,1.32.77,2.65,1.53,3.97,2.3.05.03.09.1.11.16.12.42.23.85.34,1.27.35,1.24.7,2.49,1.05,3.73.1.35.34.55.67.64.71.19,1.36-.43,1.19-1.14-.24-.98-.49-1.95-.74-2.93-.01-.06-.02-.12-.03-.2.09.05.16.08.22.12.93.53,1.85,1.06,2.78,1.58.53.29,1.07.58,1.62.82.41.18.72.06.99-.29.29-.39.32-.75.06-1.11Zm-54.68,0c-.08-.11-.18-.2-.28-.27-.21-.15-.43-.3-.66-.44-1.16-.69-2.33-1.38-3.49-2.07-.06-.04-.12-.08-.21-.14.27-.08.5-.15.73-.21.81-.23,1.61-.46,2.42-.7.13-.04.27-.11.35-.2.36-.45.4-.88.03-1.3-.07-.08-.15-.15-.23-.22-.15-.13-.32-.18-.51-.13-.52.12-1.04.22-1.56.35-1.22.31-2.44.64-3.66.96-.06.02-.14.02-.19-.01-1.22-.71-2.43-1.43-3.64-2.15-.12-.07-.24-.17-.37-.27.06-.05.1-.08.15-.11,1.28-.72,2.56-1.45,3.85-2.17.09-.05.22-.06.32-.03.63.15,1.25.31,1.87.47,1.01.25,2.01.51,3.02.76.57.14,1.03-.15,1.17-.71.12-.47-.15-.96-.6-1.12-.16-.05-.32-.11-.48-.15-.77-.22-1.54-.44-2.31-.67-.09-.03-.17-.08-.29-.13.08-.06.12-.09.17-.12.23-.14.45-.27.68-.41,1.14-.68,2.28-1.37,3.42-2.05.39-.23.5-.58.44-1-.08-.58-.78-.96-1.3-.7-.24.12-.48.25-.71.38-1.17.66-2.35,1.32-3.52,1.98-.08.04-.16.08-.27.13,0-.06.01-.08.02-.11.13-.51.26-1.01.38-1.52.12-.52.25-1.04.35-1.56.1-.54-.19-.94-.71-1.06-.54-.13-.98.12-1.15.64-.03.1-.07.2-.09.3-.42,1.55-.85,3.09-1.27,4.64-.02.09-.08.19-.15.24-1.09.64-2.19,1.27-3.29,1.9-.24.14-.48.26-.74.41,0-.17-.02-.32-.02-.47,0-1.42-.01-2.83-.01-4.25,0-.08.05-.17.11-.23.95-.97,1.91-1.93,2.87-2.89.27-.27.53-.56.78-.85.08-.1.15-.23.18-.36.07-.4-.15-.84-.5-1.04-.35-.2-.71-.17-1.05.14-.74.69-1.47,1.4-2.2,2.1-.05.05-.1.1-.19.18v-.2c0-.76,0-1.51,0-2.27,0-.82-.02-1.64-.05-2.46-.03-.68-.28-.98-.85-1.1-.44-.09-1.03.32-1.08.77-.03.34-.06.67-.06,1.01-.01,1.34-.02,2.68-.02,4.03v.22c-.07-.06-.11-.1-.14-.13-.34-.34-.68-.69-1.03-1.03-.43-.41-.86-.81-1.31-1.19-.33-.28-.81-.23-1.14.08-.3.28-.45.87-.18,1.2.15.18.3.37.47.54,1.07,1.09,2.15,2.18,3.23,3.27.05.05.1.14.1.21,0,1.46,0,2.92-.02,4.37,0,.11-.01.22-.02.35-.1-.05-.18-.09-.25-.13-1.07-.61-2.15-1.22-3.22-1.83-.22-.13-.51-.22-.65-.41s-.15-.49-.22-.74c-.4-1.45-.8-2.91-1.21-4.36-.13-.46-.38-.64-.84-.67-.56-.04-1.08.37-1.02.98.01.12.02.24.05.36.2.8.4,1.61.6,2.41.04.17.08.33.12.53-.08-.04-.14-.06-.19-.09-.43-.24-.86-.47-1.29-.71-1.02-.56-2.03-1.13-3.04-1.69-.21-.12-.43-.13-.64-.02-.17.09-.34.2-.47.34-.37.42-.28,1.03.18,1.34.1.07.19.13.29.19,1.26.75,2.52,1.5,3.79,2.25.09.05.18.11.3.19-.2.07-.37.14-.54.19-.85.25-1.7.51-2.55.74-.33.09-.5.31-.6.6-.26.75.45,1.44,1.04,1.26.22-.06.45-.09.68-.15,1.44-.37,2.87-.74,4.31-1.1.1-.03.24-.01.33.04,1.28.71,2.56,1.44,3.83,2.16.05.03.1.07.16.12-.17.12-.32.23-.48.32-1.18.7-2.36,1.39-3.54,2.08-.05.03-.13.04-.19.02-.78-.2-1.56-.42-2.34-.62-.91-.24-1.83-.47-2.74-.69-.22-.05-.43-.02-.62.1-.33.22-.53.52-.52.92.01.38.24.63.58.78.12.05.24.11.37.14.63.18,1.27.36,1.9.54.28.08.56.16.88.25-.08.07-.13.11-.19.15-.22.14-.43.29-.65.42-.96.57-1.93,1.14-2.89,1.71-.26.16-.52.33-.75.53-.35.31-.38.71-.13,1.12.26.42.59.57,1.04.41.26-.09.52-.21.76-.34,1.05-.59,2.1-1.18,3.14-1.78.24-.13.48-.26.75-.41-.02.09-.02.15-.04.2-.24.96-.48,1.91-.73,2.87-.12.44.03.76.35,1.04.47.41,1.34.2,1.46-.39.02-.12.08-.23.11-.35.44-1.55.87-3.11,1.3-4.66.04-.13.09-.21.21-.27,1.28-.73,2.55-1.47,3.82-2.21.04-.03.09-.05.15-.08,0,.05,0,.08,0,.11.01,1.52.03,3.04.04,4.57,0,.08-.05.17-.1.23-1.15,1.17-2.31,2.33-3.47,3.5q-.4.41-.36.98c.01.19.08.34.21.49.34.39,1.01.48,1.42.09.72-.7,1.44-1.39,2.17-2.09.04-.04.08-.07.15-.14v.22c0,1.39,0,2.78.02,4.17,0,.3.05.6.09.9.04.28.2.47.45.59.11.05.23.11.34.16h.25c.09-.04.18-.09.27-.13.35-.13.52-.4.55-.76.03-.32.06-.64.07-.96.01-1.33.01-2.65.02-3.98,0-.06,0-.12,0-.18.02,0,.04-.02.06-.02.04.05.07.11.12.15.73.7,1.44,1.41,2.19,2.09.52.48,1.35.21,1.55-.47.1-.35.04-.67-.22-.94-1.19-1.22-2.38-2.45-3.57-3.67-.08-.08-.11-.15-.11-.26.02-1.51.03-3.02.04-4.53,0-.03,0-.07,0-.12.04.02.05.02.07.03,1.33.77,2.65,1.53,3.97,2.3.05.03.09.1.11.16.12.42.23.85.34,1.27.35,1.24.7,2.49,1.05,3.73.1.35.34.55.67.64.71.19,1.36-.43,1.19-1.14-.24-.98-.49-1.95-.74-2.93-.01-.06-.02-.12-.03-.2.09.05.16.08.22.12.93.53,1.85,1.06,2.78,1.58.53.29,1.07.58,1.62.82.41.18.72.06.99-.29.29-.39.32-.75.06-1.11Zm-2.67,89.35c.53.29,1.07.58,1.62.82.41.18.72.06.99-.29.29-.39.32-.75.06-1.11-.08-.11-.18-.2-.28-.27-.21-.15-.43-.3-.66-.44-1.16-.69-2.33-1.38-3.49-2.07-.06-.04-.12-.08-.21-.14.27-.08.5-.15.73-.21.81-.23,1.61-.46,2.42-.7.13-.04.27-.11.35-.2.36-.45.4-.88.03-1.3-.07-.08-.15-.15-.23-.22-.15-.13-.32-.18-.51-.13-.52.12-1.04.22-1.56.35-1.22.31-2.44.64-3.66.96-.06.02-.14.02-.19-.01-1.22-.71-2.43-1.43-3.64-2.15-.12-.07-.24-.17-.37-.27.06-.05.1-.08.15-.11,1.28-.72,2.56-1.45,3.85-2.17.09-.05.22-.06.32-.03.63.15,1.25.31,1.87.47,1.01.25,2.01.51,3.02.76.57.14,1.03-.15,1.17-.71.12-.47-.15-.96-.6-1.12-.16-.05-.32-.11-.48-.15-.77-.22-1.54-.44-2.31-.67-.09-.03-.17-.08-.29-.13.08-.06.12-.09.17-.12.23-.14.45-.27.68-.41,1.14-.68,2.28-1.37,3.42-2.05.39-.23.5-.58.44-1-.08-.58-.78-.96-1.3-.7-.24.12-.48.25-.71.38-1.17.66-2.35,1.32-3.52,1.98-.08.04-.16.08-.27.13,0-.06.01-.08.02-.11.13-.51.26-1.01.38-1.52.12-.52.25-1.04.35-1.56.1-.54-.19-.94-.71-1.06-.54-.13-.98.12-1.15.64-.03.1-.07.2-.09.3-.42,1.55-.85,3.09-1.27,4.64-.02.09-.08.19-.15.24-1.09.64-2.19,1.27-3.29,1.9-.24.14-.48.26-.74.41,0-.17-.02-.32-.02-.47,0-1.42-.01-2.83-.01-4.25,0-.08.05-.17.11-.23.95-.97,1.91-1.93,2.87-2.89.27-.27.53-.56.78-.85.08-.1.15-.23.18-.36.07-.4-.15-.84-.5-1.04-.35-.2-.71-.17-1.05.14-.74.69-1.47,1.4-2.2,2.1-.05.05-.1.1-.19.18v-.2c0-.76,0-1.51,0-2.27,0-.82-.02-1.64-.05-2.46-.03-.68-.28-.98-.85-1.1-.44-.09-1.03.32-1.08.77-.03.34-.06.67-.06,1.01-.01,1.34-.02,2.68-.02,4.03v.22c-.07-.06-.11-.1-.14-.13-.34-.34-.68-.69-1.03-1.03-.43-.41-.86-.81-1.31-1.19-.33-.28-.81-.23-1.14.08-.3.28-.45.87-.18,1.2.15.18.3.37.47.54,1.07,1.09,2.15,2.18,3.23,3.27.05.05.1.14.1.21,0,1.46,0,2.92-.02,4.37,0,.11-.01.22-.02.35-.1-.05-.18-.09-.25-.13-1.07-.61-2.15-1.22-3.22-1.83-.22-.13-.51-.22-.65-.41-.15-.19-.15-.49-.22-.74-.4-1.45-.8-2.91-1.21-4.36-.13-.46-.38-.64-.84-.67-.56-.04-1.08.37-1.02.98.01.12.02.24.05.36.2.8.4,1.61.6,2.41.04.17.08.33.12.53-.08-.04-.14-.06-.19-.09-.43-.24-.86-.47-1.29-.71-1.02-.56-2.03-1.13-3.04-1.69-.21-.12-.43-.13-.64-.02-.17.09-.34.2-.47.34-.37.42-.28,1.03.18,1.34.1.07.19.13.29.19,1.26.75,2.52,1.5,3.79,2.25.09.05.18.11.3.19-.2.07-.37.14-.54.19-.85.25-1.7.51-2.55.74-.33.09-.5.31-.6.6-.26.75.45,1.44,1.04,1.26.22-.06.45-.09.68-.15,1.44-.37,2.87-.74,4.31-1.1.1-.03.24-.01.33.04,1.28.71,2.56,1.44,3.83,2.16.05.03.1.07.16.12-.17.12-.32.23-.48.32-1.18.7-2.36,1.39-3.54,2.08-.05.03-.13.04-.19.02-.78-.2-1.56-.42-2.34-.62-.91-.24-1.83-.47-2.74-.69-.22-.05-.43-.02-.62.1-.33.22-.53.52-.52.92.01.38.24.63.58.78.12.05.24.11.37.14.63.18,1.27.36,1.9.54.28.08.56.16.88.25-.08.07-.13.11-.19.15-.22.14-.43.29-.65.42-.96.57-1.93,1.14-2.89,1.71-.26.16-.52.33-.75.53-.35.31-.38.71-.13,1.12.26.42.59.57,1.04.41.26-.09.52-.21.76-.34,1.05-.59,2.1-1.18,3.14-1.78.24-.13.48-.26.75-.41-.02.09-.02.15-.04.2-.24.96-.48,1.91-.73,2.87-.12.44.03.76.35,1.04.47.41,1.34.2,1.46-.39.02-.12.08-.23.11-.35.44-1.55.87-3.11,1.3-4.66.04-.13.09-.21.21-.27,1.28-.73,2.55-1.47,3.82-2.21.04-.03.09-.05.15-.08,0,.05,0,.08,0,.11.01,1.52.03,3.04.04,4.57,0,.08-.05.17-.1.23-1.15,1.17-2.31,2.33-3.47,3.5q-.4.41-.36.98c.01.19.08.34.21.49.34.39,1.01.48,1.42.09.72-.7,1.44-1.39,2.17-2.09.04-.04.08-.07.15-.14v.22c0,1.39,0,2.78.02,4.17,0,.3.05.6.09.9.04.28.2.47.45.59.11.05.23.11.34.16h.25c.09-.04.18-.09.27-.13.35-.13.52-.4.55-.76.03-.32.06-.64.07-.96.01-1.33.01-2.65.02-3.98,0-.06,0-.12,0-.18.02,0,.04-.02.06-.02.04.05.07.11.12.15.73.7,1.44,1.41,2.19,2.09.52.48,1.35.21,1.55-.47.1-.35.04-.67-.22-.94-1.19-1.22-2.38-2.45-3.57-3.67-.08-.08-.11-.15-.11-.26.02-1.51.03-3.02.04-4.53,0-.03,0-.07,0-.12.04.02.05.02.07.03,1.33.77,2.65,1.53,3.97,2.3.05.03.09.1.11.16.12.42.23.85.34,1.27.35,1.24.7,2.49,1.05,3.73.1.35.34.55.67.64.71.19,1.36-.43,1.19-1.14-.24-.98-.49-1.95-.74-2.93-.01-.06-.02-.12-.03-.2.09.05.16.08.22.12.93.53,1.85,1.06,2.78,1.58Zm32.54-172.84c-.22-.05-.43-.02-.62.1-.33.22-.53.52-.52.92.01.38.24.63.58.78.12.05.24.11.37.14.63.18,1.27.36,1.9.54.28.08.56.16.88.25-.08.07-.13.11-.19.15-.22.14-.43.29-.65.42-.96.57-1.93,1.14-2.89,1.71-.26.16-.52.33-.75.53-.35.31-.38.71-.13,1.12.26.42.59.57,1.04.41.26-.09.52-.21.76-.34,1.05-.59,2.1-1.18,3.14-1.78.24-.13.48-.26.75-.41-.02.09-.02.15-.04.2-.24.96-.48,1.91-.73,2.87-.12.44.03.76.35,1.04.47.41,1.34.2,1.46-.39.02-.12.08-.23.11-.35.44-1.55.87-3.11,1.3-4.66.03-.13.09-.21.21-.27.33-.19.66-.38.99-.57-.78-.39-1.57-.76-2.36-1.13-.75-.2-1.49-.4-2.24-.59-.91-.24-1.83-.47-2.74-.69Zm-2.53,43.97c-.08-.11-.18-.2-.28-.27-.21-.15-.43-.3-.66-.44-1.16-.69-2.33-1.38-3.49-2.07-.06-.04-.12-.08-.21-.14.27-.08.5-.15.73-.21.81-.23,1.61-.46,2.42-.7.13-.04.27-.11.35-.2.36-.45.4-.88.03-1.3-.07-.08-.15-.15-.23-.22-.15-.13-.32-.18-.51-.13-.52.12-1.04.22-1.56.35-1.22.31-2.44.64-3.66.96-.06.02-.14.02-.19-.01-1.22-.71-2.43-1.43-3.64-2.15-.12-.07-.24-.17-.37-.27.06-.05.1-.08.15-.11,1.28-.72,2.56-1.45,3.85-2.17.09-.05.22-.06.32-.03.63.15,1.25.31,1.87.47,1.01.25,2.01.51,3.02.76.57.14,1.03-.15,1.17-.71.12-.47-.15-.96-.6-1.12-.16-.05-.32-.11-.48-.15-.77-.22-1.54-.44-2.31-.67-.09-.03-.17-.08-.29-.13.08-.06.12-.09.17-.12.23-.14.45-.27.68-.41,1.14-.68,2.28-1.37,3.42-2.05.39-.23.5-.58.44-1-.08-.58-.78-.96-1.3-.7-.24.12-.48.25-.71.38-1.17.66-2.35,1.32-3.52,1.98-.08.04-.16.08-.27.13,0-.06,0-.08.02-.11.13-.51.26-1.01.38-1.52.12-.52.25-1.04.35-1.56.1-.54-.19-.94-.71-1.06-.54-.13-.98.12-1.15.64-.03.1-.07.2-.09.3-.42,1.55-.85,3.09-1.27,4.64-.02.09-.08.19-.15.24-1.09.64-2.19,1.27-3.29,1.9-.24.14-.48.26-.74.41,0-.17-.02-.32-.02-.47,0-1.42-.01-2.83-.01-4.25,0-.08.05-.17.1-.23.95-.97,1.91-1.93,2.87-2.89.27-.27.53-.56.78-.85.08-.1.15-.23.18-.36.07-.4-.15-.84-.5-1.04-.35-.2-.71-.17-1.05.14-.74.69-1.47,1.4-2.2,2.1-.05.05-.1.1-.19.18v-.2c0-.76,0-1.51,0-2.27,0-.82-.02-1.64-.05-2.46-.03-.68-.28-.98-.85-1.1-.44-.09-1.03.32-1.08.77-.03.34-.06.67-.06,1.01-.01,1.34-.02,2.68-.02,4.03v.22c-.07-.06-.11-.1-.14-.13-.34-.34-.68-.69-1.03-1.03-.43-.41-.86-.81-1.31-1.19-.33-.28-.81-.23-1.14.08-.3.28-.45.87-.18,1.2.15.18.3.37.47.54,1.07,1.09,2.15,2.18,3.23,3.27.05.05.1.14.1.21,0,1.46,0,2.92-.02,4.37,0,.11-.01.22-.02.35-.1-.05-.18-.09-.25-.13-1.07-.61-2.15-1.22-3.22-1.83-.22-.13-.51-.22-.65-.41-.15-.19-.15-.49-.22-.74-.4-1.45-.8-2.91-1.21-4.36-.13-.46-.38-.64-.84-.67-.56-.04-1.08.37-1.02.98.01.12.02.24.05.36.2.8.4,1.61.6,2.41.04.17.08.33.12.53-.08-.04-.14-.06-.19-.09-.43-.24-.86-.47-1.29-.71-1.02-.56-2.03-1.13-3.04-1.69-.21-.12-.43-.13-.64-.02-.17.09-.34.2-.47.34-.37.42-.28,1.03.18,1.34.1.07.19.13.29.19,1.26.75,2.52,1.5,3.79,2.25.09.05.18.11.3.19-.2.07-.37.14-.54.19-.85.25-1.7.51-2.55.74-.33.09-.5.31-.6.6-.26.75.45,1.44,1.04,1.26.22-.06.45-.09.68-.15,1.44-.37,2.87-.74,4.31-1.1.1-.03.24-.01.33.04,1.28.71,2.56,1.44,3.83,2.16.05.03.1.07.16.12-.17.12-.32.23-.48.32-1.18.7-2.36,1.39-3.54,2.08-.05.03-.13.04-.19.02-.78-.2-1.56-.42-2.34-.62-.91-.24-1.83-.47-2.74-.69-.22-.05-.43-.02-.62.1-.33.22-.53.52-.52.92.01.38.24.63.58.78.12.05.24.11.37.14.63.18,1.27.36,1.9.54.28.08.56.16.88.25-.08.07-.13.11-.19.15-.22.14-.43.29-.65.42-.96.57-1.93,1.14-2.89,1.71-.26.16-.52.33-.75.53-.35.31-.38.71-.13,1.12.26.42.59.57,1.04.41.26-.09.52-.21.76-.34,1.05-.59,2.1-1.18,3.14-1.78.24-.13.48-.26.75-.41-.02.09-.02.15-.04.2-.24.96-.48,1.91-.73,2.87-.12.44.03.76.35,1.04.47.41,1.34.2,1.46-.39.02-.12.08-.23.11-.35.44-1.55.87-3.11,1.3-4.66.04-.13.09-.21.21-.27,1.28-.73,2.55-1.47,3.82-2.21.04-.03.09-.05.15-.08,0,.05,0,.08,0,.11.01,1.52.03,3.04.04,4.57,0,.08-.05.17-.1.23-1.15,1.17-2.31,2.33-3.47,3.5q-.4.41-.36.98c.01.19.08.34.21.49.34.39,1.01.48,1.42.09.72-.7,1.44-1.39,2.17-2.09.04-.04.08-.07.15-.14v.22c0,1.39,0,2.78.02,4.17,0,.3.05.6.09.9.04.28.2.47.46.59.11.05.23.11.34.16h.25c.09-.04.18-.09.27-.13.35-.13.52-.4.55-.76.03-.32.06-.64.07-.96.01-1.33.01-2.65.02-3.98,0-.06,0-.12,0-.18.02,0,.04-.01.06-.02.04.05.07.11.12.15.73.7,1.44,1.41,2.19,2.09.52.48,1.35.21,1.55-.47.1-.35.04-.67-.22-.94-1.19-1.22-2.38-2.45-3.57-3.67-.08-.08-.11-.15-.11-.26.02-1.51.03-3.02.04-4.53,0-.03,0-.07,0-.12.04.02.05.02.07.03,1.32.77,2.65,1.53,3.97,2.3.05.03.09.1.11.16.12.42.23.85.34,1.27.35,1.24.7,2.49,1.05,3.73.1.35.34.55.67.64.71.19,1.36-.43,1.19-1.14-.24-.98-.49-1.95-.74-2.93-.01-.06-.02-.12-.03-.2.09.05.16.08.22.12.93.53,1.85,1.06,2.78,1.58.53.29,1.07.58,1.62.82.41.18.72.06.99-.29.29-.39.32-.75.06-1.11Zm-2.67,84.58c.53.29,1.07.58,1.62.82.41.18.72.06.99-.29.29-.39.32-.75.06-1.11-.08-.11-.18-.2-.28-.27-.21-.15-.43-.3-.66-.44-1.16-.69-2.33-1.38-3.49-2.07-.06-.04-.12-.08-.21-.14.27-.08.5-.15.73-.21.81-.23,1.61-.46,2.42-.7.13-.04.27-.11.35-.2.36-.45.4-.88.03-1.3-.07-.08-.15-.15-.23-.22-.15-.13-.32-.18-.51-.13-.52.12-1.04.22-1.56.35-1.22.31-2.44.64-3.66.96-.06.02-.14.02-.19-.01-1.22-.71-2.43-1.43-3.64-2.15-.12-.07-.24-.17-.37-.27.06-.05.1-.08.15-.11,1.28-.72,2.56-1.45,3.85-2.17.09-.05.22-.06.32-.03.63.15,1.25.31,1.87.47,1.01.25,2.01.51,3.02.76.57.14,1.03-.15,1.17-.71.12-.47-.15-.96-.6-1.12-.16-.05-.32-.11-.48-.15-.77-.22-1.54-.44-2.31-.67-.09-.03-.17-.08-.29-.13.08-.06.12-.09.17-.12.23-.14.45-.27.68-.41,1.14-.68,2.28-1.37,3.42-2.05.39-.23.5-.58.44-1-.08-.58-.78-.96-1.3-.7-.24.12-.48.25-.71.38-1.17.66-2.35,1.32-3.52,1.98-.08.04-.16.08-.27.13,0-.06,0-.08.02-.11.13-.51.26-1.01.38-1.52.12-.52.25-1.04.35-1.56.1-.54-.19-.94-.71-1.06-.54-.13-.98.12-1.15.64-.03.1-.07.2-.09.3-.42,1.55-.85,3.09-1.27,4.64-.02.09-.08.19-.15.24-1.09.64-2.19,1.27-3.29,1.9-.24.14-.48.26-.74.41,0-.17-.02-.32-.02-.47,0-1.42-.01-2.83-.01-4.25,0-.08.05-.17.1-.23.95-.97,1.91-1.93,2.87-2.89.27-.27.53-.56.78-.85.08-.1.15-.23.18-.36.07-.4-.15-.84-.5-1.04-.35-.2-.71-.17-1.05.14-.74.69-1.47,1.4-2.2,2.1-.05.05-.1.1-.19.18v-.2c0-.76,0-1.51,0-2.27,0-.82-.02-1.64-.05-2.46-.03-.68-.28-.98-.85-1.1-.44-.09-1.03.32-1.08.77-.03.34-.06.67-.06,1.01-.01,1.34-.02,2.68-.02,4.03v.22c-.07-.06-.11-.1-.14-.13-.34-.34-.68-.69-1.03-1.03-.43-.41-.86-.81-1.31-1.19-.33-.28-.81-.23-1.14.08-.3.28-.45.87-.18,1.2.15.18.3.37.47.54,1.07,1.09,2.15,2.18,3.23,3.27.05.05.1.14.1.21,0,1.46,0,2.92-.02,4.37,0,.11-.01.22-.02.35-.1-.05-.18-.09-.25-.13-1.07-.61-2.15-1.22-3.22-1.83-.22-.13-.51-.22-.65-.41s-.15-.49-.22-.74c-.4-1.45-.8-2.91-1.21-4.36-.13-.46-.38-.64-.84-.67-.56-.04-1.08.37-1.02.98.01.12.02.24.05.36.2.8.4,1.61.6,2.41.04.17.08.33.12.53-.08-.04-.14-.06-.19-.09-.43-.24-.86-.47-1.29-.71-1.02-.56-2.03-1.13-3.04-1.69-.21-.12-.43-.13-.64-.02-.17.09-.34.2-.47.34-.37.42-.28,1.03.18,1.34.1.07.19.13.29.19,1.26.75,2.52,1.5,3.79,2.25.09.05.18.11.3.19-.2.07-.37.14-.54.19-.85.25-1.7.51-2.55.74-.33.09-.5.31-.6.6-.26.75.45,1.44,1.04,1.26.22-.06.45-.09.68-.15,1.44-.37,2.87-.74,4.31-1.1.1-.03.24-.01.33.04,1.28.71,2.56,1.44,3.83,2.16.05.03.1.07.16.12-.17.12-.32.23-.48.32-1.18.7-2.36,1.39-3.54,2.08-.05.03-.13.04-.19.02-.78-.2-1.56-.42-2.34-.62-.91-.24-1.83-.47-2.74-.69-.22-.05-.43-.02-.62.1-.33.22-.53.52-.52.92.01.38.24.63.58.78.12.05.24.11.37.14.63.18,1.27.36,1.9.54.28.08.56.16.88.25-.08.07-.13.11-.19.15-.22.14-.43.29-.65.42-.96.57-1.93,1.14-2.89,1.71-.26.16-.52.33-.75.53-.35.31-.38.71-.13,1.12.26.42.59.57,1.04.41.26-.09.52-.21.76-.34,1.05-.59,2.1-1.18,3.14-1.78.24-.13.48-.26.75-.41-.02.09-.02.15-.04.2-.24.96-.48,1.91-.73,2.87-.12.44.03.76.35,1.04.47.41,1.34.2,1.46-.39.02-.12.08-.23.11-.35.44-1.55.87-3.11,1.3-4.66.04-.13.09-.21.21-.27,1.28-.73,2.55-1.47,3.82-2.21.04-.03.09-.05.15-.08,0,.05,0,.08,0,.11.01,1.52.03,3.04.04,4.57,0,.08-.05.17-.1.23-1.15,1.17-2.31,2.33-3.47,3.5q-.4.41-.36.98c.01.19.08.34.21.49.34.39,1.01.48,1.42.09.72-.7,1.44-1.39,2.17-2.09.04-.04.08-.07.15-.14v.22c0,1.39,0,2.78.02,4.17,0,.3.05.6.09.9.04.28.2.47.46.59.11.05.23.11.34.16h.25c.09-.04.18-.09.27-.13.35-.13.52-.4.55-.76.03-.32.06-.64.07-.96.01-1.33.01-2.65.02-3.98,0-.06,0-.12,0-.18.02,0,.04-.02.06-.02.04.05.07.11.12.15.73.7,1.44,1.41,2.19,2.09.52.48,1.35.21,1.55-.47.1-.35.04-.67-.22-.94-1.19-1.22-2.38-2.45-3.57-3.67-.08-.08-.11-.15-.11-.26.02-1.51.03-3.02.04-4.53,0-.03,0-.07,0-.12.04.02.05.02.07.03,1.32.77,2.65,1.53,3.97,2.3.05.03.09.1.11.16.12.42.23.85.34,1.27.35,1.24.7,2.49,1.05,3.73.1.35.34.55.67.64.71.19,1.36-.43,1.19-1.14-.24-.98-.49-1.95-.74-2.93-.01-.06-.02-.12-.03-.2.09.05.16.08.22.12.93.53,1.85,1.06,2.78,1.58Zm70.25-61.3c-.07-.06-.11-.1-.14-.13-.34-.34-.68-.69-1.03-1.03-.43-.41-.86-.81-1.31-1.19-.33-.28-.81-.23-1.14.08-.3.28-.45.87-.18,1.2.15.18.3.37.47.54,1.07,1.09,2.15,2.18,3.23,3.27.05.05.1.14.1.21,0,1.46,0,2.92-.02,4.37,0,.11-.01.22-.02.35-.1-.05-.18-.09-.25-.13-1.07-.61-2.15-1.22-3.22-1.83-.22-.13-.51-.22-.65-.41s-.15-.49-.22-.74c-.4-1.45-.8-2.91-1.21-4.36-.13-.46-.38-.64-.84-.67-.56-.04-1.08.37-1.02.98.01.12.02.24.05.36.2.8.4,1.61.6,2.41.04.17.08.33.12.53-.08-.04-.14-.06-.19-.09-.43-.24-.86-.47-1.29-.71-1.01-.56-2.03-1.13-3.04-1.69-.21-.12-.43-.13-.64-.02-.17.09-.34.2-.47.34-.37.42-.28,1.03.18,1.34.1.07.19.13.29.19,1.26.75,2.52,1.5,3.78,2.25.09.05.18.11.3.19-.2.07-.37.14-.54.19-.85.25-1.7.51-2.55.74-.33.09-.5.31-.6.6-.26.75.45,1.44,1.04,1.26.22-.06.45-.09.68-.15,1.44-.37,2.87-.74,4.31-1.1.1-.03.24-.01.33.04,1.28.71,2.56,1.44,3.83,2.16.05.03.1.07.16.12-.17.12-.32.23-.48.32-1.18.7-2.36,1.39-3.54,2.08-.05.03-.13.04-.19.02-.78-.2-1.56-.42-2.34-.62-.91-.24-1.83-.47-2.74-.69-.22-.05-.43-.02-.62.1-.33.22-.53.52-.52.92.01.38.24.63.58.78.12.05.24.11.37.14.63.18,1.27.36,1.9.54.28.08.56.16.88.25-.08.07-.13.11-.19.15-.22.14-.43.29-.65.42-.96.57-1.93,1.14-2.89,1.71-.26.16-.52.33-.75.53-.35.31-.38.71-.13,1.12.26.42.59.57,1.04.41.26-.09.52-.21.76-.34,1.05-.59,2.1-1.18,3.14-1.78.24-.13.48-.26.75-.41-.02.09-.02.15-.04.2-.24.96-.48,1.91-.73,2.87-.12.44.03.76.35,1.04.47.41,1.34.2,1.46-.39.02-.12.08-.23.11-.35.44-1.55.87-3.11,1.3-4.66.03-.13.09-.21.21-.27,1.28-.73,2.55-1.47,3.82-2.21.04-.03.09-.05.15-.08,0,.05,0,.08,0,.11.01,1.52.03,3.04.04,4.57,0,.08-.05.17-.1.23-1.15,1.17-2.31,2.33-3.47,3.5q-.4.41-.36.98c.01.19.08.34.21.49.34.39,1.01.48,1.42.09.72-.7,1.44-1.39,2.17-2.09.04-.04.08-.07.15-.14v.22c0,1.39,0,2.78.02,4.17,0,.3.05.6.09.9.04.28.2.47.46.59.11.05.23.11.34.16h.25c.09-.04.18-.09.27-.13.35-.13.52-.4.55-.76.03-.32.06-.64.07-.96.01-1.33.01-2.65.02-3.98,0-.06,0-.12,0-.18.02,0,.04-.02.06-.02.04.05.07.11.12.15.73.7,1.44,1.41,2.19,2.09.52.48,1.35.21,1.55-.47.1-.35.04-.67-.22-.94-1.19-1.22-2.38-2.45-3.57-3.67-.08-.08-.11-.15-.11-.26.02-1.51.03-3.02.04-4.53,0-.03,0-.07,0-.12.04.02.05.02.07.03.95.55,1.9,1.1,2.84,1.65-.23-.93-.48-1.86-.73-2.78-.26-.15-.52-.3-.77-.46-.12-.07-.24-.17-.37-.27.06-.05.1-.08.15-.11.22-.12.44-.25.66-.37-.19-.67-.39-1.34-.6-2-.18.1-.35.2-.53.3-.24.14-.48.26-.74.41,0-.17-.02-.32-.02-.47,0-1.41-.01-2.82-.01-4.22-.64-1.86-1.33-3.7-2.06-5.51,0,.77,0,1.54-.01,2.31v.22Zm-34.79,62.67c-.12.44.03.76.35,1.04.47.41,1.34.2,1.46-.39.02-.12.08-.23.11-.35.44-1.55.87-3.11,1.3-4.66.03-.13.09-.21.21-.27,1.28-.73,2.55-1.47,3.82-2.21.04-.03.09-.05.15-.08,0,.05,0,.08,0,.11.01,1.52.03,3.04.04,4.57,0,.08-.05.17-.1.23-1.15,1.17-2.31,2.33-3.47,3.5q-.4.41-.36.98c.01.19.08.34.21.49.34.39,1.01.48,1.42.09.72-.7,1.44-1.39,2.17-2.09.04-.04.08-.07.15-.14v.22c0,1.39,0,2.78.02,4.17,0,.3.05.6.09.9.04.28.2.47.46.59.11.05.23.11.34.16h.25c.09-.04.18-.09.27-.13.35-.13.52-.4.55-.76.03-.32.06-.64.07-.96.01-1.33.01-2.65.02-3.98,0-.06,0-.12,0-.18.02,0,.04-.02.06-.02.04.05.07.11.12.15.73.7,1.44,1.41,2.19,2.09.52.48,1.35.21,1.55-.47.1-.35.04-.67-.22-.94-1.19-1.22-2.38-2.45-3.57-3.67-.08-.08-.11-.15-.11-.26.02-1.51.03-3.02.04-4.53,0-.03,0-.07,0-.12.04.02.05.02.07.03,1.32.77,2.65,1.53,3.97,2.3.05.03.09.1.11.16.12.42.23.85.34,1.27.35,1.24.7,2.49,1.05,3.73.1.35.34.55.67.64.71.19,1.36-.43,1.19-1.14-.24-.98-.49-1.95-.74-2.93-.01-.06-.02-.12-.03-.2.1.05.16.08.22.12.93.53,1.85,1.06,2.78,1.58.53.29,1.07.58,1.62.82.41.18.72.06.99-.29.29-.39.32-.75.06-1.11-.08-.11-.18-.2-.28-.27-.21-.15-.43-.3-.66-.44-1.16-.69-2.33-1.38-3.49-2.07-.06-.04-.12-.08-.21-.14.27-.08.5-.15.73-.21.81-.23,1.61-.46,2.42-.7.13-.04.27-.11.35-.2.36-.45.4-.88.03-1.3-.07-.08-.15-.15-.23-.22-.15-.13-.32-.18-.51-.13-.52.12-1.04.22-1.56.35-1.22.31-2.44.64-3.66.96-.06.02-.14.02-.19-.01-1.22-.71-2.43-1.43-3.64-2.15-.12-.07-.24-.17-.37-.27.06-.05.1-.08.15-.11,1.28-.72,2.56-1.45,3.85-2.17.09-.05.22-.06.32-.03.63.15,1.25.31,1.87.47,1.01.25,2.01.51,3.02.76.57.14,1.03-.15,1.17-.71.12-.47-.15-.96-.6-1.12-.16-.05-.32-.11-.48-.15-.77-.22-1.54-.44-2.31-.67-.09-.03-.17-.08-.29-.13.08-.06.12-.09.17-.12.23-.14.45-.27.68-.41,1.14-.68,2.28-1.37,3.42-2.05.39-.23.5-.58.44-1-.08-.58-.78-.96-1.3-.7-.24.12-.48.25-.71.38-1.17.66-2.35,1.32-3.52,1.98-.08.04-.16.08-.27.13,0-.06,0-.08.02-.11.13-.51.26-1.01.38-1.52.12-.52.25-1.04.35-1.56.1-.54-.19-.94-.71-1.06-.54-.13-.98.12-1.15.64-.03.1-.07.2-.09.3-.42,1.55-.85,3.09-1.27,4.64-.02.09-.08.19-.15.24-1.09.64-2.19,1.27-3.29,1.9-.24.14-.48.26-.74.41,0-.17-.02-.32-.02-.47,0-1.42-.01-2.83-.01-4.25,0-.08.05-.17.1-.23.95-.97,1.91-1.93,2.87-2.89.27-.27.53-.56.78-.85.08-.1.15-.23.18-.36.07-.4-.15-.84-.5-1.04-.35-.2-.71-.17-1.05.14-.74.69-1.47,1.4-2.2,2.1-.05.05-.1.1-.19.18v-.2c0-.76,0-1.51,0-2.27,0-.82-.02-1.64-.05-2.46-.03-.68-.28-.98-.85-1.1-.44-.09-1.03.32-1.08.77-.04.34-.06.67-.06,1.01-.01,1.34-.02,2.68-.02,4.03v.22c-.07-.06-.11-.1-.14-.13-.34-.34-.68-.69-1.03-1.03-.43-.41-.86-.81-1.31-1.19-.33-.28-.81-.23-1.14.08-.3.28-.45.87-.18,1.2.15.18.3.37.47.54,1.07,1.09,2.15,2.18,3.23,3.27.05.05.1.14.1.21,0,1.46,0,2.92-.02,4.37,0,.11-.01.22-.02.35-.1-.05-.18-.09-.25-.13-1.07-.61-2.15-1.22-3.22-1.83-.22-.13-.51-.22-.65-.41s-.15-.49-.22-.74c-.4-1.45-.8-2.91-1.21-4.36-.13-.46-.38-.64-.84-.67-.56-.04-1.08.37-1.02.98.01.12.02.24.05.36.2.8.4,1.61.6,2.41.04.17.08.33.12.53-.08-.04-.14-.06-.19-.09-.43-.24-.86-.47-1.29-.71-1.02-.56-2.03-1.13-3.04-1.69-.21-.12-.43-.13-.64-.02-.17.09-.34.2-.47.34-.37.42-.28,1.03.18,1.34.1.07.19.13.29.19,1.26.75,2.52,1.5,3.78,2.25.09.05.18.11.3.19-.2.07-.37.14-.54.19-.85.25-1.7.51-2.55.74-.33.09-.5.31-.6.6-.26.75.45,1.44,1.04,1.26.22-.06.45-.09.68-.15,1.44-.37,2.87-.74,4.31-1.1.1-.03.24-.01.33.04,1.28.71,2.56,1.44,3.83,2.16.05.03.1.07.16.12-.17.12-.32.23-.48.32-1.18.7-2.36,1.39-3.54,2.08-.05.03-.13.04-.19.02-.78-.2-1.56-.42-2.34-.62-.91-.24-1.83-.47-2.74-.69-.22-.05-.43-.02-.62.1-.33.22-.53.52-.52.92.01.38.24.63.58.78.12.05.24.11.37.14.63.18,1.27.36,1.9.54.28.08.56.16.88.25-.08.07-.13.11-.19.15-.22.14-.43.29-.65.42-.96.57-1.93,1.14-2.89,1.71-.26.16-.52.33-.75.53-.35.31-.38.71-.13,1.12.26.42.59.57,1.04.41.26-.09.52-.21.76-.34,1.05-.59,2.1-1.18,3.14-1.78.24-.13.48-.26.75-.41-.02.09-.02.15-.04.2-.24.96-.48,1.91-.73,2.87Zm-81.37-137.21c.04.17.08.33.12.53-.08-.04-.14-.06-.19-.09-.43-.24-.86-.47-1.29-.71-1.02-.56-2.03-1.13-3.04-1.69-.21-.12-.43-.13-.64-.02-.17.09-.34.2-.47.34-.37.42-.28,1.03.18,1.34.1.07.19.13.29.19,1.26.75,2.52,1.5,3.79,2.25.09.05.18.11.3.19-.2.07-.37.14-.54.19-.85.25-1.7.51-2.55.74-.33.09-.5.31-.6.6-.26.75.45,1.44,1.04,1.26.22-.06.45-.09.68-.15,1.44-.37,2.87-.74,4.31-1.1.1-.03.24-.01.33.04,1.28.71,2.56,1.44,3.83,2.16.05.03.1.07.16.12-.17.12-.32.23-.48.32-1.18.7-2.36,1.39-3.54,2.08-.05.03-.13.04-.19.02-.78-.2-1.56-.42-2.34-.62-.91-.24-1.83-.47-2.74-.69-.22-.05-.43-.02-.62.1-.33.22-.53.52-.52.92.01.38.24.63.58.78.12.05.24.11.37.14.63.18,1.27.36,1.9.54.28.08.56.16.88.25-.08.07-.13.11-.19.15-.22.14-.43.29-.65.42-.96.57-1.93,1.14-2.89,1.71-.26.16-.52.33-.75.53-.35.31-.38.71-.13,1.12.26.42.59.57,1.04.41.26-.09.52-.21.76-.34,1.05-.59,2.1-1.18,3.14-1.78.24-.13.48-.26.75-.41-.02.09-.02.15-.04.2-.24.96-.48,1.91-.73,2.87-.12.44.03.76.35,1.04.47.41,1.34.2,1.46-.39.02-.12.08-.23.11-.35.44-1.55.87-3.11,1.3-4.66.04-.13.09-.21.21-.27,1.28-.73,2.55-1.47,3.82-2.21.04-.03.09-.05.15-.08,0,.05,0,.08,0,.11.01,1.52.03,3.04.04,4.57,0,.08-.05.17-.1.23-1.15,1.17-2.31,2.33-3.47,3.5q-.4.41-.36.98c.01.19.08.34.21.49.34.39,1.01.48,1.42.09.72-.7,1.44-1.39,2.17-2.09.04-.04.08-.07.15-.14v.22c0,1.39,0,2.78.02,4.17,0,.3.05.6.09.9.04.28.2.47.45.59.11.05.23.11.34.16h.25c.09-.04.18-.09.27-.13.35-.13.52-.4.55-.76.03-.32.06-.64.07-.96.01-1.33.01-2.65.02-3.98,0-.06,0-.12,0-.18.02,0,.04-.02.06-.02.04.05.07.11.12.15.73.7,1.44,1.41,2.19,2.09.52.48,1.35.21,1.55-.47.1-.35.04-.67-.22-.94-1.19-1.22-2.38-2.45-3.57-3.67-.08-.08-.11-.15-.11-.26.02-1.51.03-3.02.04-4.53,0-.03,0-.07,0-.12.04.02.05.02.07.03,1.33.77,2.65,1.53,3.97,2.3.05.03.09.1.11.16.12.42.23.85.34,1.27.35,1.24.7,2.49,1.05,3.73.1.35.34.55.67.64.71.19,1.36-.43,1.19-1.14-.24-.98-.49-1.95-.74-2.93-.01-.06-.02-.12-.03-.2.09.05.16.08.22.12.93.53,1.85,1.06,2.78,1.58.53.29,1.07.58,1.62.82.41.18.72.06.99-.29.29-.39.32-.75.06-1.11-.08-.11-.18-.2-.28-.27-.21-.15-.43-.3-.66-.44-1.16-.69-2.33-1.38-3.49-2.07-.06-.04-.12-.08-.21-.14.27-.08.5-.15.73-.21.81-.23,1.61-.46,2.42-.7.13-.04.27-.11.35-.2.36-.45.4-.88.03-1.3-.07-.08-.15-.15-.23-.22-.15-.13-.32-.18-.51-.13-.52.12-1.04.22-1.56.35-1.22.31-2.44.64-3.66.96-.06.02-.14.02-.19-.01-1.22-.71-2.43-1.43-3.64-2.15-.12-.07-.24-.17-.37-.27.06-.05.1-.08.15-.11,1.28-.72,2.56-1.45,3.85-2.17.09-.05.22-.06.32-.03.63.15,1.25.31,1.87.47,1.01.25,2.01.51,3.02.76.57.14,1.03-.15,1.17-.71.12-.47-.15-.96-.6-1.12-.16-.05-.32-.11-.48-.15-.77-.22-1.54-.44-2.31-.67-.09-.03-.17-.08-.29-.13.08-.06.12-.09.17-.12.23-.14.45-.27.68-.41,1.14-.68,2.28-1.37,3.42-2.05.39-.23.5-.58.44-1-.02-.11-.06-.21-.11-.31-.52-.07-1.04-.13-1.57-.19-.11.06-.22.11-.33.18-1.17.66-2.35,1.32-3.52,1.98-.08.04-.16.08-.27.13,0-.06.01-.08.02-.11.13-.51.26-1.01.38-1.52.08-.34.15-.68.23-1.01-.65-.06-1.31-.11-1.96-.16-.38,1.38-.75,2.76-1.13,4.13-.02.09-.08.19-.15.24-1.09.64-2.19,1.27-3.29,1.9-.24.14-.48.26-.74.41,0-.17-.02-.32-.02-.47,0-1.42-.01-2.83-.01-4.25,0-.08.05-.17.11-.23.63-.64,1.26-1.28,1.89-1.91-1.7-.07-3.41-.12-5.13-.12-.35,0-.7.01-1.05.01.67.67,1.33,1.34,1.99,2.02.05.05.1.14.1.21,0,1.46,0,2.92-.02,4.37,0,.11-.01.22-.02.35-.1-.05-.18-.09-.25-.13-1.07-.61-2.15-1.22-3.22-1.83-.22-.13-.51-.22-.65-.41s-.15-.49-.22-.74c-.35-1.26-.69-2.52-1.04-3.77-.66.02-1.32.05-1.98.08.2.8.4,1.6.6,2.4Zm88.85,31.25c-.01,1.18-.01,2.37-.02,3.55v.22c-.07-.06-.11-.1-.14-.13-.34-.34-.68-.69-1.03-1.03-.43-.41-.86-.81-1.31-1.19-.33-.28-.81-.23-1.14.08-.3.28-.45.87-.18,1.2.15.18.3.37.47.54,1.07,1.09,2.15,2.18,3.23,3.27.05.05.1.14.1.21,0,1.46,0,2.92-.02,4.37,0,.11-.01.22-.02.35-.1-.05-.18-.09-.25-.13-1.07-.61-2.15-1.22-3.22-1.83-.22-.13-.51-.22-.65-.41-.15-.19-.15-.49-.22-.74-.4-1.45-.8-2.91-1.21-4.36-.13-.46-.38-.64-.84-.67-.56-.04-1.08.37-1.02.98.01.12.02.24.05.36.2.8.4,1.61.6,2.41.04.17.08.33.12.53-.08-.04-.14-.06-.19-.09-.43-.24-.86-.47-1.29-.71-1.02-.56-2.03-1.13-3.04-1.69-.21-.12-.43-.13-.64-.02-.17.09-.34.2-.47.34-.37.42-.28,1.03.18,1.34.1.07.19.13.29.19,1.26.75,2.52,1.5,3.78,2.25.09.05.18.11.3.19-.2.07-.37.14-.54.19-.85.25-1.7.51-2.55.74-.33.09-.5.31-.6.6-.26.75.45,1.44,1.04,1.26.22-.06.45-.09.68-.15,1.44-.37,2.87-.74,4.31-1.1.1-.03.24-.01.33.04,1.28.71,2.56,1.44,3.83,2.16.05.03.1.07.16.12-.17.12-.32.23-.48.32-1.18.7-2.36,1.39-3.54,2.08-.05.03-.13.04-.19.02-.78-.2-1.56-.42-2.34-.62-.91-.24-1.83-.47-2.74-.69-.22-.05-.43-.02-.62.1-.33.22-.53.52-.52.92.01.38.24.63.58.78.12.05.24.11.37.14.63.18,1.27.36,1.9.54.28.08.56.16.88.25-.08.07-.13.11-.19.15-.22.14-.43.29-.65.42-.96.57-1.93,1.14-2.89,1.71-.26.16-.52.33-.75.53-.35.31-.38.71-.13,1.12.26.42.59.57,1.04.41.26-.09.52-.21.76-.34,1.05-.59,2.1-1.18,3.14-1.78.24-.13.48-.26.75-.41-.02.09-.02.15-.04.2-.24.96-.48,1.91-.73,2.87-.12.44.03.76.35,1.04.47.41,1.34.2,1.46-.39.02-.12.08-.23.11-.35.44-1.55.87-3.11,1.3-4.66.03-.13.09-.21.21-.27,1.28-.73,2.55-1.47,3.82-2.21.04-.03.09-.05.15-.08,0,.05,0,.08,0,.11.01,1.52.03,3.04.04,4.57,0,.08-.05.17-.1.23-1.15,1.17-2.31,2.33-3.47,3.5q-.4.41-.36.98c.01.19.08.34.21.49.34.39,1.01.48,1.42.09.72-.7,1.44-1.39,2.17-2.09.04-.04.08-.07.15-.14v.22c0,1.39,0,2.78.02,4.17,0,.3.05.6.09.9.04.28.2.47.46.59.11.05.23.11.34.16h.25c.09-.04.18-.09.27-.13.35-.13.52-.4.55-.76.03-.32.06-.64.07-.96.01-1.33.01-2.65.02-3.98,0-.06,0-.12,0-.18.02,0,.04-.01.06-.02.04.05.07.11.12.15.73.7,1.44,1.41,2.19,2.09.52.48,1.35.21,1.55-.47.1-.35.04-.67-.22-.94-1.19-1.22-2.38-2.45-3.57-3.67-.08-.08-.11-.15-.11-.26.02-1.51.03-3.02.04-4.53,0-.03,0-.07,0-.12.04.02.05.02.07.03,1.32.77,2.65,1.53,3.97,2.3.05.03.09.1.11.16.12.42.23.85.34,1.27.35,1.24.7,2.49,1.05,3.73.1.35.34.55.67.64.71.19,1.36-.43,1.19-1.14-.24-.98-.49-1.95-.74-2.93-.01-.06-.02-.12-.03-.2.1.05.16.08.22.12.93.53,1.85,1.06,2.78,1.58.53.29,1.07.58,1.62.82.41.18.72.06.99-.29.29-.39.32-.75.06-1.11-.08-.11-.18-.2-.28-.27-.21-.15-.43-.3-.66-.44-1.16-.69-2.33-1.38-3.49-2.07-.06-.04-.12-.08-.21-.14.27-.08.5-.15.73-.21.81-.23,1.61-.46,2.42-.7.13-.04.27-.11.35-.2.09-.11.16-.23.21-.34-.31-.44-.63-.87-.95-1.31-.51.12-1.02.22-1.53.35-1.22.31-2.44.64-3.66.96-.06.02-.14.02-.19-.01-1.22-.71-2.43-1.43-3.64-2.15-.12-.07-.24-.17-.37-.27.06-.05.1-.08.15-.11,1.28-.72,2.56-1.45,3.85-2.17.09-.05.22-.06.32-.03.63.15,1.25.31,1.87.47.39.1.78.2,1.18.3-1.21-1.54-2.46-3.05-3.75-4.53-.16.59-.32,1.17-.48,1.76-.02.09-.08.19-.15.24-1.09.64-2.19,1.27-3.29,1.9-.24.14-.48.26-.74.41,0-.17-.02-.32-.02-.47,0-1.42-.01-2.83-.01-4.25,0-.08.05-.17.1-.23.7-.71,1.4-1.42,2.1-2.12-.44-.48-.89-.96-1.34-1.44-.23.22-.46.43-.68.65-.05.05-.1.1-.19.18v-.2c0-.51,0-1.01,0-1.52-.67-.69-1.36-1.37-2.05-2.05Zm24.83,129.69c-.33-.28-.81-.23-1.14.08-.3.28-.45.87-.18,1.2.15.18.3.37.47.54.59.6,1.18,1.2,1.77,1.79.29-.65.58-1.3.85-1.96-.15-.15-.3-.31-.46-.46-.43-.41-.86-.81-1.31-1.19Zm-196.93-120.52c.09.05.18.11.3.19-.2.07-.37.14-.54.19-.85.25-1.7.51-2.55.74-.33.09-.5.31-.6.6-.26.75.45,1.44,1.04,1.26.22-.06.46-.09.68-.15,1.44-.37,2.87-.74,4.31-1.1.1-.03.24-.01.33.04,1.28.71,2.56,1.44,3.83,2.16.05.03.1.07.16.12-.17.12-.32.23-.48.32-1.18.7-2.35,1.39-3.54,2.08-.05.03-.13.04-.19.02-.78-.2-1.56-.42-2.34-.62-.91-.24-1.83-.47-2.74-.69-.22-.05-.43-.02-.62.1-.33.22-.53.52-.52.92.01.38.24.63.58.78.12.05.24.11.37.14.63.18,1.27.36,1.9.54.28.08.56.16.88.25-.08.07-.13.11-.19.15-.22.14-.43.29-.65.42-.96.57-1.93,1.14-2.89,1.71-.26.16-.52.33-.75.53-.35.31-.38.71-.13,1.12.26.42.59.57,1.04.41.26-.09.52-.21.76-.34,1.05-.59,2.1-1.18,3.14-1.78.24-.13.48-.26.75-.41-.02.09-.02.15-.04.2-.24.96-.48,1.91-.73,2.87-.12.44.03.76.35,1.04.47.41,1.34.2,1.46-.39.02-.12.08-.23.11-.35.44-1.55.87-3.11,1.3-4.66.03-.13.09-.21.21-.27,1.28-.73,2.55-1.47,3.82-2.21.04-.03.09-.05.15-.08,0,.05,0,.08,0,.11.01,1.52.03,3.04.04,4.57,0,.08-.05.17-.1.23-1.15,1.17-2.31,2.33-3.47,3.5q-.4.41-.36.98c.01.19.08.34.21.49.34.39,1.01.48,1.42.09.72-.7,1.44-1.39,2.17-2.09.04-.04.08-.07.15-.14v.22c0,1.39,0,2.78.02,4.17,0,.3.05.6.09.9.04.28.2.47.45.59.11.05.23.11.34.16h.25c.09-.04.18-.09.27-.13.35-.13.52-.4.55-.76.03-.32.06-.64.07-.96.01-1.33.02-2.65.02-3.98,0-.06,0-.12,0-.18.02,0,.04-.01.06-.02.04.05.07.11.12.15.73.7,1.44,1.41,2.19,2.09.52.48,1.35.21,1.55-.47.1-.35.04-.67-.22-.94-1.19-1.22-2.38-2.45-3.57-3.67-.08-.08-.11-.15-.11-.26.02-1.51.03-3.02.04-4.53,0-.03,0-.07,0-.12.04.02.05.02.07.03,1.32.77,2.65,1.53,3.97,2.3.05.03.09.1.11.16.12.42.23.85.34,1.27.35,1.24.7,2.49,1.05,3.73.1.35.34.55.67.64.71.19,1.36-.43,1.19-1.14-.24-.98-.49-1.95-.74-2.93-.01-.06-.02-.12-.03-.2.1.05.16.08.22.12.93.53,1.85,1.06,2.78,1.58.53.29,1.07.58,1.62.82.41.18.72.06.99-.29.29-.39.32-.75.06-1.11-.08-.11-.18-.2-.28-.27-.21-.15-.43-.3-.66-.44-1.16-.69-2.33-1.38-3.49-2.07-.06-.04-.12-.08-.21-.14.27-.08.5-.15.73-.21.81-.23,1.61-.46,2.42-.7.13-.04.27-.11.35-.2.36-.45.4-.88.03-1.3-.07-.08-.15-.15-.23-.22-.15-.13-.32-.18-.51-.13-.52.12-1.04.22-1.56.35-1.22.31-2.44.64-3.66.96-.06.02-.14.02-.19-.01-1.22-.71-2.43-1.43-3.64-2.15-.12-.07-.24-.17-.37-.27.06-.05.1-.08.15-.11,1.28-.72,2.56-1.45,3.85-2.17.09-.05.22-.06.32-.03.62.15,1.25.31,1.87.47,1.01.25,2.01.51,3.02.76.57.14,1.03-.15,1.17-.71.12-.47-.15-.96-.6-1.12-.16-.05-.32-.11-.48-.15-.77-.22-1.54-.44-2.31-.67-.09-.03-.17-.08-.29-.13.08-.06.12-.09.17-.12.23-.14.45-.27.68-.41,1.14-.68,2.28-1.37,3.42-2.05.39-.23.5-.58.44-1-.08-.58-.78-.96-1.3-.7-.24.12-.48.25-.71.38-1.17.66-2.35,1.32-3.52,1.98-.08.04-.16.08-.27.13,0-.06.01-.08.02-.11.13-.51.26-1.01.38-1.52.12-.52.25-1.04.35-1.56.1-.54-.19-.94-.71-1.06-.54-.13-.98.12-1.15.64-.03.1-.07.2-.09.3-.42,1.55-.85,3.09-1.27,4.64-.02.09-.08.19-.15.24-1.09.64-2.19,1.27-3.29,1.9-.24.14-.48.26-.74.41,0-.17-.02-.32-.02-.47,0-1.42-.01-2.83-.01-4.25,0-.08.05-.17.11-.23.95-.97,1.91-1.93,2.87-2.89.27-.27.53-.56.78-.85.08-.1.15-.23.18-.36.07-.4-.15-.84-.5-1.04-.35-.2-.71-.17-1.05.14-.74.69-1.47,1.4-2.2,2.1-.05.05-.1.1-.19.18v-.2c0-.76,0-1.51,0-2.27-.01-.82-.02-1.64-.06-2.46-.03-.68-.28-.98-.85-1.1-.44-.09-1.03.32-1.08.77-.03.34-.06.67-.06,1.01-.01,1.34-.02,2.68-.02,4.03v.22c-.07-.06-.11-.1-.14-.13-.34-.34-.68-.69-1.03-1.03-.43-.41-.86-.81-1.31-1.19-.33-.28-.81-.23-1.14.08-.3.28-.45.87-.18,1.2.15.18.3.37.47.54,1.07,1.09,2.15,2.18,3.23,3.27.05.05.1.14.1.21,0,1.46,0,2.92-.02,4.37,0,.11-.01.22-.02.35-.1-.05-.18-.09-.25-.13-1.07-.61-2.15-1.22-3.22-1.83-.22-.13-.51-.22-.65-.41-.15-.19-.15-.49-.22-.74-.4-1.45-.8-2.91-1.21-4.36-.03-.12-.08-.22-.13-.3-.51.54-1.02,1.09-1.52,1.64.14.58.29,1.16.43,1.74.04.17.08.33.12.53-.08-.04-.14-.06-.19-.09-.43-.24-.86-.47-1.29-.71-.08-.05-.17-.09-.25-.14-.45.51-.89,1.02-1.33,1.54.56.33,1.13.67,1.69,1.01Zm164.62,167.52c.01.11.02.21.04.32.47-.39.94-.79,1.4-1.18-.12-.06-.25-.1-.42-.11-.56-.04-1.08.37-1.02.98Zm26.63-41.64c-1.01-.56-2.03-1.13-3.04-1.69-.21-.12-.43-.13-.64-.02-.17.09-.34.2-.47.34-.37.42-.28,1.03.18,1.34.1.07.19.13.29.19,1.26.75,2.52,1.5,3.78,2.25.09.05.18.11.3.19-.2.07-.37.14-.54.19-.85.25-1.7.51-2.55.74-.33.09-.5.31-.6.6-.26.75.45,1.44,1.04,1.26.22-.06.45-.09.68-.15,1.44-.37,2.87-.74,4.31-1.1.1-.03.24-.01.33.04.18.1.36.2.54.3.31-.61.62-1.22.92-1.83-.2-.1-.42-.19-.54-.35-.15-.19-.15-.49-.22-.74-.4-1.45-.8-2.91-1.21-4.36-.13-.46-.38-.64-.84-.67-.56-.04-1.08.37-1.02.98.01.12.02.24.05.36.2.8.4,1.61.6,2.41.04.17.08.33.12.53-.08-.04-.14-.06-.19-.09-.43-.24-.86-.47-1.29-.71Zm8.25-8.25c-.04.34-.06.67-.06,1.01,0,.59,0,1.17-.01,1.76.46-1.15.92-2.31,1.34-3.48-.06-.02-.12-.05-.2-.07-.44-.09-1.03.32-1.08.77Zm-7.71,16.51c-.91-.24-1.83-.47-2.74-.69-.22-.05-.43-.02-.62.1-.33.22-.53.52-.52.92.01.38.24.63.58.78.12.05.24.11.37.14.63.18,1.27.36,1.9.54.28.08.56.16.88.25-.08.07-.13.11-.19.15-.22.14-.43.29-.65.42-.96.57-1.93,1.14-2.89,1.71-.26.16-.52.33-.75.53-.35.31-.38.71-.13,1.12.26.42.59.57,1.04.41.26-.09.52-.21.76-.34.19-.11.38-.22.58-.33,1.14-1.79,2.24-3.62,3.29-5.48-.31-.08-.61-.16-.92-.24Zm-209.01-13.72c-.01-.82-.02-1.64-.05-2.46-.03-.68-.28-.98-.85-1.1-.44-.09-1.03.32-1.08.77-.03.34-.06.67-.06,1.01-.01,1.34-.02,2.68-.02,4.03v.22c-.07-.06-.11-.1-.14-.13-.34-.34-.68-.69-1.03-1.03-.21-.2-.43-.39-.64-.58,1.19,2.9,2.49,5.75,3.9,8.53,0-1.28-.01-2.55-.01-3.83,0-.08.05-.17.11-.23.95-.97,1.91-1.93,2.87-2.89.27-.27.53-.56.78-.85.08-.1.15-.23.18-.36.07-.4-.15-.84-.5-1.04-.35-.2-.71-.17-1.05.14-.74.69-1.47,1.4-2.2,2.1-.05.05-.1.1-.19.18v-.2c0-.76,0-1.51,0-2.27Zm8.63,7.53c1.14-.68,2.28-1.37,3.42-2.05.39-.23.5-.58.44-1-.08-.58-.78-.96-1.3-.7-.24.12-.48.25-.71.38-1.17.66-2.35,1.32-3.52,1.98-.08.04-.16.08-.27.13,0-.06.01-.08.02-.11.13-.51.26-1.01.38-1.52.12-.52.25-1.04.35-1.56.1-.54-.19-.94-.71-1.06-.54-.13-.98.12-1.15.64-.03.1-.07.2-.09.3-.42,1.55-.85,3.09-1.27,4.64-.02.09-.08.19-.15.24-1.09.64-2.19,1.27-3.29,1.9-.13.07-.27.15-.41.22.31.6.63,1.2.95,1.8,1.25-.71,2.51-1.42,3.77-2.12.09-.05.22-.06.32-.03.62.15,1.25.31,1.87.47,1.01.25,2.01.51,3.02.76.57.14,1.03-.15,1.17-.71.12-.47-.15-.96-.6-1.12-.16-.05-.32-.11-.48-.15-.77-.22-1.54-.44-2.31-.67-.09-.03-.17-.08-.29-.13.08-.06.12-.09.17-.12.23-.14.45-.27.68-.41Zm-1.17,13.2c-.24-.98-.49-1.95-.74-2.93-.01-.06-.02-.12-.03-.2.1.05.16.08.22.12.93.53,1.85,1.06,2.78,1.58.53.29,1.07.58,1.62.82.41.18.72.06.99-.29.29-.39.32-.75.06-1.11-.08-.11-.18-.2-.28-.27-.21-.15-.43-.3-.66-.44-1.16-.69-2.33-1.38-3.49-2.07-.06-.04-.12-.08-.21-.14.27-.08.5-.15.73-.21.81-.23,1.61-.46,2.42-.7.13-.04.27-.11.35-.2.36-.45.4-.88.03-1.3-.07-.08-.15-.15-.23-.22-.15-.13-.32-.18-.51-.13-.52.12-1.04.22-1.56.35-1.22.31-2.44.64-3.66.96-.06.02-.14.02-.19-.01-1.17-.69-2.35-1.38-3.52-2.08.64,1.19,1.32,2.36,2,3.52.17.1.34.2.51.3.05.03.09.1.11.16.1.37.2.73.3,1.1.88,1.44,1.79,2.86,2.73,4.27.21-.22.31-.53.23-.86Zm-9.64-104.29c.05.05.1.14.1.21,0,1.46,0,2.92-.02,4.37,0,.11-.01.22-.02.35-.1-.05-.18-.09-.25-.13-1.07-.61-2.15-1.22-3.22-1.83-.22-.13-.51-.22-.65-.41s-.15-.49-.22-.74c-.05-.18-.1-.36-.15-.54-.35,1.04-.68,2.1-1,3.15.04-.01.09-.02.13-.03.1-.03.24-.01.33.04,1.28.71,2.56,1.44,3.83,2.16.05.03.1.07.16.12-.17.12-.32.23-.48.32-1.18.7-2.35,1.39-3.53,2.08-.05.03-.13.04-.19.02-.49-.13-.98-.26-1.48-.39-.37,1.41-.72,2.83-1.04,4.26.12-.07.25-.14.37-.21.24-.13.48-.26.75-.41-.02.09-.02.15-.04.2-.24.96-.48,1.91-.73,2.87-.12.44.03.76.35,1.04.47.41,1.34.2,1.46-.39.02-.12.08-.23.11-.35.44-1.55.87-3.11,1.3-4.66.03-.13.09-.21.21-.27,1.28-.73,2.55-1.47,3.82-2.21.04-.03.09-.05.15-.08,0,.05,0,.08,0,.11.01,1.52.03,3.04.04,4.57,0,.08-.05.17-.1.23-1.15,1.17-2.31,2.33-3.47,3.5q-.4.41-.36.98c.01.19.08.34.21.49.34.39,1.01.48,1.42.09.72-.7,1.44-1.39,2.17-2.09.04-.04.08-.07.15-.14v.22c0,1.39,0,2.78.02,4.17,0,.3.05.6.09.9.04.28.2.47.45.59.11.05.23.11.34.16h.25c.09-.04.18-.09.27-.13.35-.13.52-.4.55-.76.03-.32.06-.64.07-.96.01-1.33.02-2.65.02-3.98,0-.06,0-.12,0-.18.02,0,.04-.02.06-.02.04.05.07.11.12.15.73.7,1.44,1.41,2.19,2.09.52.48,1.35.21,1.55-.47.1-.35.04-.67-.22-.94-1.19-1.22-2.38-2.45-3.57-3.67-.08-.08-.11-.15-.11-.26.02-1.51.03-3.02.04-4.53,0-.03,0-.07,0-.12.04.02.05.02.07.03,1.32.77,2.65,1.53,3.97,2.3.05.03.09.1.11.16.12.42.23.85.34,1.27.35,1.24.7,2.49,1.05,3.73.1.35.34.55.67.64.71.19,1.36-.43,1.19-1.14-.24-.98-.49-1.95-.74-2.93-.01-.06-.02-.12-.03-.2.1.05.16.08.22.12.93.53,1.85,1.06,2.78,1.58.53.29,1.07.58,1.62.82.41.18.72.06.99-.29.29-.39.32-.75.06-1.11-.08-.11-.18-.2-.28-.27-.21-.15-.43-.3-.66-.44-1.16-.69-2.33-1.38-3.49-2.07-.06-.04-.12-.08-.21-.14.27-.08.5-.15.73-.21.81-.23,1.61-.46,2.42-.7.13-.04.27-.11.35-.2.36-.45.4-.88.03-1.3-.07-.08-.15-.15-.23-.22-.15-.13-.32-.18-.51-.13-.52.12-1.04.22-1.56.35-1.22.31-2.44.64-3.66.96-.06.02-.14.02-.19-.01-1.22-.71-2.43-1.43-3.64-2.15-.12-.07-.24-.17-.37-.27.06-.05.1-.08.15-.11,1.28-.72,2.56-1.45,3.85-2.17.09-.05.22-.06.32-.03.62.15,1.25.31,1.87.47,1.01.25,2.01.51,3.02.76.57.14,1.03-.15,1.17-.71.12-.47-.15-.96-.6-1.12-.16-.05-.32-.11-.48-.15-.77-.22-1.54-.44-2.31-.67-.09-.03-.17-.08-.29-.13.08-.06.12-.09.17-.12.23-.14.45-.27.68-.41,1.14-.68,2.28-1.37,3.42-2.05.39-.23.5-.58.44-1-.08-.58-.78-.96-1.3-.7-.24.12-.48.25-.71.38-1.17.66-2.35,1.32-3.52,1.98-.08.04-.16.08-.27.13,0-.06.01-.08.02-.11.13-.51.26-1.01.38-1.52.12-.52.25-1.04.35-1.56.1-.54-.19-.94-.71-1.06-.54-.13-.98.12-1.15.64-.03.1-.07.2-.09.3-.42,1.55-.85,3.09-1.27,4.64-.02.09-.08.19-.15.24-1.09.64-2.19,1.27-3.29,1.9-.24.14-.48.26-.74.41,0-.17-.02-.32-.02-.47,0-1.42-.01-2.83-.01-4.25,0-.08.05-.17.11-.23.95-.97,1.91-1.93,2.87-2.89.27-.27.53-.56.78-.85.08-.1.15-.23.18-.36.07-.4-.15-.84-.5-1.04-.35-.2-.71-.17-1.05.14-.74.69-1.47,1.4-2.2,2.1-.05.05-.1.1-.19.18v-.2c0-.76,0-1.51,0-2.27-.01-.82-.02-1.64-.05-2.46-.03-.68-.28-.98-.85-1.1-.44-.09-1.03.32-1.08.77-.03.34-.06.67-.06,1.01-.01,1.34-.02,2.68-.02,4.03v.22c-.07-.06-.11-.1-.14-.13-.34-.34-.68-.69-1.03-1.03-.36-.34-.72-.67-1.09-.99-.26.64-.5,1.29-.75,1.94.97.98,1.94,1.96,2.91,2.95Zm41.88,57.99c-.08-.11-.18-.2-.28-.27-.21-.15-.43-.3-.66-.44-1.16-.69-2.33-1.38-3.49-2.07-.06-.04-.12-.08-.21-.14.27-.08.5-.15.73-.21.81-.23,1.61-.46,2.42-.7.13-.04.27-.11.35-.2.36-.45.4-.88.03-1.3-.07-.08-.15-.15-.23-.22-.15-.13-.32-.18-.51-.13-.52.12-1.04.22-1.56.35-1.22.31-2.44.64-3.66.96-.06.02-.14.02-.19-.01-1.22-.71-2.43-1.43-3.64-2.15-.12-.07-.24-.17-.37-.27.06-.05.1-.08.15-.11,1.28-.72,2.56-1.45,3.85-2.17.09-.05.22-.06.32-.03.62.15,1.25.31,1.87.47,1.01.25,2.01.51,3.02.76.57.14,1.03-.15,1.17-.71.12-.47-.15-.96-.6-1.12-.16-.05-.32-.11-.48-.15-.77-.22-1.54-.44-2.31-.67-.09-.03-.17-.08-.29-.13.08-.06.12-.09.17-.12.23-.14.45-.27.68-.41,1.14-.68,2.28-1.37,3.42-2.05.39-.23.5-.58.44-1-.08-.58-.78-.96-1.3-.7-.24.12-.48.25-.71.38-1.17.66-2.35,1.32-3.52,1.98-.08.04-.16.08-.27.13,0-.06.01-.08.02-.11.13-.51.26-1.01.38-1.52.12-.52.25-1.04.35-1.56.1-.54-.19-.94-.71-1.06-.54-.13-.98.12-1.15.64-.03.1-.07.2-.09.3-.42,1.55-.85,3.09-1.27,4.64-.02.09-.08.19-.15.24-1.09.64-2.19,1.27-3.29,1.9-.24.14-.48.26-.74.41,0-.17-.02-.32-.02-.47,0-1.42-.01-2.83-.01-4.25,0-.08.05-.17.11-.23.95-.97,1.91-1.93,2.87-2.89.27-.27.53-.56.78-.85.08-.1.15-.23.18-.36.07-.4-.15-.84-.5-1.04-.35-.2-.71-.17-1.05.14-.74.69-1.47,1.4-2.2,2.1-.05.05-.1.1-.19.18v-.2c0-.76,0-1.51,0-2.27-.01-.82-.02-1.64-.06-2.46-.03-.68-.28-.98-.85-1.1-.44-.09-1.03.32-1.08.77-.03.34-.06.67-.06,1.01-.01,1.34-.02,2.68-.02,4.03v.22c-.07-.06-.11-.1-.14-.13-.34-.34-.68-.69-1.03-1.03-.43-.41-.86-.81-1.31-1.19-.33-.28-.81-.23-1.14.08-.3.28-.45.87-.18,1.2.15.18.3.37.47.54,1.07,1.09,2.15,2.18,3.23,3.27.05.05.1.14.1.21,0,1.46,0,2.92-.02,4.37,0,.11-.01.22-.02.35-.1-.05-.18-.09-.25-.13-1.07-.61-2.15-1.22-3.22-1.83-.22-.13-.51-.22-.65-.41s-.15-.49-.22-.74c-.4-1.45-.8-2.91-1.21-4.36-.13-.46-.38-.64-.84-.67-.56-.04-1.08.37-1.02.98.01.12.02.24.05.36.2.8.4,1.61.6,2.41.04.17.08.33.12.53-.08-.04-.14-.06-.19-.09-.43-.24-.86-.47-1.29-.71-1.02-.56-2.03-1.13-3.04-1.69-.21-.12-.43-.13-.64-.02-.17.09-.34.2-.47.34-.37.42-.28,1.03.18,1.34.1.07.19.13.29.19,1.26.75,2.52,1.5,3.79,2.25.09.05.18.11.3.19-.2.07-.37.14-.54.19-.85.25-1.7.51-2.55.74-.33.09-.5.31-.6.6-.26.75.45,1.44,1.04,1.26.22-.06.46-.09.68-.15,1.44-.37,2.87-.74,4.31-1.1.1-.03.24-.01.33.04,1.28.71,2.56,1.44,3.83,2.16.05.03.1.07.16.12-.17.12-.32.23-.48.32-1.18.7-2.35,1.39-3.54,2.08-.05.03-.13.04-.19.02-.78-.2-1.56-.42-2.34-.62-.91-.24-1.83-.47-2.74-.69-.22-.05-.43-.02-.62.1-.33.22-.53.52-.52.92.01.38.24.63.58.78.12.05.24.11.37.14.63.18,1.27.36,1.9.54.28.08.56.16.88.25-.08.07-.13.11-.19.15-.22.14-.43.29-.65.42-.96.57-1.93,1.14-2.89,1.71-.26.16-.52.33-.75.53-.35.31-.38.71-.13,1.12.26.42.59.57,1.04.41.26-.09.52-.21.76-.34,1.05-.59,2.1-1.18,3.14-1.78.24-.13.48-.26.75-.41-.02.09-.02.15-.04.2-.24.96-.48,1.91-.73,2.87-.12.44.03.76.35,1.04.47.41,1.34.2,1.46-.39.02-.12.08-.23.11-.35.44-1.55.87-3.11,1.3-4.66.03-.13.09-.21.21-.27,1.28-.73,2.55-1.47,3.82-2.21.04-.03.09-.05.15-.08,0,.05,0,.08,0,.11.01,1.52.03,3.04.04,4.57,0,.08-.05.17-.1.23-1.15,1.17-2.31,2.33-3.47,3.5q-.4.41-.36.98c.01.19.08.34.21.49.34.39,1.01.48,1.42.09.72-.7,1.44-1.39,2.17-2.09.04-.04.08-.07.15-.14v.22c0,1.39,0,2.78.02,4.17,0,.3.05.6.09.9.04.28.2.47.45.59.11.05.23.11.34.16h.25c.09-.04.18-.09.27-.13.35-.13.52-.4.55-.76.03-.32.06-.64.07-.96.01-1.33.02-2.65.02-3.98,0-.06,0-.12,0-.18.02,0,.04-.02.06-.02.04.05.07.11.12.15.73.7,1.44,1.41,2.19,2.09.52.48,1.35.21,1.55-.47.1-.35.04-.67-.22-.94-1.19-1.22-2.38-2.45-3.57-3.67-.08-.08-.11-.15-.11-.26.02-1.51.03-3.02.04-4.53,0-.03,0-.07,0-.12.04.02.05.02.07.03,1.32.77,2.65,1.53,3.97,2.3.05.03.09.1.11.16.12.42.23.85.34,1.27.35,1.24.7,2.49,1.05,3.73.1.35.34.55.67.64.71.19,1.36-.43,1.19-1.14-.24-.98-.49-1.95-.74-2.93-.01-.06-.02-.12-.03-.2.1.05.16.08.22.12.93.53,1.85,1.06,2.78,1.58.53.29,1.07.58,1.62.82.41.18.72.06.99-.29.29-.39.32-.75.06-1.11Zm-12.36,69.72c-.01-.82-.02-1.64-.06-2.46-.03-.68-.28-.98-.85-1.1-.44-.09-1.03.32-1.08.77-.03.34-.06.67-.06,1.01,0,.14,0,.28,0,.42.68.63,1.36,1.25,2.05,1.86,0-.17,0-.33,0-.5Zm109.33,25.65c.01-1.33.01-2.65.02-3.98,0-.06,0-.12,0-.18.02,0,.04-.02.06-.02.04.05.07.11.12.15.73.7,1.44,1.41,2.19,2.09.52.48,1.35.21,1.55-.47.1-.35.04-.67-.22-.94-1.19-1.22-2.38-2.45-3.57-3.67-.08-.08-.11-.15-.11-.26.02-1.51.03-3.02.04-4.53,0-.03,0-.07,0-.12.04.02.05.02.07.03,1.32.77,2.65,1.53,3.97,2.3.05.03.09.1.11.16.12.42.23.85.34,1.27.35,1.24.7,2.49,1.05,3.73.1.35.34.55.67.64.71.19,1.36-.43,1.19-1.14-.24-.98-.49-1.95-.74-2.93-.01-.06-.02-.12-.03-.2.09.05.16.08.22.12.93.53,1.85,1.06,2.78,1.58.53.29,1.07.58,1.62.82.41.18.72.06.99-.29.29-.39.32-.75.06-1.11-.08-.11-.18-.2-.28-.27-.21-.15-.43-.3-.66-.44-1.16-.69-2.33-1.38-3.49-2.07-.06-.04-.12-.08-.21-.14.27-.08.5-.15.73-.21.81-.23,1.61-.46,2.42-.7.13-.04.27-.11.35-.2.36-.45.4-.88.03-1.3-.07-.08-.15-.15-.23-.22-.15-.13-.32-.18-.51-.13-.52.12-1.04.22-1.56.35-1.22.31-2.44.64-3.66.96-.06.02-.14.02-.19-.01-1.22-.71-2.43-1.43-3.64-2.15-.12-.07-.24-.17-.37-.27.06-.05.1-.08.15-.11,1.28-.72,2.56-1.45,3.85-2.17.09-.05.22-.06.32-.03.63.15,1.25.31,1.87.47,1.01.25,2.01.51,3.02.76.57.14,1.03-.15,1.17-.71.12-.47-.15-.96-.6-1.12-.16-.05-.32-.11-.48-.15-.77-.22-1.54-.44-2.31-.67-.09-.03-.17-.08-.29-.13.08-.06.12-.09.17-.12.23-.14.45-.27.68-.41,1.14-.68,2.28-1.37,3.42-2.05.39-.23.5-.58.44-1-.08-.58-.78-.96-1.3-.7-.24.12-.48.25-.71.38-1.17.66-2.35,1.32-3.52,1.98-.08.04-.16.08-.27.13,0-.06,0-.08.02-.11.13-.51.26-1.01.38-1.52.12-.52.25-1.04.35-1.56.1-.54-.19-.94-.71-1.06-.54-.13-.98.12-1.15.64-.03.1-.07.2-.09.3-.42,1.55-.85,3.09-1.27,4.64-.02.09-.08.19-.15.24-1.09.64-2.19,1.27-3.29,1.9-.24.14-.48.26-.74.41,0-.17-.02-.32-.02-.47,0-1.42-.01-2.83-.01-4.25,0-.08.05-.17.1-.23.95-.97,1.91-1.93,2.87-2.89.27-.27.53-.56.78-.85.08-.1.15-.23.18-.36.07-.4-.15-.84-.5-1.04-.35-.2-.71-.17-1.05.14-.74.69-1.47,1.4-2.2,2.1-.05.05-.1.1-.19.18v-.2c0-.76,0-1.51,0-2.27,0-.82-.02-1.64-.05-2.46-.03-.68-.28-.98-.85-1.1-.44-.09-1.03.32-1.08.77-.03.34-.06.67-.06,1.01-.01,1.34-.02,2.68-.02,4.03v.22c-.07-.06-.11-.1-.14-.13-.34-.34-.68-.69-1.03-1.03-.43-.41-.86-.81-1.31-1.19-.33-.28-.81-.23-1.14.08-.3.28-.45.87-.18,1.2.15.18.3.37.47.54,1.07,1.09,2.15,2.18,3.23,3.27.05.05.1.14.1.21,0,1.46,0,2.92-.02,4.37,0,.11-.01.22-.02.35-.1-.05-.18-.09-.25-.13-1.07-.61-2.15-1.22-3.22-1.83-.22-.13-.51-.22-.65-.41-.15-.19-.15-.49-.22-.74-.4-1.45-.8-2.91-1.21-4.36-.13-.46-.38-.64-.84-.67-.56-.04-1.08.37-1.02.98.01.12.02.24.05.36.2.8.4,1.61.6,2.41.04.17.08.33.12.53-.08-.04-.14-.06-.19-.09-.43-.24-.86-.47-1.29-.71-1.02-.56-2.03-1.13-3.04-1.69-.21-.12-.43-.13-.64-.02-.17.09-.34.2-.47.34-.37.42-.28,1.03.18,1.34.1.07.19.13.29.19,1.26.75,2.52,1.5,3.79,2.25.09.05.18.11.3.19-.2.07-.37.14-.54.19-.85.25-1.7.51-2.55.74-.33.09-.5.31-.6.6-.26.75.45,1.44,1.04,1.26.22-.06.45-.09.68-.15,1.44-.37,2.87-.74,4.31-1.1.1-.03.24-.01.33.04,1.28.71,2.56,1.44,3.83,2.16.05.03.1.07.16.12-.17.12-.32.23-.48.32-1.18.7-2.36,1.39-3.54,2.08-.05.03-.13.04-.19.02-.78-.2-1.56-.42-2.34-.62-.91-.24-1.83-.47-2.74-.69-.22-.05-.43-.02-.62.1-.33.22-.53.52-.52.92.01.38.24.63.58.78.12.05.24.11.37.14.63.18,1.27.36,1.9.54.28.08.56.16.88.25-.08.07-.13.11-.19.15-.22.14-.43.29-.65.42-.96.57-1.93,1.14-2.89,1.71-.26.16-.52.33-.75.53-.35.31-.38.71-.13,1.12.26.42.59.57,1.04.41.26-.09.52-.21.76-.34,1.05-.59,2.1-1.18,3.14-1.78.24-.13.48-.26.75-.41-.02.09-.02.15-.04.2-.24.96-.48,1.91-.73,2.87-.12.44.03.76.35,1.04.47.41,1.34.2,1.46-.39.02-.12.08-.23.11-.35.44-1.55.87-3.11,1.3-4.66.04-.13.09-.21.21-.27,1.28-.73,2.55-1.47,3.82-2.21.04-.03.09-.05.15-.08,0,.05,0,.08,0,.11.01,1.52.03,3.04.04,4.57,0,.08-.05.17-.1.23-1.15,1.17-2.31,2.33-3.47,3.5q-.4.41-.36.98c.01.19.08.34.21.49.34.39,1.01.48,1.42.09.72-.7,1.44-1.39,2.17-2.09.04-.04.08-.07.15-.14v.22c0,1.39,0,2.78.02,4.17,0,.3.05.6.09.9.01.08.05.14.09.21.6-.15,1.2-.3,1.79-.45.03-.29.06-.57.06-.86Zm41.42-21.88c-.21-.12-.43-.13-.64-.02-.17.09-.34.2-.47.34-.37.42-.28,1.03.18,1.34.1.07.19.13.29.19.28.17.56.33.83.5.56-.43,1.12-.86,1.68-1.3-.63-.35-1.26-.7-1.88-1.05Zm-139.88,5.24s-.09-.03-.14-.04c.2.14.4.28.6.42-.11-.17-.26-.3-.46-.37Zm1.64-4.53c-.08-.58-.78-.96-1.3-.7-.24.12-.48.25-.71.38-1.17.66-2.35,1.32-3.52,1.98-.02.01-.05.02-.07.03.59.45,1.18.89,1.78,1.33,1.13-.67,2.25-1.35,3.38-2.02.39-.23.5-.58.44-1Zm5.66-193.5c.47.41,1.34.2,1.46-.39.02-.12.08-.23.11-.35.23-.82.46-1.63.68-2.45-.81.46-1.62.93-2.42,1.41-.06.25-.12.5-.19.74-.12.44.03.76.35,1.04Zm18.87,164.17c.53.29,1.07.58,1.62.82.41.18.72.06.99-.29.29-.39.32-.75.06-1.11-.08-.11-.18-.2-.28-.27-.21-.15-.43-.3-.66-.44-1.16-.69-2.33-1.38-3.49-2.07-.06-.04-.12-.08-.21-.14.27-.08.5-.15.73-.21.81-.23,1.61-.46,2.42-.7.13-.04.27-.11.35-.2.36-.45.4-.88.03-1.3-.07-.08-.15-.15-.23-.22-.15-.13-.32-.18-.51-.13-.52.12-1.04.22-1.56.35-1.22.31-2.44.64-3.66.96-.06.02-.14.02-.19-.01-1.22-.71-2.43-1.43-3.64-2.15-.12-.07-.24-.17-.37-.27.06-.05.1-.08.15-.11,1.28-.72,2.56-1.45,3.85-2.17.09-.05.22-.06.32-.03.62.15,1.25.31,1.87.47,1.01.25,2.01.51,3.02.76.57.14,1.03-.15,1.17-.71.12-.47-.15-.96-.6-1.12-.16-.05-.32-.11-.48-.15-.77-.22-1.54-.44-2.31-.67-.09-.03-.17-.08-.29-.13.08-.06.12-.09.17-.12.23-.14.45-.27.68-.41,1.14-.68,2.28-1.37,3.42-2.05.39-.23.5-.58.44-1-.08-.58-.78-.96-1.3-.7-.24.12-.48.25-.71.38-1.17.66-2.35,1.32-3.52,1.98-.08.04-.16.08-.27.13,0-.06.01-.08.02-.11.13-.51.26-1.01.38-1.52.12-.52.25-1.04.35-1.56.1-.54-.19-.94-.71-1.06-.54-.13-.98.12-1.15.64-.03.1-.07.2-.09.3-.42,1.55-.85,3.09-1.27,4.64-.02.09-.08.19-.15.24-1.09.64-2.19,1.27-3.29,1.9-.24.14-.48.26-.74.41,0-.17-.02-.32-.02-.47,0-1.42-.01-2.83-.01-4.25,0-.08.05-.17.11-.23.95-.97,1.91-1.93,2.87-2.89.27-.27.53-.56.78-.85.08-.1.15-.23.18-.36.07-.4-.15-.84-.5-1.04-.35-.2-.71-.17-1.05.14-.74.69-1.47,1.4-2.2,2.1-.05.05-.1.1-.19.18v-.2c0-.76,0-1.51,0-2.27-.01-.82-.02-1.64-.06-2.46-.03-.68-.28-.98-.85-1.1-.44-.09-1.03.32-1.08.77-.03.34-.06.67-.06,1.01-.01,1.34-.02,2.68-.02,4.03v.22c-.07-.06-.11-.1-.14-.13-.34-.34-.68-.69-1.03-1.03-.43-.41-.86-.81-1.31-1.19-.33-.28-.81-.23-1.14.08-.3.28-.45.87-.18,1.2.15.18.3.37.47.54,1.07,1.09,2.15,2.18,3.23,3.27.05.05.1.14.1.21,0,1.46,0,2.92-.02,4.37,0,.11-.01.22-.02.35-.1-.05-.18-.09-.25-.13-1.07-.61-2.15-1.22-3.22-1.83-.22-.13-.51-.22-.65-.41-.15-.19-.15-.49-.22-.74-.4-1.45-.8-2.91-1.21-4.36-.13-.46-.38-.64-.84-.67-.56-.04-1.08.37-1.02.98.01.12.02.24.05.36.2.8.4,1.61.6,2.41.04.17.08.33.12.53-.08-.04-.14-.06-.19-.09-.43-.24-.86-.47-1.29-.71-1.02-.56-2.03-1.13-3.04-1.69-.21-.12-.43-.13-.64-.02-.17.09-.34.2-.47.34-.37.42-.28,1.03.18,1.34.1.07.19.13.29.19,1.26.75,2.52,1.5,3.79,2.25.09.05.18.11.3.19-.2.07-.37.14-.54.19-.85.25-1.7.51-2.55.74-.33.09-.5.31-.6.6-.26.75.45,1.44,1.04,1.26.22-.06.46-.09.68-.15,1.44-.37,2.87-.74,4.31-1.1.1-.03.24-.01.33.04,1.28.71,2.56,1.44,3.83,2.16.05.03.1.07.16.12-.17.12-.32.23-.48.32-1.18.7-2.35,1.39-3.54,2.08-.05.03-.13.04-.19.02-.78-.2-1.56-.42-2.34-.62-.91-.24-1.83-.47-2.74-.69-.22-.05-.43-.02-.62.1-.33.22-.53.52-.52.92.01.38.24.63.58.78.12.05.24.11.37.14.63.18,1.27.36,1.9.54.28.08.56.16.88.25-.08.07-.13.11-.19.15-.22.14-.43.29-.65.42-.96.57-1.93,1.14-2.89,1.71-.26.16-.52.33-.75.53-.35.31-.38.71-.13,1.12.26.42.59.57,1.04.41.26-.09.52-.21.76-.34,1.05-.59,2.1-1.18,3.14-1.78.24-.13.48-.26.75-.41-.02.09-.02.15-.04.2-.24.96-.48,1.91-.73,2.87-.12.44.03.76.35,1.04.47.41,1.34.2,1.46-.39.02-.12.08-.23.11-.35.44-1.55.87-3.11,1.3-4.66.04-.13.09-.21.21-.27,1.28-.73,2.55-1.47,3.82-2.21.04-.03.09-.05.15-.08,0,.05,0,.08,0,.11.01,1.52.03,3.04.04,4.57,0,.08-.05.17-.1.23-1.15,1.17-2.31,2.33-3.47,3.5q-.4.41-.36.98c.01.19.08.34.21.49.34.39,1.01.48,1.42.09.72-.7,1.44-1.39,2.17-2.09.04-.04.08-.07.15-.14v.22c0,1.39,0,2.78.02,4.17,0,.3.05.6.09.9.04.28.2.47.45.59.11.05.23.11.34.16h.25c.09-.04.18-.09.27-.13.35-.13.52-.4.55-.76.03-.32.06-.64.07-.96.01-1.33.02-2.65.02-3.98,0-.06,0-.12,0-.18.02,0,.04-.02.06-.02.04.05.07.11.12.15.73.7,1.44,1.41,2.19,2.09.52.48,1.35.21,1.55-.47.1-.35.04-.67-.22-.94-1.19-1.22-2.38-2.45-3.57-3.67-.08-.08-.11-.15-.11-.26.02-1.51.03-3.02.04-4.53,0-.03,0-.07,0-.12.04.02.05.02.07.03,1.33.77,2.65,1.53,3.97,2.3.05.03.09.1.11.16.12.42.23.85.34,1.27.35,1.24.7,2.49,1.05,3.73.1.35.34.55.67.64.71.19,1.36-.43,1.19-1.14-.24-.98-.49-1.95-.74-2.93-.01-.06-.02-.12-.03-.2.1.05.16.08.22.12.93.53,1.85,1.06,2.78,1.58Zm2.67-167.16c-.08-.11-.18-.2-.28-.27-.21-.15-.43-.3-.66-.44-1.16-.69-2.33-1.38-3.49-2.07-.06-.04-.12-.08-.21-.14.27-.08.5-.15.73-.21.81-.23,1.61-.46,2.42-.7.13-.04.27-.11.35-.2.36-.45.4-.88.03-1.3-.07-.08-.15-.15-.23-.22-.15-.13-.32-.18-.51-.13-.52.12-1.04.22-1.56.35-1.22.31-2.44.64-3.66.96-.06.02-.14.02-.19-.01-.57-.33-1.13-.67-1.7-1.01-.76.34-1.51.68-2.26,1.03.99.57,1.97,1.14,2.96,1.71.05.03.09.1.11.16.12.42.23.85.34,1.27.35,1.24.7,2.49,1.05,3.73.1.35.34.55.67.64.71.19,1.36-.43,1.19-1.14-.24-.98-.49-1.95-.74-2.93-.01-.06-.02-.12-.03-.2.1.05.16.08.22.12.93.53,1.85,1.06,2.78,1.58.53.29,1.07.58,1.62.82.41.18.72.06.99-.29.29-.39.32-.75.06-1.11Zm0,77.81c-.08-.11-.18-.2-.28-.27-.21-.15-.43-.3-.66-.44-1.16-.69-2.33-1.38-3.49-2.07-.06-.04-.12-.08-.21-.14.27-.08.5-.15.73-.21.81-.23,1.61-.46,2.42-.7.13-.04.27-.11.35-.2.36-.45.4-.88.03-1.3-.07-.08-.15-.15-.23-.22-.15-.13-.32-.18-.51-.13-.52.12-1.04.22-1.56.35-1.22.31-2.44.64-3.66.96-.06.02-.14.02-.19-.01-1.22-.71-2.43-1.43-3.64-2.15-.12-.07-.24-.17-.37-.27.06-.05.1-.08.15-.11,1.28-.72,2.56-1.45,3.85-2.17.09-.05.22-.06.32-.03.62.15,1.25.31,1.87.47,1.01.25,2.01.51,3.02.76.57.14,1.03-.15,1.17-.71.12-.47-.15-.96-.6-1.12-.16-.05-.32-.11-.48-.15-.77-.22-1.54-.44-2.31-.67-.09-.03-.17-.08-.29-.13.08-.06.12-.09.17-.12.23-.14.45-.27.68-.41,1.14-.68,2.28-1.37,3.42-2.05.39-.23.5-.58.44-1-.08-.58-.78-.96-1.3-.7-.24.12-.48.25-.71.38-1.17.66-2.35,1.32-3.52,1.98-.08.04-.16.08-.27.13,0-.06.01-.08.02-.11.13-.51.26-1.01.38-1.52.12-.52.25-1.04.35-1.56.1-.54-.19-.94-.71-1.06-.54-.13-.98.12-1.15.64-.03.1-.07.2-.09.3-.42,1.55-.85,3.09-1.27,4.64-.02.09-.08.19-.15.24-1.09.64-2.19,1.27-3.29,1.9-.24.14-.48.26-.74.41,0-.17-.02-.32-.02-.47,0-1.42-.01-2.83-.01-4.25,0-.08.05-.17.11-.23.95-.97,1.91-1.93,2.87-2.89.27-.27.53-.56.78-.85.08-.1.15-.23.18-.36.07-.4-.15-.84-.5-1.04-.35-.2-.71-.17-1.05.14-.74.69-1.47,1.4-2.2,2.1-.05.05-.1.1-.19.18v-.2c0-.76,0-1.51,0-2.27-.01-.82-.02-1.64-.06-2.46-.03-.68-.28-.98-.85-1.1-.44-.09-1.03.32-1.08.77-.03.34-.06.67-.06,1.01-.01,1.34-.02,2.68-.02,4.03v.22c-.07-.06-.11-.1-.14-.13-.34-.34-.68-.69-1.03-1.03-.43-.41-.86-.81-1.31-1.19-.33-.28-.81-.23-1.14.08-.3.28-.45.87-.18,1.2.15.18.3.37.47.54,1.07,1.09,2.15,2.18,3.23,3.27.05.05.1.14.1.21,0,1.46,0,2.92-.02,4.37,0,.11-.01.22-.02.35-.1-.05-.18-.09-.25-.13-1.07-.61-2.15-1.22-3.22-1.83-.22-.13-.51-.22-.65-.41s-.15-.49-.22-.74c-.4-1.45-.8-2.91-1.21-4.36-.13-.46-.38-.64-.84-.67-.56-.04-1.08.37-1.02.98.01.12.02.24.05.36.2.8.4,1.61.6,2.41.04.17.08.33.12.53-.08-.04-.14-.06-.19-.09-.43-.24-.86-.47-1.29-.71-1.02-.56-2.03-1.13-3.04-1.69-.21-.12-.43-.13-.64-.02-.17.09-.34.2-.47.34-.37.42-.28,1.03.18,1.34.1.07.19.13.29.19,1.26.75,2.52,1.5,3.79,2.25.09.05.18.11.3.19-.2.07-.37.14-.54.19-.85.25-1.7.51-2.55.74-.33.09-.5.31-.6.6-.26.75.45,1.44,1.04,1.26.22-.06.46-.09.68-.15,1.44-.37,2.87-.74,4.31-1.1.1-.03.24-.01.33.04,1.28.71,2.56,1.44,3.83,2.16.05.03.1.07.16.12-.17.12-.32.23-.48.32-1.18.7-2.35,1.39-3.54,2.08-.05.03-.13.04-.19.02-.78-.2-1.56-.42-2.34-.62-.91-.24-1.83-.47-2.74-.69-.22-.05-.43-.02-.62.1-.33.22-.53.52-.52.92.01.38.24.63.58.78.12.05.24.11.37.14.63.18,1.27.36,1.9.54.28.08.56.16.88.25-.08.07-.13.11-.19.15-.22.14-.43.29-.65.42-.96.57-1.93,1.14-2.89,1.71-.26.16-.52.33-.75.53-.35.31-.38.71-.13,1.12.26.42.59.57,1.04.41.26-.09.52-.21.76-.34,1.05-.59,2.1-1.18,3.14-1.78.24-.13.48-.26.75-.41-.02.09-.02.15-.04.2-.24.96-.48,1.91-.73,2.87-.12.44.03.76.35,1.04.47.41,1.34.2,1.46-.39.02-.12.08-.23.11-.35.44-1.55.87-3.11,1.3-4.66.04-.13.09-.21.21-.27,1.28-.73,2.55-1.47,3.82-2.21.04-.03.09-.05.15-.08,0,.05,0,.08,0,.11.01,1.52.03,3.04.04,4.57,0,.08-.05.17-.1.23-1.15,1.17-2.31,2.33-3.47,3.5q-.4.41-.36.98c.01.19.08.34.21.49.34.39,1.01.48,1.42.09.72-.7,1.44-1.39,2.17-2.09.04-.04.08-.07.15-.14v.22c0,1.39,0,2.78.02,4.17,0,.3.05.6.09.9.04.28.2.47.45.59.11.05.23.11.34.16h.25c.09-.04.18-.09.27-.13.35-.13.52-.4.55-.76.03-.32.06-.64.07-.96.01-1.33.02-2.65.02-3.98,0-.06,0-.12,0-.18.02,0,.04-.02.06-.02.04.05.07.11.12.15.73.7,1.44,1.41,2.19,2.09.52.48,1.35.21,1.55-.47.1-.35.04-.67-.22-.94-1.19-1.22-2.38-2.45-3.57-3.67-.08-.08-.11-.15-.11-.26.02-1.51.03-3.02.04-4.53,0-.03,0-.07,0-.12.04.02.05.02.07.03,1.33.77,2.65,1.53,3.97,2.3.05.03.09.1.11.16.12.42.23.85.34,1.27.35,1.24.7,2.49,1.05,3.73.1.35.34.55.67.64.71.19,1.36-.43,1.19-1.14-.24-.98-.49-1.95-.74-2.93-.01-.06-.02-.12-.03-.2.1.05.16.08.22.12.93.53,1.85,1.06,2.78,1.58.53.29,1.07.58,1.62.82.41.18.72.06.99-.29.29-.39.32-.75.06-1.11Zm27.34-39.52c-.08-.11-.18-.2-.28-.27-.21-.15-.43-.3-.66-.44-1.16-.69-2.33-1.38-3.49-2.07-.06-.04-.12-.08-.21-.14.27-.08.5-.15.73-.21.81-.23,1.61-.46,2.42-.7.13-.04.27-.11.35-.2.36-.45.4-.88.03-1.3-.07-.08-.15-.15-.23-.22-.15-.13-.32-.18-.51-.13-.52.12-1.04.22-1.56.35-1.22.31-2.44.64-3.66.96-.06.02-.14.02-.19-.01-1.22-.71-2.43-1.43-3.64-2.15-.12-.07-.24-.17-.37-.27.06-.05.1-.08.15-.11,1.28-.72,2.56-1.45,3.85-2.17.09-.05.22-.06.32-.03.63.15,1.25.31,1.87.47,1.01.25,2.01.51,3.02.76.57.14,1.03-.15,1.17-.71.12-.47-.15-.96-.6-1.12-.16-.05-.32-.11-.48-.15-.77-.22-1.54-.44-2.31-.67-.09-.03-.17-.08-.29-.13.08-.06.12-.09.17-.12.23-.14.45-.27.68-.41,1.14-.68,2.28-1.37,3.42-2.05.39-.23.5-.58.44-1-.08-.58-.78-.96-1.3-.7-.24.12-.48.25-.71.38-1.17.66-2.35,1.32-3.52,1.98-.08.04-.16.08-.27.13,0-.06.01-.08.02-.11.13-.51.26-1.01.38-1.52.12-.52.25-1.04.35-1.56.1-.54-.19-.94-.71-1.06-.54-.13-.98.12-1.15.64-.03.1-.07.2-.09.3-.42,1.55-.85,3.09-1.27,4.64-.02.09-.08.19-.15.24-1.09.64-2.19,1.27-3.29,1.9-.24.14-.48.26-.74.41,0-.17-.02-.32-.02-.47,0-1.42-.01-2.83-.01-4.25,0-.08.05-.17.11-.23.95-.97,1.91-1.93,2.87-2.89.27-.27.53-.56.78-.85.08-.1.15-.23.18-.36.07-.4-.15-.84-.5-1.04-.35-.2-.71-.17-1.05.14-.74.69-1.47,1.4-2.2,2.1-.05.05-.1.1-.19.18v-.2c0-.76,0-1.51,0-2.27-.01-.82-.02-1.64-.06-2.46-.03-.68-.28-.98-.85-1.1-.44-.09-1.03.32-1.08.77-.03.34-.06.67-.06,1.01-.01,1.34-.02,2.68-.02,4.03v.22c-.07-.06-.11-.1-.14-.13-.34-.34-.68-.69-1.03-1.03-.43-.41-.86-.81-1.31-1.19-.33-.28-.81-.23-1.14.08-.3.28-.45.87-.18,1.2.15.18.3.37.47.54,1.07,1.09,2.15,2.18,3.23,3.27.05.05.1.14.1.21,0,1.46,0,2.92-.02,4.37,0,.11-.01.22-.02.35-.1-.05-.18-.09-.25-.13-1.07-.61-2.15-1.22-3.22-1.83-.22-.13-.51-.22-.65-.41-.15-.19-.15-.49-.22-.74-.4-1.45-.8-2.91-1.21-4.36-.13-.46-.38-.64-.84-.67-.56-.04-1.08.37-1.02.98.01.12.02.24.05.36.2.8.4,1.61.6,2.41.04.17.08.33.12.53-.08-.04-.14-.06-.19-.09-.43-.24-.86-.47-1.29-.71-1.02-.56-2.03-1.13-3.04-1.69-.21-.12-.43-.13-.64-.02-.17.09-.34.2-.47.34-.37.42-.28,1.03.18,1.34.1.07.19.13.29.19,1.26.75,2.52,1.5,3.79,2.25.09.05.18.11.3.19-.2.07-.37.14-.54.19-.85.25-1.7.51-2.55.74-.33.09-.5.31-.6.6-.26.75.45,1.44,1.04,1.26.22-.06.46-.09.68-.15,1.44-.37,2.87-.74,4.31-1.1.1-.03.24-.01.33.04,1.28.71,2.56,1.44,3.83,2.16.05.03.1.07.16.12-.17.12-.32.23-.48.32-1.18.7-2.36,1.39-3.54,2.08-.05.03-.13.04-.19.02-.78-.2-1.56-.42-2.34-.62-.91-.24-1.83-.47-2.74-.69-.22-.05-.43-.02-.62.1-.33.22-.53.52-.52.92.01.38.24.63.58.78.12.05.24.11.37.14.63.18,1.27.36,1.9.54.28.08.56.16.88.25-.08.07-.13.11-.19.15-.22.14-.43.29-.65.42-.96.57-1.93,1.14-2.89,1.71-.26.16-.52.33-.75.53-.35.31-.38.71-.13,1.12.26.42.59.57,1.04.41.26-.09.52-.21.76-.34,1.05-.59,2.1-1.18,3.14-1.78.24-.13.48-.26.75-.41-.02.09-.02.15-.04.2-.24.96-.48,1.91-.73,2.87-.12.44.03.76.35,1.04.47.41,1.34.2,1.46-.39.02-.12.08-.23.11-.35.44-1.55.87-3.11,1.3-4.66.04-.13.09-.21.21-.27,1.28-.73,2.55-1.47,3.82-2.21.04-.03.09-.05.15-.08,0,.05,0,.08,0,.11.01,1.52.03,3.04.04,4.57,0,.08-.05.17-.1.23-1.15,1.17-2.31,2.33-3.47,3.5q-.4.41-.36.98c.01.19.08.34.21.49.34.39,1.01.48,1.42.09.72-.7,1.44-1.39,2.17-2.09.04-.04.08-.07.15-.14v.22c0,1.39,0,2.78.02,4.17,0,.3.05.6.09.9.04.28.2.47.45.59.11.05.23.11.34.16h.25c.09-.04.18-.09.27-.13.35-.13.52-.4.55-.76.03-.32.06-.64.07-.96.01-1.33.01-2.65.02-3.98,0-.06,0-.12,0-.18.02,0,.04-.01.06-.02.04.05.07.11.12.15.73.7,1.44,1.41,2.19,2.09.52.48,1.35.21,1.55-.47.1-.35.04-.67-.22-.94-1.19-1.22-2.38-2.45-3.57-3.67-.08-.08-.11-.15-.11-.26.02-1.51.03-3.02.04-4.53,0-.03,0-.07,0-.12.04.02.05.02.07.03,1.33.77,2.65,1.53,3.97,2.3.05.03.09.1.11.16.12.42.23.85.34,1.27.35,1.24.7,2.49,1.05,3.73.1.35.34.55.67.64.71.19,1.36-.43,1.19-1.14-.24-.98-.49-1.95-.74-2.93-.01-.06-.02-.12-.03-.2.1.05.16.08.22.12.93.53,1.85,1.06,2.78,1.58.53.29,1.07.58,1.62.82.41.18.72.06.99-.29.29-.39.32-.75.06-1.11Zm-29.4-46.17c.57.14,1.03-.15,1.17-.71,0-.01,0-.02,0-.03-.56.2-1.12.4-1.67.61.17.04.33.09.5.13Zm-34.2,199.93c-.35-.2-.71-.17-1.05.14-.44.41-.88.84-1.32,1.26.49.43,1,.85,1.5,1.27.14-.14.27-.27.41-.41.27-.27.53-.56.78-.85.08-.1.15-.23.18-.36.07-.4-.15-.84-.5-1.04Zm63.6-69.77c-.08-.11-.18-.2-.28-.27-.21-.15-.43-.3-.66-.44-1.16-.69-2.33-1.38-3.49-2.07-.06-.04-.12-.08-.21-.14.27-.08.5-.15.73-.21.81-.23,1.61-.46,2.42-.7.13-.04.27-.11.35-.2.36-.45.4-.88.03-1.3-.07-.08-.15-.15-.23-.22-.15-.13-.32-.18-.51-.13-.52.12-1.04.22-1.56.35-1.22.31-2.44.64-3.66.96-.06.02-.14.02-.19-.01-1.22-.71-2.43-1.43-3.64-2.15-.12-.07-.24-.17-.37-.27.06-.05.1-.08.15-.11,1.28-.72,2.56-1.45,3.85-2.17.09-.05.22-.06.32-.03.63.15,1.25.31,1.87.47,1.01.25,2.01.51,3.02.76.57.14,1.03-.15,1.17-.71.12-.47-.15-.96-.6-1.12-.16-.05-.32-.11-.48-.15-.77-.22-1.54-.44-2.31-.67-.09-.03-.17-.08-.29-.13.08-.06.12-.09.17-.12.23-.14.45-.27.68-.41,1.14-.68,2.28-1.37,3.42-2.05.39-.23.5-.58.44-1-.08-.58-.78-.96-1.3-.7-.24.12-.48.25-.71.38-1.17.66-2.35,1.32-3.52,1.98-.08.04-.16.08-.27.13,0-.06.01-.08.02-.11.13-.51.26-1.01.38-1.52.12-.52.25-1.04.35-1.56.1-.54-.19-.94-.71-1.06-.54-.13-.98.12-1.15.64-.03.1-.07.2-.09.3-.42,1.55-.85,3.09-1.27,4.64-.02.09-.08.19-.15.24-1.09.64-2.19,1.27-3.29,1.9-.24.14-.48.26-.74.41,0-.17-.02-.32-.02-.47,0-1.42-.01-2.83-.01-4.25,0-.08.05-.17.11-.23.95-.97,1.91-1.93,2.87-2.89.27-.27.53-.56.78-.85.08-.1.15-.23.18-.36.07-.4-.15-.84-.5-1.04-.35-.2-.71-.17-1.05.14-.74.69-1.47,1.4-2.2,2.1-.05.05-.1.1-.19.18v-.2c0-.76,0-1.51,0-2.27-.01-.82-.02-1.64-.06-2.46-.03-.68-.28-.98-.85-1.1-.44-.09-1.03.32-1.08.77-.03.34-.06.67-.06,1.01-.01,1.34-.02,2.68-.02,4.03v.22c-.07-.06-.11-.1-.14-.13-.34-.34-.68-.69-1.03-1.03-.43-.41-.86-.81-1.31-1.19-.33-.28-.81-.23-1.14.08-.3.28-.45.87-.18,1.2.15.18.3.37.47.54,1.07,1.09,2.15,2.18,3.23,3.27.05.05.1.14.1.21,0,1.46,0,2.92-.02,4.37,0,.11-.01.22-.02.35-.1-.05-.18-.09-.25-.13-1.07-.61-2.15-1.22-3.22-1.83-.22-.13-.51-.22-.65-.41s-.15-.49-.22-.74c-.4-1.45-.8-2.91-1.21-4.36-.13-.46-.38-.64-.84-.67-.56-.04-1.08.37-1.02.98.01.12.02.24.05.36.2.8.4,1.61.6,2.41.04.17.08.33.12.53-.08-.04-.14-.06-.19-.09-.43-.24-.86-.47-1.29-.71-1.02-.56-2.03-1.13-3.04-1.69-.21-.12-.43-.13-.64-.02-.17.09-.34.2-.47.34-.37.42-.28,1.03.18,1.34.1.07.19.13.29.19,1.26.75,2.52,1.5,3.79,2.25.09.05.18.11.3.19-.2.07-.37.14-.54.19-.85.25-1.7.51-2.55.74-.33.09-.5.31-.6.6-.26.75.45,1.44,1.04,1.26.22-.06.46-.09.68-.15,1.44-.37,2.87-.74,4.31-1.1.1-.03.24-.01.33.04,1.28.71,2.56,1.44,3.83,2.16.05.03.1.07.16.12-.17.12-.32.23-.48.32-1.18.7-2.36,1.39-3.54,2.08-.05.03-.13.04-.19.02-.78-.2-1.56-.42-2.34-.62-.91-.24-1.83-.47-2.74-.69-.22-.05-.43-.02-.62.1-.33.22-.53.52-.52.92.01.38.24.63.58.78.12.05.24.11.37.14.63.18,1.27.36,1.9.54.28.08.56.16.88.25-.08.07-.13.11-.19.15-.22.14-.43.29-.65.42-.96.57-1.93,1.14-2.89,1.71-.26.16-.52.33-.75.53-.35.31-.38.71-.13,1.12.26.42.59.57,1.04.41.26-.09.52-.21.76-.34,1.05-.59,2.1-1.18,3.14-1.78.24-.13.48-.26.75-.41-.02.09-.02.15-.04.2-.24.96-.48,1.91-.73,2.87-.12.44.03.76.35,1.04.47.41,1.34.2,1.46-.39.02-.12.08-.23.11-.35.44-1.55.87-3.11,1.3-4.66.04-.13.09-.21.21-.27,1.28-.73,2.55-1.47,3.82-2.21.04-.03.09-.05.15-.08,0,.05,0,.08,0,.11.01,1.52.03,3.04.04,4.57,0,.08-.05.17-.1.23-1.15,1.17-2.31,2.33-3.47,3.5q-.4.41-.36.98c.01.19.08.34.21.49.34.39,1.01.48,1.42.09.72-.7,1.44-1.39,2.17-2.09.04-.04.08-.07.15-.14v.22c0,1.39,0,2.78.02,4.17,0,.3.05.6.09.9.04.28.2.47.45.59.11.05.23.11.34.16h.25c.09-.04.18-.09.27-.13.35-.13.52-.4.55-.76.03-.32.06-.64.07-.96.01-1.33.01-2.65.02-3.98,0-.06,0-.12,0-.18.02,0,.04-.02.06-.02.04.05.07.11.12.15.73.7,1.44,1.41,2.19,2.09.52.48,1.35.21,1.55-.47.1-.35.04-.67-.22-.94-1.19-1.22-2.38-2.45-3.57-3.67-.08-.08-.11-.15-.11-.26.02-1.51.03-3.02.04-4.53,0-.03,0-.07,0-.12.04.02.05.02.07.03,1.33.77,2.65,1.53,3.97,2.3.05.03.09.1.11.16.12.42.23.85.34,1.27.35,1.24.7,2.49,1.05,3.73.1.35.34.55.67.64.71.19,1.36-.43,1.19-1.14-.24-.98-.49-1.95-.74-2.93-.01-.06-.02-.12-.03-.2.1.05.16.08.22.12.93.53,1.85,1.06,2.78,1.58.53.29,1.07.58,1.62.82.41.18.72.06.99-.29.29-.39.32-.75.06-1.11Zm-59.6,72.8c.1-.54-.19-.94-.71-1.06-.54-.13-.98.12-1.15.64-.03.1-.07.2-.09.3-.16.58-.32,1.17-.48,1.75.57.45,1.15.9,1.73,1.34.12-.47.24-.94.35-1.41.12-.52.25-1.04.35-1.56Zm17.82-195.39c0,.08-.05.17-.1.23-1.15,1.17-2.31,2.33-3.47,3.5q-.4.41-.36.98c.01.19.08.34.21.49.34.39,1.01.48,1.42.09.72-.7,1.44-1.39,2.17-2.09.04-.04.08-.07.15-.14v.22c0,1.39,0,2.78.02,4.17,0,.3.05.6.09.9.04.28.2.47.45.59.11.05.23.11.34.16h.25c.09-.04.18-.09.27-.13.35-.13.52-.4.55-.76.03-.32.06-.64.07-.96.01-1.33.02-2.65.02-3.98,0-.06,0-.12,0-.18.02,0,.04-.02.06-.02.04.05.07.11.12.15.73.7,1.44,1.41,2.19,2.09.52.48,1.35.21,1.55-.47.1-.35.04-.67-.22-.94-1.19-1.22-2.38-2.45-3.57-3.67-.08-.08-.11-.15-.11-.26.01-1.17.02-2.34.03-3.51-.71.34-1.42.7-2.13,1.06,0,.83.02,1.65.02,2.48Z"/></g></svg>